<?xml version="1.0" standalone="no"?>
<!DOCTYPE svg PUBLIC "-//W3C//DTD SVG 20010904//EN"
 "http://www.w3.org/TR/2001/REC-SVG-20010904/DTD/svg10.dtd">
<svg version="1.0" xmlns="http://www.w3.org/2000/svg"
 width="64.000000pt" height="64.000000pt" viewBox="0 0 64.000000 64.000000"
 preserveAspectRatio="xMidYMid meet">

<g transform="translate(0.000000,64.000000) scale(0.100000,-0.100000)"
fill="#000000" stroke="none">
<path d="M110 605 c0 -9 -9 -15 -25 -15 -21 0 -25 -5 -25 -30 0 -23 -4 -30
-20 -30 -11 0 -20 -4 -20 -10 0 -5 9 -10 20 -10 11 0 20 -7 20 -15 0 -8 -9
-15 -20 -15 -11 0 -20 -4 -20 -10 0 -5 9 -10 20 -10 11 0 20 -7 20 -15 0 -8
-9 -15 -20 -15 -11 0 -20 -4 -20 -10 0 -5 9 -10 20 -10 11 0 20 -7 20 -15 0
-8 -9 -15 -20 -15 -11 0 -20 -4 -20 -10 0 -5 9 -10 20 -10 11 0 20 -7 20 -15
0 -8 -9 -15 -20 -15 -11 0 -20 -4 -20 -10 0 -5 9 -10 20 -10 11 0 20 -7 20
-15 0 -8 -9 -15 -20 -15 -11 0 -20 -4 -20 -10 0 -5 9 -10 20 -10 11 0 20 -7
20 -15 0 -8 -9 -15 -20 -15 -11 0 -20 -4 -20 -10 0 -5 9 -10 20 -10 11 0 20
-7 20 -15 0 -8 -9 -15 -20 -15 -11 0 -20 -4 -20 -10 0 -5 9 -10 20 -10 11 0
20 -7 20 -15 0 -8 -9 -15 -20 -15 -11 0 -20 -4 -20 -10 0 -5 9 -10 20 -10 16
0 20 -7 20 -30 0 -25 4 -30 25 -30 16 0 25 -6 25 -15 0 -8 5 -15 10 -15 6 0
10 7 10 15 0 8 7 15 15 15 8 0 15 -7 15 -15 0 -8 5 -15 10 -15 6 0 10 7 10 15
0 8 7 15 15 15 8 0 15 -7 15 -15 0 -8 5 -15 10 -15 6 0 10 7 10 15 0 8 7 15
15 15 8 0 15 -7 15 -15 0 -8 5 -15 10 -15 6 0 10 7 10 15 0 8 7 15 15 15 8 0
15 -7 15 -15 0 -8 5 -15 10 -15 6 0 10 7 10 15 0 8 7 15 15 15 8 0 15 -7 15
-15 0 -8 5 -15 10 -15 6 0 10 7 10 15 0 8 7 15 15 15 8 0 15 -7 15 -15 0 -8 5
-15 10 -15 6 0 10 7 10 15 0 8 7 15 15 15 8 0 15 -7 15 -15 0 -8 5 -15 10 -15
6 0 10 7 10 15 0 8 7 15 15 15 8 0 15 -7 15 -15 0 -8 5 -15 10 -15 6 0 10 7
10 15 0 9 9 15 25 15 21 0 25 5 25 30 0 23 4 30 20 30 11 0 20 5 20 10 0 6 -9
10 -20 10 -11 0 -20 7 -20 15 0 8 9 15 20 15 11 0 20 5 20 10 0 6 -9 10 -20
10 -11 0 -20 7 -20 15 0 8 9 15 20 15 11 0 20 5 20 10 0 6 -9 10 -20 10 -11 0
-20 7 -20 15 0 8 9 15 20 15 11 0 20 5 20 10 0 6 -9 10 -20 10 -11 0 -20 7
-20 15 0 8 9 15 20 15 11 0 20 5 20 10 0 6 -9 10 -20 10 -11 0 -20 7 -20 15 0
8 9 15 20 15 11 0 20 5 20 10 0 6 -9 10 -20 10 -11 0 -20 7 -20 15 0 8 9 15
20 15 11 0 20 5 20 10 0 6 -9 10 -20 10 -11 0 -20 7 -20 15 0 8 9 15 20 15 11
0 20 5 20 10 0 6 -9 10 -20 10 -11 0 -20 7 -20 15 0 8 9 15 20 15 11 0 20 5
20 10 0 6 -9 10 -20 10 -16 0 -20 7 -20 30 0 25 -4 30 -25 30 -16 0 -25 6 -25
15 0 8 -4 15 -10 15 -5 0 -10 -7 -10 -15 0 -8 -7 -15 -15 -15 -8 0 -15 7 -15
15 0 8 -4 15 -10 15 -5 0 -10 -7 -10 -15 0 -8 -7 -15 -15 -15 -8 0 -15 7 -15
15 0 8 -4 15 -10 15 -5 0 -10 -7 -10 -15 0 -8 -7 -15 -15 -15 -8 0 -15 7 -15
15 0 8 -4 15 -10 15 -5 0 -10 -7 -10 -15 0 -8 -7 -15 -15 -15 -8 0 -15 7 -15
15 0 8 -4 15 -10 15 -5 0 -10 -7 -10 -15 0 -8 -7 -15 -15 -15 -8 0 -15 7 -15
15 0 8 -4 15 -10 15 -5 0 -10 -7 -10 -15 0 -8 -7 -15 -15 -15 -8 0 -15 7 -15
15 0 8 -4 15 -10 15 -5 0 -10 -7 -10 -15 0 -8 -7 -15 -15 -15 -8 0 -15 7 -15
15 0 8 -4 15 -10 15 -5 0 -10 -7 -10 -15 0 -8 -7 -15 -15 -15 -8 0 -15 7 -15
15 0 8 -4 15 -10 15 -5 0 -10 -7 -10 -15z m450 -285 l0 -250 -240 0 -240 0 0
250 0 250 240 0 240 0 0 -250z"/>
<path d="M275 458 c-58 -20 -106 -55 -132 -95 -45 -67 -27 -83 90 -83 86 0 89
-1 114 -30 13 -17 33 -30 44 -30 15 0 19 -7 19 -39 0 -41 20 -71 46 -71 10 0
14 14 14 55 0 30 5 55 10 55 6 0 10 13 10 29 0 16 7 34 15 41 8 7 15 19 15 27
0 15 -39 76 -53 81 -4 2 -20 14 -35 26 -25 21 -47 30 -106 41 -11 2 -34 -1
-51 -7z m74 -22 c6 -7 22 -11 37 -8 19 3 26 0 31 -16 3 -12 15 -22 26 -24 12
-2 23 -12 26 -23 2 -11 10 -25 19 -31 30 -22 2 -34 -79 -34 -64 0 -79 3 -79
15 0 18 33 20 59 3 24 -15 51 -4 51 22 0 26 -27 37 -51 22 -10 -7 -28 -12 -39
-12 -17 0 -18 3 -9 19 16 24 5 51 -21 51 -26 0 -37 -27 -22 -51 15 -23 16 -69
2 -69 -5 0 -10 11 -10 25 0 16 -6 25 -15 25 -8 0 -24 5 -34 12 -24 15 -51 4
-51 -22 0 -26 27 -37 51 -22 24 16 29 15 29 -3 0 -12 -13 -15 -59 -15 -62 0
-86 14 -59 34 9 6 17 20 19 31 3 11 14 21 26 23 11 2 23 12 26 24 5 16 12 19
31 16 15 -3 31 1 37 8 6 8 19 14 29 14 10 0 23 -6 29 -14z m-19 -46 c0 -5 -4
-10 -10 -10 -5 0 -10 5 -10 10 0 6 5 10 10 10 6 0 10 -4 10 -10z m-100 -50 c0
-5 -4 -10 -10 -10 -5 0 -10 5 -10 10 0 6 5 10 10 10 6 0 10 -4 10 -10z m190 0
c0 -5 -4 -10 -10 -10 -5 0 -10 5 -10 10 0 6 5 10 10 10 6 0 10 -4 10 -10z m50
-80 c0 -17 -7 -20 -43 -20 -31 0 -49 6 -62 20 -18 20 -17 20 43 20 55 0 62 -2
62 -20z m-20 -86 c0 -27 -4 -43 -10 -39 -5 3 -10 24 -10 46 0 21 5 39 10 39 6
0 10 -21 10 -46z"/>
<path d="M220 250 c0 -5 5 -10 10 -10 6 0 10 5 10 10 0 6 -4 10 -10 10 -5 0
-10 -4 -10 -10z"/>
<path d="M260 250 c0 -5 5 -10 10 -10 6 0 10 5 10 10 0 6 -4 10 -10 10 -5 0
-10 -4 -10 -10z"/>
<path d="M300 250 c0 -5 5 -10 10 -10 6 0 10 5 10 10 0 6 -4 10 -10 10 -5 0
-10 -4 -10 -10z"/>
</g>
</svg>
