<?xml version="1.0" encoding="UTF-8" standalone="no" ?>
<!DOCTYPE svg PUBLIC "-//W3C//DTD SVG 1.1//EN" "http://www.w3.org/Graphics/SVG/1.1/DTD/svg11.dtd">
<svg xmlns="http://www.w3.org/2000/svg" xmlns:xlink="http://www.w3.org/1999/xlink" version="1.1" width="1080" height="1080" viewBox="0 0 1080 1080" xml:space="preserve">
<desc>Created with Fabric.js 5.2.4</desc>
<defs>
</defs>
<g transform="matrix(1 0 0 1 540 540)" id="2ca5c980-c70d-4e52-8238-646d10bc4e4d"  >
<rect style="stroke: none; stroke-width: 1; stroke-dasharray: none; stroke-linecap: butt; stroke-dashoffset: 0; stroke-linejoin: miter; stroke-miterlimit: 4; fill: rgb(0, 0, 0); fill-rule: nonzero; opacity: 1; visibility: hidden;" vector-effect="non-scaling-stroke"  x="-540" y="-540" rx="0" ry="0" width="1080" height="1080" />
</g>
<g transform="matrix(1 0 0 1 540 540)" id="e2eed663-ca49-44c1-861e-35fcc41489c6"  >
</g>
<g transform="matrix(3.6 0 0 3.6 540 474.26)"  >
<g style=""   >
		<g transform="matrix(0.13 0 0 -0.13 -29.86 -88.07)"  >
<path style="stroke: none; stroke-width: 1; stroke-dasharray: none; stroke-linecap: butt; stroke-dashoffset: 0; stroke-linejoin: miter; stroke-miterlimit: 4; fill: rgb(0, 0, 0); fill-rule: nonzero; opacity: 1;" vector-effect="non-scaling-stroke"  transform=" translate(-1276.06, -2160.52)" d="M 1410 2339 C 1410 2333 1403 2330 1395 2334 C 1377 2341 1350 2315 1350 2289 C 1350 2273 1345 2271 1323 2276 C 1301 2280 1298 2279 1310 2271 C 1323 2262 1322 2260 1306 2260 C 1291 2260 1290 2257 1299 2246 C 1331 2207 1328 2140 1295 2140 C 1286 2140 1283 2134 1287 2124 C 1291 2112 1287 2110 1266 2116 C 1249 2120 1240 2118 1240 2110 C 1240 2104 1236 2101 1231 2104 C 1226 2107 1215 2099 1206 2085 C 1189 2059 1156 2052 1145 2070 C 1141 2076 1144 2087 1150 2095 C 1160 2108 1158 2110 1136 2110 C 1122 2110 1110 2106 1110 2100 C 1110 2095 1103 2090 1094 2090 C 1086 2090 1082 2085 1085 2080 C 1089 2074 1086 2062 1078 2053 C 1069 2041 1069 2038 1078 2044 C 1084 2048 1090 2047 1090 2041 C 1090 2035 1074 2028 1054 2024 C 1023 2018 1020 2016 1033 2003 C 1049 1987 1123 1967 1115 1981 C 1106 1994 1158 2023 1181 2017 C 1195 2013 1200 2015 1196 2025 C 1190 2041 1315 2104 1332 2094 C 1338 2090 1340 2092 1336 2098 C 1333 2104 1344 2113 1365 2120 C 1407 2134 1409 2142 1374 2165 C 1356 2176 1351 2185 1358 2192 C 1364 2198 1366 2208 1363 2215 C 1361 2223 1364 2239 1371 2252 C 1378 2265 1383 2280 1381 2285 C 1380 2291 1382 2292 1385 2288 C 1389 2284 1401 2285 1412 2291 C 1429 2300 1430 2298 1424 2260 C 1417 2220 1418 2219 1445 2224 C 1465 2228 1470 2226 1466 2214 C 1463 2207 1466 2200 1473 2199 C 1480 2199 1493 2197 1502 2195 C 1528 2190 1533 2206 1518 2240 C 1506 2268 1480 2282 1480 2260 C 1480 2255 1472 2254 1463 2257 C 1449 2263 1451 2266 1475 2276 C 1492 2283 1500 2289 1493 2290 C 1486 2290 1483 2296 1485 2303 C 1488 2309 1486 2320 1482 2326 C 1472 2341 1410 2352 1410 2339 z" stroke-linecap="round" />
</g>
		<g transform="matrix(0.13 0 0 -0.13 2.72 -86.6)"  >
<path style="stroke: none; stroke-width: 1; stroke-dasharray: none; stroke-linecap: butt; stroke-dashoffset: 0; stroke-linejoin: miter; stroke-miterlimit: 4; fill: rgb(0, 0, 0); fill-rule: nonzero; opacity: 1;" vector-effect="non-scaling-stroke"  transform=" translate(-1520.38, -2149.47)" d="M 1394 2194 C 1390 2177 1393 2163 1402 2153 C 1416 2140 1418 2141 1424 2164 C 1429 2186 1434 2189 1448 2181 C 1457 2176 1465 2161 1465 2149 C 1465 2133 1472 2124 1485 2122 C 1496 2120 1524 2110 1547 2099 C 1594 2078 1610 2075 1610 2089 C 1610 2094 1618 2096 1628 2093 C 1642 2090 1646 2096 1648 2119 C 1650 2140 1646 2150 1637 2150 C 1623 2150 1579 2116 1583 2109 C 1584 2107 1581 2108 1576 2112 C 1571 2116 1573 2126 1581 2136 C 1593 2150 1591 2155 1571 2172 C 1552 2187 1545 2188 1539 2178 C 1534 2171 1535 2164 1540 2162 C 1553 2157 1553 2130 1540 2130 C 1535 2130 1530 2136 1530 2143 C 1530 2151 1526 2150 1519 2140 C 1511 2128 1510 2130 1515 2148 C 1520 2164 1517 2170 1505 2170 C 1496 2170 1492 2166 1495 2160 C 1498 2155 1495 2150 1487 2150 C 1477 2150 1474 2157 1477 2168 C 1480 2182 1472 2191 1447 2203 C 1402 2225 1402 2225 1394 2194 z" stroke-linecap="round" />
</g>
		<g transform="matrix(0.13 0 0 -0.13 -40 -81.94)"  >
<path style="stroke: none; stroke-width: 1; stroke-dasharray: none; stroke-linecap: butt; stroke-dashoffset: 0; stroke-linejoin: miter; stroke-miterlimit: 4; fill: rgb(0, 0, 0); fill-rule: nonzero; opacity: 1;" vector-effect="non-scaling-stroke"  transform=" translate(-1200, -2114.58)" d="M 1186 2131 C 1177 2121 1170 2106 1170 2096 C 1170 2082 1174 2082 1200 2102 C 1217 2114 1230 2127 1230 2131 C 1230 2147 1201 2147 1186 2131 z" stroke-linecap="round" />
</g>
		<g transform="matrix(0.13 0 0 -0.13 33 -67.53)"  >
<path style="stroke: none; stroke-width: 1; stroke-dasharray: none; stroke-linecap: butt; stroke-dashoffset: 0; stroke-linejoin: miter; stroke-miterlimit: 4; fill: rgb(0, 0, 0); fill-rule: nonzero; opacity: 1;" vector-effect="non-scaling-stroke"  transform=" translate(-1747.5, -2006.46)" d="M 1685 2091 C 1682 2085 1662 2080 1642 2080 L 1605 2080 L 1632 2055 C 1647 2041 1664 2030 1670 2030 C 1675 2030 1680 2025 1680 2019 C 1680 2013 1687 2011 1696 2014 C 1706 2018 1722 2009 1740 1990 C 1758 1971 1774 1962 1784 1966 C 1793 1969 1800 1967 1800 1961 C 1800 1955 1807 1950 1816 1950 C 1830 1950 1831 1948 1819 1933 C 1807 1919 1807 1918 1819 1924 C 1827 1929 1835 1928 1840 1920 C 1845 1912 1850 1917 1854 1934 C 1857 1948 1867 1960 1875 1960 C 1883 1960 1890 1965 1890 1970 C 1890 1976 1886 1980 1880 1980 C 1875 1980 1870 1988 1870 1997 C 1870 2010 1867 2011 1858 2002 C 1849 1993 1842 1994 1828 2007 C 1813 2021 1806 2021 1783 2011 L 1755 1998 L 1775 2020 C 1794 2041 1794 2042 1776 2056 C 1762 2066 1752 2066 1738 2059 C 1721 2050 1719 2051 1725 2069 C 1733 2096 1719 2096 1697 2069 C 1687 2058 1676 2051 1673 2054 C 1669 2057 1675 2067 1686 2074 C 1696 2082 1702 2091 1698 2095 C 1695 2098 1689 2097 1685 2091 z" stroke-linecap="round" />
</g>
		<g transform="matrix(0.13 0 0 -0.13 -74.1 -52.03)"  >
<path style="stroke: none; stroke-width: 1; stroke-dasharray: none; stroke-linecap: butt; stroke-dashoffset: 0; stroke-linejoin: miter; stroke-miterlimit: 4; fill: rgb(0, 0, 0); fill-rule: nonzero; opacity: 1;" vector-effect="non-scaling-stroke"  transform=" translate(-944.28, -1890.24)" d="M 980 1969 C 980 1963 985 1949 991 1937 C 1001 1916 1001 1916 981 1938 C 966 1955 955 1959 936 1954 C 911 1948 899 1930 921 1930 C 927 1930 928 1925 923 1918 C 919 1911 915 1898 915 1890 C 915 1882 909 1876 902 1878 C 894 1879 891 1876 895 1870 C 898 1865 894 1860 886 1860 C 877 1860 870 1854 870 1846 C 870 1838 863 1829 854 1826 C 846 1823 842 1824 845 1830 C 848 1836 846 1840 841 1840 C 835 1840 830 1831 830 1820 C 830 1791 852 1795 882 1830 C 897 1847 915 1859 922 1858 C 929 1856 934 1863 934 1872 C 933 1882 938 1886 946 1883 C 954 1880 960 1883 960 1890 C 960 1896 964 1898 970 1895 C 975 1892 988 1894 997 1899 C 1007 1905 1011 1910 1007 1910 C 1003 1910 1004 1919 1010 1930 C 1016 1941 1025 1948 1029 1945 C 1040 1939 1065 1968 1057 1977 C 1053 1980 1043 1977 1034 1969 C 1021 1958 1016 1958 1013 1968 C 1007 1983 980 1984 980 1969 z" stroke-linecap="round" />
</g>
		<g transform="matrix(0.13 0 0 -0.13 -52.77 -55.83)"  >
<path style="stroke: none; stroke-width: 1; stroke-dasharray: none; stroke-linecap: butt; stroke-dashoffset: 0; stroke-linejoin: miter; stroke-miterlimit: 4; fill: rgb(0, 0, 0); fill-rule: nonzero; opacity: 1;" vector-effect="non-scaling-stroke"  transform=" translate(-1104.2, -1918.74)" d="M 1160 1962 C 1152 1959 1138 1950 1130 1941 C 1122 1932 1096 1916 1073 1905 C 1049 1894 1030 1882 1030 1879 C 1030 1868 1094 1877 1098 1889 C 1100 1895 1108 1900 1116 1900 C 1124 1900 1130 1905 1130 1910 C 1130 1916 1135 1920 1141 1920 C 1155 1920 1182 1948 1178 1959 C 1176 1963 1168 1965 1160 1962 z" stroke-linecap="round" />
</g>
		<g transform="matrix(0.13 0 0 -0.13 -48.66 -40.75)"  >
<path style="stroke: none; stroke-width: 1; stroke-dasharray: none; stroke-linecap: butt; stroke-dashoffset: 0; stroke-linejoin: miter; stroke-miterlimit: 4; fill: rgb(0, 0, 0); fill-rule: nonzero; opacity: 1;" vector-effect="non-scaling-stroke"  transform=" translate(-1135.02, -1805.61)" d="M 1233 1910 C 1218 1894 1198 1880 1190 1880 C 1171 1880 1139 1844 1141 1827 C 1144 1810 1130 1780 1118 1780 C 1113 1780 1112 1785 1115 1790 C 1129 1813 1105 1797 1067 1760 C 1039 1731 1022 1721 1009 1725 C 986 1732 983 1712 1005 1704 C 1013 1700 1020 1692 1020 1684 C 1020 1665 1025 1666 1056 1695 C 1071 1709 1089 1720 1097 1720 C 1109 1720 1109 1723 1096 1736 C 1079 1753 1076 1761 1088 1759 C 1111 1755 1126 1765 1176 1815 C 1206 1846 1230 1868 1230 1866 C 1230 1863 1241 1872 1255 1886 C 1280 1911 1288 1940 1271 1940 C 1266 1940 1249 1927 1233 1910 z" stroke-linecap="round" />
</g>
		<g transform="matrix(0.13 0 0 -0.13 53.69 -54)"  >
<path style="stroke: none; stroke-width: 1; stroke-dasharray: none; stroke-linecap: butt; stroke-dashoffset: 0; stroke-linejoin: miter; stroke-miterlimit: 4; fill: rgb(0, 0, 0); fill-rule: nonzero; opacity: 1;" vector-effect="non-scaling-stroke"  transform=" translate(-1902.71, -1905)" d="M 1908 1924 C 1904 1921 1894 1917 1883 1916 C 1864 1913 1851 1880 1869 1880 C 1875 1880 1880 1885 1880 1890 C 1880 1897 1886 1897 1899 1891 C 1914 1882 1921 1885 1934 1905 C 1949 1929 1949 1930 1932 1930 C 1922 1930 1911 1927 1908 1924 z" stroke-linecap="round" />
</g>
		<g transform="matrix(0.13 0 0 -0.13 84.47 -32.96)"  >
<path style="stroke: none; stroke-width: 1; stroke-dasharray: none; stroke-linecap: butt; stroke-dashoffset: 0; stroke-linejoin: miter; stroke-miterlimit: 4; fill: rgb(0, 0, 0); fill-rule: nonzero; opacity: 1;" vector-effect="non-scaling-stroke"  transform=" translate(-2133.5, -1747.18)" d="M 1948 1898 C 1964 1882 1963 1870 1947 1870 C 1939 1870 1933 1863 1933 1855 C 1933 1846 1939 1841 1946 1844 C 1952 1846 1965 1834 1975 1817 C 1984 1799 2009 1776 2031 1766 C 2052 1755 2070 1743 2070 1737 C 2070 1732 2077 1730 2085 1734 C 2093 1737 2100 1735 2100 1730 C 2100 1725 2107 1723 2115 1726 C 2123 1730 2130 1727 2130 1720 C 2130 1714 2135 1712 2142 1716 C 2148 1720 2150 1719 2147 1713 C 2143 1707 2147 1697 2155 1690 C 2167 1680 2171 1681 2176 1694 C 2183 1711 2210 1716 2210 1700 C 2210 1695 2217 1690 2226 1690 C 2237 1690 2241 1683 2238 1668 C 2233 1641 2293 1571 2304 1589 C 2308 1595 2305 1600 2298 1600 C 2290 1600 2284 1609 2284 1620 C 2284 1630 2286 1637 2288 1635 C 2291 1633 2302 1636 2313 1642 L 2334 1653 L 2312 1661 C 2300 1666 2290 1677 2290 1686 C 2290 1696 2285 1700 2275 1696 C 2267 1693 2260 1694 2260 1698 C 2260 1702 2247 1711 2230 1717 C 2214 1723 2200 1735 2200 1744 C 2200 1753 2193 1760 2184 1760 C 2175 1760 2166 1769 2163 1781 C 2159 1793 2152 1799 2143 1796 C 2135 1793 2127 1790 2125 1790 C 2123 1790 2124 1781 2127 1770 C 2131 1755 2127 1750 2114 1750 C 2101 1750 2099 1753 2107 1761 C 2122 1776 2104 1818 2081 1822 C 2055 1828 2040 1807 2059 1793 C 2073 1782 2072 1781 2049 1780 C 2026 1780 2024 1783 2025 1818 C 2026 1838 2023 1864 2019 1875 C 2014 1887 2011 1889 2011 1881 C 2010 1870 2007 1871 1996 1885 C 1989 1895 1972 1905 1959 1907 C 1940 1910 1938 1908 1948 1898 z" stroke-linecap="round" />
</g>
		<g transform="matrix(0.13 0 0 -0.13 -94.48 -39.04)"  >
<path style="stroke: none; stroke-width: 1; stroke-dasharray: none; stroke-linecap: butt; stroke-dashoffset: 0; stroke-linejoin: miter; stroke-miterlimit: 4; fill: rgb(0, 0, 0); fill-rule: nonzero; opacity: 1;" vector-effect="non-scaling-stroke"  transform=" translate(-791.39, -1792.81)" d="M 816 1855 C 807 1842 800 1827 800 1821 C 800 1816 788 1809 774 1806 C 760 1802 751 1794 753 1787 C 755 1780 751 1762 743 1747 C 735 1731 731 1716 734 1713 C 744 1703 771 1733 766 1747 C 763 1755 768 1760 780 1760 C 803 1760 809 1768 812 1809 C 813 1829 821 1842 832 1846 C 851 1852 856 1865 841 1874 C 836 1877 825 1869 816 1855 z" stroke-linecap="round" />
</g>
		<g transform="matrix(0.13 0 0 -0.13 -110.4 -29.34)"  >
<path style="stroke: none; stroke-width: 1; stroke-dasharray: none; stroke-linecap: butt; stroke-dashoffset: 0; stroke-linejoin: miter; stroke-miterlimit: 4; fill: rgb(0, 0, 0); fill-rule: nonzero; opacity: 1;" vector-effect="non-scaling-stroke"  transform=" translate(-671.98, -1720.04)" d="M 714 1775 C 710 1767 702 1760 695 1760 C 680 1760 667 1733 676 1719 C 679 1713 671 1712 654 1716 C 637 1721 629 1719 633 1713 C 637 1707 630 1700 619 1697 C 602 1692 600 1688 610 1671 C 622 1648 639 1643 641 1663 C 642 1669 643 1682 644 1690 C 645 1704 650 1705 694 1692 C 712 1687 712 1688 696 1713 C 679 1738 679 1738 709 1745 C 731 1750 740 1758 740 1771 C 740 1794 722 1796 714 1775 z" stroke-linecap="round" />
</g>
		<g transform="matrix(0.13 0 0 -0.13 -76.2 -35.53)"  >
<path style="stroke: none; stroke-width: 1; stroke-dasharray: none; stroke-linecap: butt; stroke-dashoffset: 0; stroke-linejoin: miter; stroke-miterlimit: 4; fill: rgb(0, 0, 0); fill-rule: nonzero; opacity: 1;" vector-effect="non-scaling-stroke"  transform=" translate(-928.47, -1766.46)" d="M 922 1770 C 892 1741 895 1737 930 1755 C 947 1764 958 1775 955 1780 C 947 1793 947 1793 922 1770 z" stroke-linecap="round" />
</g>
		<g transform="matrix(0.13 0 0 -0.13 -82 -26.78)"  >
<path style="stroke: none; stroke-width: 1; stroke-dasharray: none; stroke-linecap: butt; stroke-dashoffset: 0; stroke-linejoin: miter; stroke-miterlimit: 4; fill: rgb(0, 0, 0); fill-rule: nonzero; opacity: 1;" vector-effect="non-scaling-stroke"  transform=" translate(-885.02, -1700.88)" d="M 865 1710 C 852 1695 850 1686 857 1679 C 865 1671 870 1671 874 1679 C 878 1685 876 1690 870 1690 C 864 1690 862 1695 865 1700 C 868 1706 883 1710 898 1710 C 919 1710 922 1712 910 1720 C 889 1733 886 1733 865 1710 z" stroke-linecap="round" />
</g>
		<g transform="matrix(0.13 0 0 -0.13 -74.31 -26.94)"  >
<path style="stroke: none; stroke-width: 1; stroke-dasharray: none; stroke-linecap: butt; stroke-dashoffset: 0; stroke-linejoin: miter; stroke-miterlimit: 4; fill: rgb(0, 0, 0); fill-rule: nonzero; opacity: 1;" vector-effect="non-scaling-stroke"  transform=" translate(-942.69, -1702.09)" d="M 922 1705 C 909 1698 902 1690 907 1687 C 919 1680 980 1691 980 1700 C 980 1707 952 1722 947 1719 C 946 1718 934 1712 922 1705 z" stroke-linecap="round" />
</g>
		<g transform="matrix(0.13 0 0 -0.13 94.25 -21.57)"  >
<path style="stroke: none; stroke-width: 1; stroke-dasharray: none; stroke-linecap: butt; stroke-dashoffset: 0; stroke-linejoin: miter; stroke-miterlimit: 4; fill: rgb(0, 0, 0); fill-rule: nonzero; opacity: 1;" vector-effect="non-scaling-stroke"  transform=" translate(-2206.89, -1661.8)" d="M 2190 1681 C 2190 1675 2195 1668 2200 1665 C 2206 1661 2208 1655 2205 1650 C 2202 1645 2204 1639 2209 1636 C 2225 1626 2230 1659 2214 1675 C 2196 1692 2190 1694 2190 1681 z" stroke-linecap="round" />
</g>
		<g transform="matrix(0.13 0 0 -0.13 -67.67 -20.01)"  >
<path style="stroke: none; stroke-width: 1; stroke-dasharray: none; stroke-linecap: butt; stroke-dashoffset: 0; stroke-linejoin: miter; stroke-miterlimit: 4; fill: rgb(0, 0, 0); fill-rule: nonzero; opacity: 1;" vector-effect="non-scaling-stroke"  transform=" translate(-992.45, -1650.05)" d="M 979 1659 C 968 1637 980 1619 1005 1621 C 1011 1621 1009 1624 1003 1627 C 996 1629 990 1636 990 1641 C 990 1647 995 1648 1000 1645 C 1006 1642 1010 1648 1010 1659 C 1010 1686 994 1686 979 1659 z" stroke-linecap="round" />
</g>
		<g transform="matrix(0.13 0 0 -0.13 -141.9 1.98)"  >
<path style="stroke: none; stroke-width: 1; stroke-dasharray: none; stroke-linecap: butt; stroke-dashoffset: 0; stroke-linejoin: miter; stroke-miterlimit: 4; fill: rgb(0, 0, 0); fill-rule: nonzero; opacity: 1;" vector-effect="non-scaling-stroke"  transform=" translate(-435.76, -1485.14)" d="M 547 1649 C 538 1643 532 1635 535 1629 C 539 1624 536 1620 531 1620 C 525 1620 520 1614 520 1606 C 520 1597 512 1594 495 1598 C 477 1601 470 1598 470 1586 C 470 1577 465 1570 459 1570 C 453 1570 450 1563 454 1555 C 457 1545 453 1540 440 1540 C 430 1540 404 1524 383 1505 C 314 1442 275 1410 267 1410 C 255 1410 287 1380 298 1380 C 304 1380 310 1375 312 1369 C 315 1360 321 1360 337 1369 C 355 1378 362 1377 377 1362 C 387 1352 403 1340 413 1337 C 424 1333 428 1325 424 1318 C 420 1310 421 1308 426 1313 C 431 1318 436 1326 436 1331 C 437 1336 439 1343 440 1348 C 442 1352 444 1361 444 1369 C 445 1377 451 1385 458 1388 C 465 1390 468 1386 464 1376 C 461 1367 463 1360 469 1360 C 489 1360 481 1389 458 1401 C 445 1407 438 1409 442 1405 C 450 1396 427 1370 411 1370 C 401 1370 396 1384 399 1402 C 399 1406 384 1402 365 1393 C 346 1384 327 1379 324 1383 C 315 1391 361 1440 378 1440 C 384 1440 390 1445 390 1451 C 390 1458 400 1460 415 1458 C 445 1452 447 1464 419 1483 C 406 1492 403 1500 409 1505 C 415 1508 420 1506 420 1500 C 420 1494 428 1490 438 1492 C 450 1494 455 1489 454 1474 C 454 1455 458 1454 493 1461 C 515 1465 536 1473 540 1480 C 544 1486 551 1491 556 1489 C 561 1488 566 1494 568 1503 C 572 1525 551 1525 534 1503 C 521 1486 520 1486 527 1505 C 534 1525 534 1525 506 1506 C 483 1491 476 1490 469 1501 C 456 1521 457 1522 500 1555 C 523 1572 537 1591 534 1599 C 531 1610 533 1610 544 1601 C 554 1593 560 1592 565 1600 C 574 1614 590 1613 586 1598 C 585 1591 585 1588 587 1593 C 590 1597 595 1598 599 1596 C 603 1593 607 1607 607 1626 C 608 1655 605 1660 587 1660 C 575 1660 557 1655 547 1649 z" stroke-linecap="round" />
</g>
		<g transform="matrix(0.13 0 0 -0.13 -93.14 -14.82)"  >
<path style="stroke: none; stroke-width: 1; stroke-dasharray: none; stroke-linecap: butt; stroke-dashoffset: 0; stroke-linejoin: miter; stroke-miterlimit: 4; fill: rgb(0, 0, 0); fill-rule: nonzero; opacity: 1;" vector-effect="non-scaling-stroke"  transform=" translate(-801.46, -1611.14)" d="M 781 1609 C 773 1586 773 1580 783 1583 C 789 1585 794 1594 794 1602 C 793 1611 799 1617 808 1616 C 816 1616 825 1621 827 1628 C 830 1635 823 1640 812 1640 C 799 1640 788 1630 781 1609 z" stroke-linecap="round" />
</g>
		<g transform="matrix(0.13 0 0 -0.13 116.47 7.32)"  >
<path style="stroke: none; stroke-width: 1; stroke-dasharray: none; stroke-linecap: butt; stroke-dashoffset: 0; stroke-linejoin: miter; stroke-miterlimit: 4; fill: rgb(0, 0, 0); fill-rule: nonzero; opacity: 1;" vector-effect="non-scaling-stroke"  transform=" translate(-2373.52, -1445.13)" d="M 2366 1623 C 2356 1613 2359 1568 2369 1574 C 2374 1577 2381 1573 2384 1564 C 2393 1540 2392 1540 2363 1556 C 2328 1573 2320 1574 2320 1557 C 2320 1547 2309 1545 2273 1550 C 2246 1554 2218 1560 2209 1564 C 2199 1568 2189 1567 2186 1562 C 2180 1552 2110 1570 2110 1582 C 2110 1587 2106 1590 2101 1590 C 2097 1590 2095 1578 2098 1564 C 2101 1544 2098 1538 2081 1533 C 2070 1530 2060 1521 2060 1514 C 2060 1498 2086 1495 2095 1510 C 2100 1518 2106 1517 2116 1509 C 2124 1503 2130 1501 2130 1505 C 2130 1509 2136 1508 2143 1503 C 2149 1497 2171 1494 2190 1495 C 2209 1497 2238 1491 2255 1483 C 2274 1474 2286 1473 2288 1480 C 2290 1485 2296 1488 2301 1484 C 2306 1481 2310 1488 2310 1499 C 2310 1521 2295 1527 2287 1510 C 2284 1504 2283 1505 2284 1512 C 2285 1519 2299 1526 2315 1527 C 2330 1528 2347 1535 2352 1542 C 2359 1552 2361 1552 2357 1540 C 2355 1532 2360 1519 2369 1512 C 2382 1502 2383 1500 2370 1502 C 2362 1504 2352 1509 2348 1515 C 2339 1528 2315 1505 2324 1492 C 2327 1486 2341 1483 2355 1485 C 2371 1486 2380 1482 2380 1474 C 2380 1447 2400 1460 2401 1488 C 2402 1514 2403 1513 2418 1477 C 2427 1453 2438 1441 2447 1444 C 2454 1447 2460 1445 2460 1439 C 2460 1433 2464 1431 2468 1434 C 2473 1437 2477 1433 2477 1425 C 2477 1417 2472 1410 2466 1410 C 2461 1410 2465 1404 2475 1396 C 2493 1383 2491 1381 2446 1360 C 2406 1342 2396 1341 2389 1352 C 2384 1360 2386 1369 2395 1376 C 2417 1392 2413 1402 2390 1390 C 2379 1384 2370 1370 2370 1359 C 2370 1344 2365 1340 2351 1345 C 2327 1352 2314 1334 2330 1315 C 2340 1303 2340 1297 2330 1285 C 2319 1272 2321 1270 2342 1272 C 2357 1273 2367 1280 2366 1288 C 2365 1296 2372 1305 2380 1308 C 2388 1311 2392 1309 2388 1305 C 2378 1294 2399 1258 2411 1265 C 2416 1269 2418 1275 2415 1280 C 2412 1284 2420 1286 2432 1282 C 2448 1278 2451 1280 2445 1290 C 2439 1300 2441 1302 2454 1297 C 2465 1292 2469 1294 2464 1301 C 2459 1309 2469 1311 2494 1308 C 2521 1305 2529 1307 2526 1317 C 2521 1329 2539 1335 2564 1331 C 2568 1330 2578 1334 2586 1341 C 2593 1347 2604 1349 2609 1345 C 2615 1342 2627 1348 2637 1360 C 2647 1371 2663 1380 2673 1380 C 2690 1380 2691 1382 2679 1396 C 2663 1415 2629 1430 2616 1423 C 2612 1420 2614 1413 2621 1408 C 2631 1402 2628 1401 2613 1405 C 2599 1409 2590 1407 2590 1401 C 2590 1395 2586 1390 2580 1390 C 2575 1390 2570 1405 2570 1423 C 2569 1462 2547 1495 2526 1487 C 2516 1483 2513 1486 2517 1496 C 2520 1506 2515 1510 2498 1510 C 2483 1510 2473 1504 2473 1495 C 2473 1477 2486 1475 2493 1493 C 2496 1500 2499 1498 2499 1488 C 2500 1460 2461 1466 2450 1494 C 2445 1507 2432 1521 2421 1525 C 2404 1530 2402 1535 2410 1551 C 2418 1566 2417 1572 2405 1576 C 2397 1579 2393 1586 2396 1591 C 2399 1596 2396 1600 2390 1600 C 2384 1600 2381 1604 2385 1609 C 2391 1620 2376 1632 2366 1623 z M 2247 1528 C 2239 1523 2241 1520 2253 1520 C 2263 1520 2269 1516 2265 1511 C 2262 1505 2247 1506 2227 1514 C 2210 1522 2189 1525 2181 1522 C 2173 1520 2170 1521 2173 1526 C 2176 1531 2196 1535 2219 1535 C 2241 1535 2253 1532 2247 1528 z M 2525 1439 C 2533 1427 2523 1380 2512 1380 C 2508 1380 2504 1396 2503 1415 C 2500 1449 2512 1461 2525 1439 z" stroke-linecap="round" />
</g>
		<g transform="matrix(0.13 0 0 -0.13 55.42 4.95)"  >
<path style="stroke: none; stroke-width: 1; stroke-dasharray: none; stroke-linecap: butt; stroke-dashoffset: 0; stroke-linejoin: miter; stroke-miterlimit: 4; fill: rgb(0, 0, 0); fill-rule: nonzero; opacity: 1;" vector-effect="non-scaling-stroke"  transform=" translate(-1915.63, -1462.86)" d="M 1927 1583 C 1923 1580 1904 1576 1883 1576 C 1852 1574 1845 1570 1837 1545 C 1831 1528 1820 1510 1811 1503 C 1802 1497 1799 1488 1803 1484 C 1807 1479 1815 1482 1820 1490 C 1827 1500 1830 1501 1830 1493 C 1830 1486 1834 1481 1839 1483 C 1849 1485 1850 1481 1850 1451 C 1850 1440 1841 1430 1828 1427 C 1805 1421 1805 1421 1825 1436 C 1841 1448 1842 1452 1831 1459 C 1822 1465 1811 1463 1802 1453 C 1787 1438 1748 1368 1753 1364 C 1754 1362 1768 1359 1783 1356 C 1797 1354 1815 1348 1821 1344 C 1844 1330 1848 1363 1827 1382 C 1815 1393 1810 1399 1816 1396 C 1823 1393 1833 1397 1840 1405 C 1847 1413 1859 1420 1866 1420 C 1874 1420 1880 1429 1880 1441 C 1880 1454 1876 1459 1868 1454 C 1858 1449 1858 1450 1867 1460 C 1876 1470 1875 1476 1864 1487 C 1852 1500 1852 1503 1865 1516 C 1873 1525 1880 1536 1880 1541 C 1880 1547 1889 1548 1900 1545 C 1913 1541 1922 1544 1926 1554 C 1933 1572 1960 1564 1960 1543 C 1960 1523 1987 1497 1995 1510 C 2004 1524 2037 1522 2044 1508 C 2047 1501 2047 1506 2044 1519 C 2040 1534 2042 1540 2048 1536 C 2060 1529 2083 1565 2078 1582 C 2076 1588 2061 1580 2045 1564 C 2007 1526 1991 1525 1995 1561 C 1999 1588 1997 1589 1979 1579 C 1965 1572 1955 1572 1946 1579 C 1939 1585 1930 1587 1927 1583 z" stroke-linecap="round" />
</g>
		<g transform="matrix(0.13 0 0 -0.13 -37.13 -2.09)"  >
<path style="stroke: none; stroke-width: 1; stroke-dasharray: none; stroke-linecap: butt; stroke-dashoffset: 0; stroke-linejoin: miter; stroke-miterlimit: 4; fill: rgb(0, 0, 0); fill-rule: nonzero; opacity: 1;" vector-effect="non-scaling-stroke"  transform=" translate(-1221.55, -1515.66)" d="M 1260 1567 C 1260 1553 1256 1551 1241 1560 C 1214 1574 1177 1568 1162 1547 C 1152 1535 1139 1530 1120 1534 C 1093 1538 1081 1523 1080 1488 C 1080 1474 1117 1480 1130 1495 C 1147 1516 1184 1508 1188 1482 C 1190 1470 1197 1460 1203 1459 C 1210 1459 1226 1457 1239 1454 C 1258 1451 1261 1453 1257 1470 C 1250 1496 1273 1513 1312 1512 C 1331 1512 1349 1518 1356 1528 C 1368 1545 1364 1573 1350 1565 C 1345 1562 1339 1564 1335 1569 C 1332 1575 1321 1572 1310 1563 C 1297 1551 1294 1544 1302 1539 C 1308 1535 1298 1529 1281 1525 C 1231 1514 1227 1535 1275 1554 C 1281 1556 1280 1563 1273 1571 C 1262 1582 1260 1581 1260 1567 z" stroke-linecap="round" />
</g>
		<g transform="matrix(0.13 0 0 -0.13 11.92 -0.27)"  >
<path style="stroke: none; stroke-width: 1; stroke-dasharray: none; stroke-linecap: butt; stroke-dashoffset: 0; stroke-linejoin: miter; stroke-miterlimit: 4; fill: rgb(0, 0, 0); fill-rule: nonzero; opacity: 1;" vector-effect="non-scaling-stroke"  transform=" translate(-1589.38, -1502.03)" d="M 1562 1568 C 1549 1555 1500 1548 1500 1559 C 1500 1571 1421 1571 1399 1560 C 1389 1554 1380 1542 1380 1533 C 1380 1524 1372 1511 1363 1504 C 1348 1494 1347 1489 1358 1478 C 1368 1468 1374 1468 1391 1478 C 1402 1485 1415 1488 1420 1485 C 1425 1482 1431 1484 1434 1489 C 1440 1499 1494 1497 1528 1486 C 1542 1481 1557 1483 1565 1490 C 1573 1496 1583 1499 1588 1496 C 1594 1493 1620 1489 1646 1488 C 1673 1487 1689 1485 1682 1482 C 1675 1480 1672 1474 1676 1469 C 1681 1460 1659 1456 1630 1460 C 1619 1461 1620 1457 1635 1443 C 1654 1425 1696 1423 1685 1440 C 1679 1450 1705 1502 1716 1500 C 1721 1499 1733 1492 1742 1483 C 1757 1469 1758 1470 1753 1491 C 1748 1511 1750 1512 1773 1506 C 1802 1499 1807 1508 1788 1529 C 1781 1537 1780 1540 1786 1537 C 1792 1533 1805 1537 1815 1544 C 1833 1557 1833 1558 1812 1569 C 1795 1578 1790 1578 1790 1569 C 1790 1561 1778 1559 1755 1563 C 1736 1566 1718 1564 1714 1558 C 1711 1553 1699 1550 1689 1553 C 1677 1556 1670 1553 1670 1544 C 1670 1536 1663 1530 1655 1530 C 1647 1530 1643 1536 1646 1544 C 1650 1555 1646 1558 1627 1554 C 1613 1552 1595 1556 1587 1564 C 1577 1575 1570 1576 1562 1568 z" stroke-linecap="round" />
</g>
		<g transform="matrix(0.13 0 0 -0.13 -67.03 -3.27)"  >
<path style="stroke: none; stroke-width: 1; stroke-dasharray: none; stroke-linecap: butt; stroke-dashoffset: 0; stroke-linejoin: miter; stroke-miterlimit: 4; fill: rgb(0, 0, 0); fill-rule: nonzero; opacity: 1;" vector-effect="non-scaling-stroke"  transform=" translate(-997.3, -1524.53)" d="M 992 1555 C 974 1547 952 1534 944 1525 C 935 1517 925 1510 920 1510 C 915 1510 913 1504 916 1497 C 919 1489 931 1485 943 1486 C 955 1487 970 1489 977 1489 C 983 1490 990 1500 992 1512 C 994 1523 1003 1534 1012 1536 C 1035 1539 1046 1522 1026 1514 C 1017 1511 1010 1500 1011 1491 C 1011 1481 1013 1480 1017 1488 C 1019 1494 1030 1500 1041 1500 C 1053 1500 1060 1507 1060 1520 C 1060 1531 1065 1540 1070 1540 C 1076 1540 1080 1546 1080 1553 C 1080 1570 1031 1571 992 1555 z" stroke-linecap="round" />
</g>
		<g transform="matrix(0.13 0 0 -0.13 -49.82 -7.28)"  >
<path style="stroke: none; stroke-width: 1; stroke-dasharray: none; stroke-linecap: butt; stroke-dashoffset: 0; stroke-linejoin: miter; stroke-miterlimit: 4; fill: rgb(0, 0, 0); fill-rule: nonzero; opacity: 1;" vector-effect="non-scaling-stroke"  transform=" translate(-1126.37, -1554.6)" d="M 1093 1557 C 1097 1543 1130 1539 1149 1550 C 1167 1561 1166 1561 1122 1565 C 1102 1567 1091 1563 1093 1557 z" stroke-linecap="round" />
</g>
		<g transform="matrix(0.13 0 0 -0.13 -105.16 3.7)"  >
<path style="stroke: none; stroke-width: 1; stroke-dasharray: none; stroke-linecap: butt; stroke-dashoffset: 0; stroke-linejoin: miter; stroke-miterlimit: 4; fill: rgb(0, 0, 0); fill-rule: nonzero; opacity: 1;" vector-effect="non-scaling-stroke"  transform=" translate(-711.34, -1472.29)" d="M 892 1543 C 877 1533 866 1530 862 1536 C 854 1548 810 1549 810 1538 C 810 1525 782 1529 778 1542 C 775 1551 769 1550 756 1537 C 736 1517 720 1515 719 1533 C 718 1539 714 1534 710 1520 C 704 1502 702 1500 701 1513 C 700 1523 694 1530 688 1527 C 681 1525 666 1526 654 1531 C 636 1537 633 1535 636 1514 C 637 1501 634 1492 629 1496 C 624 1499 622 1505 625 1510 C 628 1514 623 1520 615 1524 C 605 1528 600 1523 600 1509 C 600 1478 532 1422 510 1435 C 505 1438 500 1435 500 1426 C 500 1418 497 1405 494 1397 C 490 1385 494 1383 510 1387 C 522 1390 529 1398 526 1406 C 518 1428 544 1428 558 1406 L 571 1385 L 565 1406 C 560 1427 565 1435 602 1466 C 625 1484 640 1471 633 1439 C 630 1422 632 1410 638 1410 C 656 1410 663 1432 649 1441 C 640 1447 639 1450 647 1450 C 653 1450 660 1458 662 1467 C 665 1483 666 1483 682 1467 C 702 1446 707 1446 726 1465 C 745 1484 774 1484 792 1466 C 804 1455 809 1455 828 1470 C 840 1480 859 1486 870 1483 C 891 1477 898 1495 878 1503 C 859 1509 874 1521 904 1523 C 918 1524 930 1528 930 1533 C 931 1566 926 1567 892 1543 z" stroke-linecap="round" />
</g>
		<g transform="matrix(0.13 0 0 -0.13 56.42 -3.32)"  >
<path style="stroke: none; stroke-width: 1; stroke-dasharray: none; stroke-linecap: butt; stroke-dashoffset: 0; stroke-linejoin: miter; stroke-miterlimit: 4; fill: rgb(0, 0, 0); fill-rule: nonzero; opacity: 1;" vector-effect="non-scaling-stroke"  transform=" translate(-1923.13, -1524.9)" d="M 1922 1534 C 1910 1526 1900 1513 1900 1507 C 1900 1500 1904 1501 1910 1510 C 1916 1520 1920 1521 1920 1513 C 1920 1490 1938 1499 1942 1525 C 1945 1539 1947 1550 1946 1550 C 1945 1550 1934 1543 1922 1534 z" stroke-linecap="round" />
</g>
		<g transform="matrix(0.13 0 0 -0.13 -26.67 4.18)"  >
<path style="stroke: none; stroke-width: 1; stroke-dasharray: none; stroke-linecap: butt; stroke-dashoffset: 0; stroke-linejoin: miter; stroke-miterlimit: 4; fill: rgb(0, 0, 0); fill-rule: nonzero; opacity: 1;" vector-effect="non-scaling-stroke"  transform=" translate(-1300, -1468.67)" d="M 1270 1472 C 1270 1465 1274 1461 1279 1464 C 1284 1468 1290 1465 1292 1458 C 1297 1443 1330 1455 1330 1473 C 1330 1482 1319 1487 1300 1486 C 1283 1485 1270 1480 1270 1472 z" stroke-linecap="round" />
</g>
		<g transform="matrix(0.13 0 0 -0.13 -70.88 52.62)"  >
<path style="stroke: none; stroke-width: 1; stroke-dasharray: none; stroke-linecap: butt; stroke-dashoffset: 0; stroke-linejoin: miter; stroke-miterlimit: 4; fill: rgb(0, 0, 0); fill-rule: nonzero; opacity: 1;" vector-effect="non-scaling-stroke"  transform=" translate(-968.37, -1105.31)" d="M 981 1461 C 962 1449 958 1420 976 1420 C 984 1420 990 1411 990 1400 C 990 1389 995 1380 1001 1380 C 1006 1380 1008 1385 1005 1390 C 1002 1396 1004 1400 1009 1400 C 1024 1400 1023 1373 1008 1368 C 1002 1366 996 1350 996 1333 C 995 1316 998 1304 1003 1307 C 1007 1309 1010 1302 1010 1291 C 1010 1280 1021 1263 1035 1254 C 1049 1245 1057 1233 1053 1227 C 1049 1221 1042 1223 1034 1234 C 1024 1249 1021 1249 1013 1237 C 1001 1215 950 1227 950 1251 C 950 1269 948 1270 920 1255 C 901 1245 892 1234 896 1227 C 900 1220 897 1221 889 1229 C 878 1239 878 1244 888 1247 C 894 1250 900 1256 900 1261 C 900 1267 894 1270 888 1269 C 881 1268 867 1270 857 1275 C 833 1285 821 1271 841 1257 C 850 1250 855 1240 853 1233 C 847 1215 820 1230 820 1251 C 820 1263 813 1270 800 1270 C 789 1270 780 1275 780 1281 C 780 1287 771 1290 760 1287 C 749 1284 740 1287 740 1293 C 739 1300 735 1299 727 1290 C 713 1272 677 1267 683 1284 C 686 1290 693 1294 700 1292 C 706 1291 710 1295 708 1302 C 703 1315 665 1317 638 1305 C 608 1293 618 1273 656 1266 C 675 1262 699 1250 708 1240 C 719 1226 726 1224 731 1232 C 737 1241 742 1241 753 1231 C 766 1221 770 1222 779 1237 C 789 1254 789 1254 790 1235 C 790 1215 801 1211 858 1207 C 864 1207 870 1203 870 1198 C 870 1194 878 1190 888 1190 C 898 1190 911 1185 917 1179 C 925 1171 942 1171 980 1179 C 1048 1194 1061 1193 1054 1175 C 1050 1165 1054 1160 1065 1160 C 1074 1160 1078 1165 1075 1170 C 1072 1176 1076 1180 1084 1180 C 1092 1180 1104 1171 1110 1160 C 1118 1144 1116 1139 1098 1128 C 1085 1121 1071 1117 1065 1118 C 1060 1119 1064 1113 1075 1104 C 1092 1090 1092 1088 1077 1094 C 1057 1101 1006 1055 995 1019 C 989 1001 991 998 1004 1003 C 1015 1007 1019 1006 1015 999 C 1011 994 1000 992 989 995 C 976 999 970 997 970 987 C 970 979 958 960 943 944 C 928 928 917 909 918 903 C 920 896 917 890 911 890 C 906 890 888 877 872 860 C 851 839 845 828 854 823 C 870 812 891 760 884 748 C 880 742 885 740 896 742 C 907 744 914 753 912 763 C 910 772 913 780 918 780 C 924 780 931 796 934 815 C 939 842 946 850 962 850 C 980 850 981 852 969 866 C 958 880 958 884 971 894 C 995 912 1060 996 1060 1009 C 1060 1015 1072 1033 1088 1048 C 1103 1064 1122 1089 1130 1106 C 1148 1140 1166 1145 1206 1129 C 1222 1123 1246 1116 1259 1114 C 1272 1112 1288 1106 1293 1101 C 1310 1084 1318 1088 1316 1114 C 1315 1135 1311 1138 1288 1133 C 1269 1129 1260 1132 1260 1140 C 1260 1147 1254 1150 1246 1147 C 1238 1144 1229 1148 1226 1156 C 1223 1164 1211 1170 1200 1170 C 1189 1170 1180 1176 1180 1183 C 1180 1190 1170 1197 1158 1197 C 1145 1198 1134 1204 1132 1210 C 1130 1215 1124 1218 1119 1214 C 1114 1211 1110 1217 1110 1226 C 1110 1240 1107 1241 1098 1232 C 1082 1216 1070 1217 1070 1235 C 1070 1243 1073 1249 1078 1249 C 1099 1245 1109 1252 1103 1266 C 1099 1276 1089 1280 1074 1277 C 1061 1275 1053 1277 1056 1281 C 1059 1286 1051 1290 1038 1291 L 1015 1291 L 1038 1301 C 1053 1307 1059 1314 1053 1322 C 1049 1329 1045 1344 1044 1355 C 1043 1366 1040 1391 1036 1410 C 1033 1429 1033 1439 1036 1432 C 1040 1423 1045 1422 1055 1430 C 1064 1438 1072 1437 1083 1425 C 1093 1416 1101 1414 1105 1420 C 1108 1425 1106 1430 1101 1430 C 1095 1430 1090 1437 1090 1446 C 1090 1458 1083 1461 1060 1458 C 1043 1455 1027 1457 1024 1462 C 1017 1472 999 1472 981 1461 z" stroke-linecap="round" />
</g>
		<g transform="matrix(0.13 0 0 -0.13 56.6 17.12)"  >
<path style="stroke: none; stroke-width: 1; stroke-dasharray: none; stroke-linecap: butt; stroke-dashoffset: 0; stroke-linejoin: miter; stroke-miterlimit: 4; fill: rgb(0, 0, 0); fill-rule: nonzero; opacity: 1;" vector-effect="non-scaling-stroke"  transform=" translate(-1924.53, -1371.6)" d="M 1952 1450 C 1937 1426 1937 1417 1950 1425 C 1965 1434 1961 1418 1943 1395 C 1932 1381 1929 1380 1933 1392 C 1937 1402 1932 1410 1920 1413 C 1907 1416 1903 1413 1907 1404 C 1910 1396 1906 1390 1896 1390 C 1882 1390 1881 1386 1890 1370 C 1899 1354 1898 1350 1885 1350 C 1876 1350 1872 1346 1875 1340 C 1881 1330 1868 1326 1843 1329 C 1833 1330 1833 1324 1839 1306 C 1845 1293 1846 1279 1842 1275 C 1838 1271 1845 1274 1858 1281 C 1870 1289 1880 1301 1880 1308 C 1880 1315 1887 1323 1895 1326 C 1903 1330 1910 1339 1910 1347 C 1910 1355 1915 1358 1920 1355 C 1926 1352 1930 1354 1930 1359 C 1930 1365 1937 1370 1945 1370 C 1963 1370 1982 1404 1974 1424 C 1967 1442 1980 1467 1989 1452 C 1993 1446 2000 1448 2008 1456 C 2019 1468 2016 1470 1993 1470 C 1976 1470 1960 1462 1952 1450 z" stroke-linecap="round" />
</g>
		<g transform="matrix(0.13 0 0 -0.13 -100.01 9.6)"  >
<path style="stroke: none; stroke-width: 1; stroke-dasharray: none; stroke-linecap: butt; stroke-dashoffset: 0; stroke-linejoin: miter; stroke-miterlimit: 4; fill: rgb(0, 0, 0); fill-rule: nonzero; opacity: 1;" vector-effect="non-scaling-stroke"  transform=" translate(-749.9, -1427.97)" d="M 745 1446 C 733 1440 726 1427 728 1417 C 732 1396 755 1400 755 1421 C 755 1429 759 1438 765 1442 C 782 1454 766 1457 745 1446 z" stroke-linecap="round" />
</g>
		<g transform="matrix(0.13 0 0 -0.13 -86.62 10.53)"  >
<path style="stroke: none; stroke-width: 1; stroke-dasharray: none; stroke-linecap: butt; stroke-dashoffset: 0; stroke-linejoin: miter; stroke-miterlimit: 4; fill: rgb(0, 0, 0); fill-rule: nonzero; opacity: 1;" vector-effect="non-scaling-stroke"  transform=" translate(-850.33, -1421.01)" d="M 822 1429 C 795 1404 794 1402 811 1391 C 829 1380 835 1386 831 1412 C 831 1416 837 1417 845 1414 C 853 1410 860 1413 860 1419 C 860 1425 855 1430 848 1430 C 842 1430 840 1433 843 1436 C 847 1440 856 1438 863 1432 C 873 1423 880 1425 892 1439 C 906 1456 905 1457 879 1456 C 864 1455 838 1443 822 1429 z" stroke-linecap="round" />
</g>
		<g transform="matrix(0.13 0 0 -0.13 94.31 10.46)"  >
<path style="stroke: none; stroke-width: 1; stroke-dasharray: none; stroke-linecap: butt; stroke-dashoffset: 0; stroke-linejoin: miter; stroke-miterlimit: 4; fill: rgb(0, 0, 0); fill-rule: nonzero; opacity: 1;" vector-effect="non-scaling-stroke"  transform=" translate(-2207.31, -1421.56)" d="M 2198 1449 C 2175 1436 2175 1394 2196 1386 C 2217 1378 2246 1400 2229 1411 C 2222 1415 2211 1416 2203 1413 C 2185 1406 2187 1420 2207 1442 C 2225 1462 2223 1464 2198 1449 z" stroke-linecap="round" />
</g>
		<g transform="matrix(0.13 0 0 -0.13 108.41 13.3)"  >
<path style="stroke: none; stroke-width: 1; stroke-dasharray: none; stroke-linecap: butt; stroke-dashoffset: 0; stroke-linejoin: miter; stroke-miterlimit: 4; fill: rgb(0, 0, 0); fill-rule: nonzero; opacity: 1;" vector-effect="non-scaling-stroke"  transform=" translate(-2313.09, -1400.27)" d="M 2317 1427 C 2321 1420 2317 1419 2306 1423 C 2292 1428 2289 1426 2293 1415 C 2297 1407 2295 1398 2290 1395 C 2284 1391 2280 1383 2280 1377 C 2280 1370 2284 1371 2290 1380 C 2298 1393 2304 1388 2302 1369 C 2301 1366 2312 1365 2325 1368 C 2339 1370 2347 1376 2345 1381 C 2342 1385 2333 1387 2326 1384 C 2299 1374 2300 1399 2326 1413 C 2352 1426 2352 1427 2331 1433 C 2318 1436 2312 1434 2317 1427 z" stroke-linecap="round" />
</g>
		<g transform="matrix(0.13 0 0 -0.13 85.19 14.94)"  >
<path style="stroke: none; stroke-width: 1; stroke-dasharray: none; stroke-linecap: butt; stroke-dashoffset: 0; stroke-linejoin: miter; stroke-miterlimit: 4; fill: rgb(0, 0, 0); fill-rule: nonzero; opacity: 1;" vector-effect="non-scaling-stroke"  transform=" translate(-2138.92, -1387.92)" d="M 2147 1412 C 2137 1402 2130 1388 2130 1382 C 2130 1375 2126 1370 2120 1370 C 2115 1370 2110 1366 2110 1360 C 2110 1355 2119 1350 2129 1350 C 2142 1350 2152 1361 2160 1386 C 2174 1428 2169 1437 2147 1412 z" stroke-linecap="round" />
</g>
		<g transform="matrix(0.13 0 0 -0.13 -107.33 14.77)"  >
<path style="stroke: none; stroke-width: 1; stroke-dasharray: none; stroke-linecap: butt; stroke-dashoffset: 0; stroke-linejoin: miter; stroke-miterlimit: 4; fill: rgb(0, 0, 0); fill-rule: nonzero; opacity: 1;" vector-effect="non-scaling-stroke"  transform=" translate(-695, -1389.25)" d="M 692 1404 C 680 1396 670 1382 670 1374 C 670 1358 686 1355 695 1370 C 699 1376 706 1378 711 1375 C 716 1371 720 1380 720 1394 C 720 1425 721 1424 692 1404 z" stroke-linecap="round" />
</g>
		<g transform="matrix(0.13 0 0 -0.13 69.39 16.57)"  >
<path style="stroke: none; stroke-width: 1; stroke-dasharray: none; stroke-linecap: butt; stroke-dashoffset: 0; stroke-linejoin: miter; stroke-miterlimit: 4; fill: rgb(0, 0, 0); fill-rule: nonzero; opacity: 1;" vector-effect="non-scaling-stroke"  transform=" translate(-2020.43, -1375.74)" d="M 2006 1401 C 2003 1396 2003 1385 2006 1376 C 2010 1366 2007 1360 1999 1360 C 1990 1360 1989 1357 1997 1349 C 2004 1342 2014 1341 2025 1347 C 2040 1356 2040 1358 2026 1373 C 2015 1384 2013 1391 2021 1396 C 2027 1399 2037 1396 2042 1389 C 2050 1377 2051 1378 2047 1390 C 2043 1408 2015 1415 2006 1401 z" stroke-linecap="round" />
</g>
		<g transform="matrix(0.13 0 0 -0.13 -98.24 19.15)"  >
<path style="stroke: none; stroke-width: 1; stroke-dasharray: none; stroke-linecap: butt; stroke-dashoffset: 0; stroke-linejoin: miter; stroke-miterlimit: 4; fill: rgb(0, 0, 0); fill-rule: nonzero; opacity: 1;" vector-effect="non-scaling-stroke"  transform=" translate(-763.18, -1356.34)" d="M 758 1383 C 749 1381 737 1365 731 1349 C 725 1331 725 1322 730 1325 C 736 1329 740 1339 740 1348 C 740 1361 742 1362 749 1352 C 755 1342 759 1343 763 1359 C 766 1373 773 1378 784 1374 C 793 1371 800 1373 800 1379 C 800 1390 789 1391 758 1383 z" stroke-linecap="round" />
</g>
		<g transform="matrix(0.13 0 0 -0.13 -132.95 23.68)"  >
<path style="stroke: none; stroke-width: 1; stroke-dasharray: none; stroke-linecap: butt; stroke-dashoffset: 0; stroke-linejoin: miter; stroke-miterlimit: 4; fill: rgb(0, 0, 0); fill-rule: nonzero; opacity: 1;" vector-effect="non-scaling-stroke"  transform=" translate(-502.88, -1322.42)" d="M 490 1355 C 483 1347 474 1343 469 1346 C 464 1349 460 1349 460 1346 C 460 1344 457 1334 453 1324 C 448 1310 451 1308 468 1312 C 486 1317 490 1314 490 1297 C 490 1281 493 1279 499 1288 C 510 1307 514 1307 532 1292 C 545 1282 549 1282 554 1296 C 558 1306 549 1322 531 1341 C 506 1365 500 1367 490 1355 z" stroke-linecap="round" />
</g>
		<g transform="matrix(0.13 0 0 -0.13 -118.87 23.78)"  >
<path style="stroke: none; stroke-width: 1; stroke-dasharray: none; stroke-linecap: butt; stroke-dashoffset: 0; stroke-linejoin: miter; stroke-miterlimit: 4; fill: rgb(0, 0, 0); fill-rule: nonzero; opacity: 1;" vector-effect="non-scaling-stroke"  transform=" translate(-608.45, -1321.62)" d="M 650 1355 C 650 1347 645 1340 639 1340 C 634 1340 632 1346 636 1353 C 642 1362 640 1362 629 1354 C 621 1348 601 1344 583 1345 C 559 1347 553 1344 557 1334 C 560 1326 568 1320 576 1320 C 584 1320 590 1316 590 1310 C 590 1305 583 1300 575 1300 C 555 1300 556 1281 575 1274 C 585 1270 603 1282 625 1306 C 656 1339 670 1370 655 1370 C 652 1370 650 1363 650 1355 z" stroke-linecap="round" />
</g>
		<g transform="matrix(0.13 0 0 -0.13 35 47.19)"  >
<path style="stroke: none; stroke-width: 1; stroke-dasharray: none; stroke-linecap: butt; stroke-dashoffset: 0; stroke-linejoin: miter; stroke-miterlimit: 4; fill: rgb(0, 0, 0); fill-rule: nonzero; opacity: 1;" vector-effect="non-scaling-stroke"  transform=" translate(-1762.51, -1146.11)" d="M 2220 1347 C 2220 1323 2183 1305 2164 1321 C 2153 1330 2150 1329 2150 1318 C 2150 1308 2138 1304 2104 1305 C 2070 1306 2057 1302 2049 1288 C 2039 1270 1990 1262 1990 1279 C 1990 1283 2001 1285 2015 1282 C 2030 1280 2040 1282 2040 1290 C 2040 1307 2017 1327 2002 1322 C 1995 1320 1983 1324 1975 1330 C 1965 1338 1960 1339 1960 1332 C 1960 1326 1965 1318 1970 1315 C 1986 1305 1982 1290 1965 1296 C 1957 1300 1942 1296 1933 1289 C 1920 1278 1916 1278 1913 1288 C 1907 1305 1890 1303 1890 1284 C 1890 1265 1870 1243 1850 1243 C 1842 1243 1827 1239 1818 1235 C 1806 1230 1798 1233 1794 1244 C 1789 1256 1784 1257 1769 1249 C 1756 1242 1750 1243 1750 1250 C 1750 1256 1757 1263 1765 1266 C 1774 1270 1780 1285 1780 1305 C 1780 1332 1777 1337 1758 1336 C 1745 1335 1732 1339 1728 1345 C 1724 1350 1721 1346 1722 1335 C 1723 1305 1701 1258 1690 1265 C 1684 1269 1668 1260 1655 1246 C 1642 1232 1634 1220 1637 1220 C 1640 1220 1633 1212 1621 1201 C 1601 1184 1601 1182 1617 1176 C 1631 1170 1632 1167 1621 1161 C 1613 1155 1611 1147 1616 1139 C 1622 1127 1621 1127 1608 1138 C 1592 1151 1573 1139 1583 1123 C 1586 1118 1577 1114 1564 1113 C 1518 1109 1511 1107 1516 1098 C 1520 1093 1512 1086 1500 1083 C 1487 1080 1481 1072 1484 1063 C 1490 1049 1458 1010 1440 1010 C 1435 1010 1433 1004 1436 996 C 1439 988 1437 979 1432 976 C 1420 969 1360 989 1360 999 C 1360 1013 1260 1105 1249 1102 C 1243 1101 1232 1105 1224 1111 C 1216 1117 1210 1118 1210 1113 C 1210 1099 1241 1058 1282 1018 C 1303 998 1320 978 1320 973 C 1320 969 1336 960 1355 954 C 1377 947 1390 947 1390 953 C 1390 958 1396 957 1404 951 C 1428 931 1467 928 1474 946 C 1477 955 1477 966 1474 972 C 1466 984 1499 1020 1519 1020 C 1533 1020 1533 1022 1520 1029 C 1512 1035 1502 1036 1497 1033 C 1492 1030 1494 1038 1501 1051 C 1512 1071 1515 1072 1518 1058 C 1522 1036 1540 1034 1540 1055 C 1540 1063 1545 1070 1551 1070 C 1568 1070 1630 1121 1630 1136 C 1630 1143 1636 1147 1643 1144 C 1651 1141 1667 1154 1681 1174 C 1694 1193 1707 1205 1710 1200 C 1714 1194 1730 1194 1751 1200 C 1771 1206 1801 1208 1819 1206 C 1837 1204 1869 1207 1891 1213 C 1922 1220 1929 1226 1925 1240 C 1922 1251 1925 1257 1935 1257 C 1943 1257 1950 1251 1950 1244 C 1950 1237 1954 1229 1958 1226 C 1973 1217 2010 1232 2010 1247 C 2010 1258 2014 1258 2030 1250 C 2053 1238 2071 1244 2066 1263 C 2065 1270 2065 1272 2067 1267 C 2070 1263 2076 1262 2081 1265 C 2086 1269 2087 1264 2084 1255 C 2079 1242 2088 1240 2148 1242 C 2187 1244 2216 1248 2214 1252 C 2211 1256 2219 1258 2230 1257 C 2241 1256 2250 1253 2250 1249 C 2250 1245 2259 1244 2270 1247 C 2281 1250 2290 1257 2290 1262 C 2290 1267 2294 1269 2299 1266 C 2304 1263 2311 1268 2314 1277 C 2322 1297 2281 1339 2261 1332 C 2253 1329 2241 1335 2233 1346 C 2222 1362 2220 1362 2220 1347 z M 1692 1228 C 1690 1218 1681 1210 1674 1210 C 1666 1210 1660 1200 1660 1185 C 1660 1171 1656 1160 1650 1160 C 1634 1160 1639 1185 1660 1212 C 1670 1226 1677 1239 1675 1242 C 1672 1245 1676 1247 1684 1247 C 1692 1247 1695 1239 1692 1228 z" stroke-linecap="round" />
</g>
		<g transform="matrix(0.13 0 0 -0.13 58.56 121.46)"  >
<path style="stroke: none; stroke-width: 1; stroke-dasharray: none; stroke-linecap: butt; stroke-dashoffset: 0; stroke-linejoin: miter; stroke-miterlimit: 4; fill: rgb(0, 0, 0); fill-rule: nonzero; opacity: 1;" vector-effect="non-scaling-stroke"  transform=" translate(-1939.21, -589.06)" d="M 1698 1153 C 1676 1148 1675 1134 1695 1126 C 1703 1123 1713 1127 1717 1135 C 1723 1144 1730 1146 1740 1140 C 1752 1132 1752 1130 1737 1124 C 1728 1121 1720 1113 1720 1106 C 1720 1100 1713 1083 1706 1067 C 1692 1041 1692 1040 1715 1046 C 1734 1051 1742 1047 1750 1029 C 1771 983 1785 963 1796 967 C 1810 972 1823 943 1811 935 C 1801 929 1821 880 1833 880 C 1837 880 1840 867 1840 850 C 1840 826 1844 820 1861 820 C 1872 820 1879 824 1875 829 C 1872 834 1874 841 1879 844 C 1884 847 1890 841 1893 830 C 1896 818 1893 810 1886 810 C 1880 810 1873 798 1872 784 C 1870 761 1873 758 1895 762 C 1910 765 1921 762 1924 753 C 1933 731 1931 720 1920 720 C 1915 720 1910 727 1910 735 C 1910 752 1894 755 1885 740 C 1882 735 1883 730 1889 730 C 1895 730 1902 714 1906 695 C 1910 674 1917 661 1924 663 C 1930 666 1934 673 1932 679 C 1931 685 1934 690 1940 690 C 1945 690 1950 683 1950 675 C 1950 667 1946 660 1940 660 C 1935 660 1930 655 1930 649 C 1930 643 1936 640 1944 643 C 1952 646 1960 641 1963 630 C 1966 619 1963 609 1957 607 C 1951 605 1956 594 1969 581 C 1981 569 1989 552 1986 544 C 1983 536 1984 530 1988 530 C 2002 530 2056 386 2052 362 C 2050 356 2054 350 2060 350 C 2066 350 2069 346 2066 341 C 2063 336 2067 329 2075 326 C 2088 322 2089 316 2080 300 C 2072 284 2072 278 2083 274 C 2093 270 2097 254 2096 223 C 2095 196 2100 171 2108 164 C 2115 156 2118 141 2114 126 C 2110 108 2112 98 2123 94 C 2132 91 2136 82 2134 75 C 2131 68 2138 52 2149 41 C 2173 17 2189 13 2170 35 C 2155 53 2171 55 2189 37 C 2199 27 2200 31 2194 55 C 2190 72 2181 100 2173 118 C 2166 135 2164 150 2169 150 C 2180 150 2172 189 2156 209 C 2150 216 2145 230 2145 239 C 2144 248 2143 268 2142 284 C 2140 305 2136 311 2125 306 C 2113 302 2111 304 2118 317 C 2124 327 2122 353 2113 389 C 2105 420 2099 453 2099 462 C 2099 472 2095 482 2089 485 C 2084 489 2080 500 2080 511 C 2080 521 2073 530 2065 530 C 2055 530 2052 539 2055 560 C 2057 577 2053 596 2044 604 C 2036 612 2030 625 2030 634 C 2030 642 2022 654 2013 659 C 1997 668 1998 669 2018 670 C 2032 670 2039 674 2035 681 C 2031 687 2021 689 2013 686 C 2005 683 2002 684 2005 689 C 2008 694 2005 702 1999 705 C 1994 709 1991 718 1994 726 C 2003 748 1980 778 1958 772 C 1946 769 1940 773 1940 783 C 1940 791 1938 807 1935 817 C 1932 828 1934 826 1941 813 C 1948 800 1959 790 1967 790 C 1978 790 1978 794 1968 813 C 1961 825 1957 839 1958 844 C 1960 848 1950 850 1937 846 C 1918 842 1911 846 1902 865 C 1891 889 1902 901 1915 880 C 1919 874 1926 872 1931 876 C 1945 884 1920 912 1903 906 C 1896 903 1890 905 1890 910 C 1890 916 1895 920 1900 920 C 1906 920 1910 925 1910 930 C 1910 936 1905 940 1900 940 C 1876 940 1847 979 1852 1004 C 1855 1018 1853 1030 1849 1030 C 1844 1030 1840 1024 1840 1018 C 1839 1001 1800 1089 1800 1106 C 1800 1114 1796 1120 1791 1120 C 1786 1120 1780 1128 1778 1138 C 1773 1156 1735 1163 1698 1153 z" stroke-linecap="round" />
</g>
		<g transform="matrix(0.13 0 0 -0.13 -12.93 54.83)"  >
<path style="stroke: none; stroke-width: 1; stroke-dasharray: none; stroke-linecap: butt; stroke-dashoffset: 0; stroke-linejoin: miter; stroke-miterlimit: 4; fill: rgb(0, 0, 0); fill-rule: nonzero; opacity: 1;" vector-effect="non-scaling-stroke"  transform=" translate(-1402.99, -1088.79)" d="M 1362 1112 C 1364 1103 1360 1095 1353 1095 C 1328 1095 1331 1082 1359 1070 C 1398 1054 1450 1051 1450 1064 C 1450 1070 1455 1068 1460 1060 C 1467 1049 1470 1048 1470 1058 C 1470 1066 1461 1074 1450 1077 C 1439 1080 1433 1087 1437 1093 C 1441 1099 1438 1100 1429 1094 C 1404 1079 1383 1080 1404 1096 C 1427 1112 1420 1122 1385 1126 C 1366 1128 1360 1124 1362 1112 z" stroke-linecap="round" />
</g>
		<g transform="matrix(0.13 0 0 -0.13 8.19 73.55)"  >
<path style="stroke: none; stroke-width: 1; stroke-dasharray: none; stroke-linecap: butt; stroke-dashoffset: 0; stroke-linejoin: miter; stroke-miterlimit: 4; fill: rgb(0, 0, 0); fill-rule: nonzero; opacity: 1;" vector-effect="non-scaling-stroke"  transform=" translate(-1561.44, -948.37)" d="M 1642 1100 C 1639 1092 1630 1079 1623 1072 C 1611 1060 1606 1039 1609 1018 C 1609 1014 1601 1009 1591 1005 C 1580 1002 1572 989 1571 977 C 1568 912 1563 893 1540 870 C 1526 856 1512 844 1508 844 C 1503 843 1495 842 1489 841 C 1483 841 1481 831 1485 818 C 1489 802 1488 799 1482 809 C 1476 817 1465 820 1450 815 C 1428 808 1428 808 1455 794 C 1491 776 1516 776 1524 796 C 1527 805 1536 810 1544 807 C 1552 804 1571 821 1592 848 C 1619 884 1627 904 1626 933 C 1625 953 1627 970 1631 970 C 1645 970 1651 1022 1639 1036 C 1630 1047 1630 1056 1640 1076 C 1650 1094 1656 1097 1662 1088 C 1668 1078 1672 1078 1680 1090 C 1694 1112 1692 1116 1669 1116 C 1657 1116 1645 1109 1642 1100 z" stroke-linecap="round" />
</g>
		<g transform="matrix(0.13 0 0 -0.13 -41.91 68.31)"  >
<path style="stroke: none; stroke-width: 1; stroke-dasharray: none; stroke-linecap: butt; stroke-dashoffset: 0; stroke-linejoin: miter; stroke-miterlimit: 4; fill: rgb(0, 0, 0); fill-rule: nonzero; opacity: 1;" vector-effect="non-scaling-stroke"  transform=" translate(-1185.69, -987.69)" d="M 1152 1064 C 1151 1025 1167 966 1182 944 C 1187 938 1188 926 1185 918 C 1182 910 1186 897 1195 890 C 1214 875 1229 885 1212 902 C 1205 909 1200 922 1200 931 C 1200 941 1194 950 1188 953 C 1178 957 1178 960 1188 971 C 1202 986 1204 1004 1191 996 C 1180 989 1170 1013 1170 1048 C 1170 1063 1166 1081 1161 1089 C 1155 1098 1152 1091 1152 1064 z" stroke-linecap="round" />
</g>
		<g transform="matrix(0.13 0 0 -0.13 -30.78 92.96)"  >
<path style="stroke: none; stroke-width: 1; stroke-dasharray: none; stroke-linecap: butt; stroke-dashoffset: 0; stroke-linejoin: miter; stroke-miterlimit: 4; fill: rgb(0, 0, 0); fill-rule: nonzero; opacity: 1;" vector-effect="non-scaling-stroke"  transform=" translate(-1269.15, -802.8)" d="M 1241 822 C 1242 796 1254 775 1269 772 C 1277 770 1280 775 1277 784 C 1273 795 1276 797 1287 793 C 1300 788 1300 790 1291 807 C 1277 834 1240 844 1241 822 z" stroke-linecap="round" />
</g>
		<g transform="matrix(0.13 0 0 -0.13 -23.14 97.86)"  >
<path style="stroke: none; stroke-width: 1; stroke-dasharray: none; stroke-linecap: butt; stroke-dashoffset: 0; stroke-linejoin: miter; stroke-miterlimit: 4; fill: rgb(0, 0, 0); fill-rule: nonzero; opacity: 1;" vector-effect="non-scaling-stroke"  transform=" translate(-1326.44, -766.02)" d="M 1310 764 C 1310 737 1324 739 1339 768 C 1346 782 1344 786 1329 787 C 1315 788 1310 782 1310 764 z" stroke-linecap="round" />
</g>
		<g transform="matrix(0.13 0 0 -0.13 -98.93 146.83)"  >
<path style="stroke: none; stroke-width: 1; stroke-dasharray: none; stroke-linecap: butt; stroke-dashoffset: 0; stroke-linejoin: miter; stroke-miterlimit: 4; fill: rgb(0, 0, 0); fill-rule: nonzero; opacity: 1;" vector-effect="non-scaling-stroke"  transform=" translate(-758.03, -398.77)" d="M 841 743 C 831 722 822 701 822 696 C 822 691 816 684 809 680 C 802 675 796 660 794 645 C 792 630 785 610 777 601 C 765 588 749 552 745 530 C 745 527 739 515 732 503 C 725 490 723 480 727 480 C 731 480 731 476 725 472 C 693 449 670 356 701 376 C 706 379 710 377 710 371 C 710 366 700 360 688 358 C 667 355 665 350 666 299 C 666 252 664 243 651 248 C 642 251 638 250 642 245 C 646 241 645 231 639 223 C 630 214 631 210 639 210 C 654 210 653 183 638 177 C 628 174 628 168 638 150 C 646 138 648 125 643 121 C 631 112 635 41 648 28 C 657 19 660 22 660 41 C 660 59 662 62 669 50 C 675 42 676 31 674 25 C 671 20 676 24 684 34 C 704 58 704 65 685 84 C 669 100 666 111 678 109 C 703 105 712 111 701 123 C 695 131 693 139 696 143 C 705 152 708 200 699 200 C 694 200 690 193 690 184 C 690 175 685 172 679 176 C 670 181 669 175 674 156 C 678 141 676 130 670 130 C 651 130 660 177 685 204 C 699 220 707 237 703 246 C 700 255 703 266 710 270 C 717 274 723 292 724 309 C 724 326 728 340 733 340 C 738 340 740 348 739 358 C 736 389 740 401 750 395 C 756 392 760 399 760 412 C 760 425 764 442 770 450 C 775 459 775 469 769 476 C 761 485 764 487 779 483 C 796 479 798 482 794 520 C 792 545 794 559 800 555 C 811 548 835 597 831 618 C 830 625 836 633 844 636 C 852 639 856 648 853 656 C 850 664 852 670 857 670 C 861 670 871 679 878 690 C 889 707 888 713 875 726 C 863 738 862 746 870 755 C 877 764 878 770 871 774 C 865 778 852 764 841 743 z" stroke-linecap="round" />
</g>
		<g transform="matrix(0.13 0 0 -0.13 -17.14 99.84)"  >
<path style="stroke: none; stroke-width: 1; stroke-dasharray: none; stroke-linecap: butt; stroke-dashoffset: 0; stroke-linejoin: miter; stroke-miterlimit: 4; fill: rgb(0, 0, 0); fill-rule: nonzero; opacity: 1;" vector-effect="non-scaling-stroke"  transform=" translate(-1371.45, -751.24)" d="M 1340 750 C 1330 731 1331 730 1357 736 C 1372 740 1392 747 1400 752 C 1412 760 1412 761 1398 756 C 1388 753 1378 755 1375 760 C 1365 776 1352 772 1340 750 z" stroke-linecap="round" />
</g>
		<g transform="matrix(0.13 0 0 -0.13 -12.91 110.34)"  >
<path style="stroke: none; stroke-width: 1; stroke-dasharray: none; stroke-linecap: butt; stroke-dashoffset: 0; stroke-linejoin: miter; stroke-miterlimit: 4; fill: rgb(0, 0, 0); fill-rule: nonzero; opacity: 1;" vector-effect="non-scaling-stroke"  transform=" translate(-1403.18, -672.46)" d="M 1373 732 C 1360 730 1350 722 1350 713 C 1350 704 1356 700 1365 704 C 1373 707 1380 705 1380 700 C 1380 695 1394 677 1410 660 C 1427 643 1440 624 1440 617 C 1440 610 1444 611 1449 620 C 1462 643 1457 693 1440 698 C 1427 703 1427 701 1439 687 C 1451 672 1450 670 1436 670 C 1427 670 1420 678 1420 688 C 1420 716 1398 736 1373 732 z" stroke-linecap="round" />
</g>
		<g transform="matrix(0.13 0 0 -0.13 0.03 121.91)"  >
<path style="stroke: none; stroke-width: 1; stroke-dasharray: none; stroke-linecap: butt; stroke-dashoffset: 0; stroke-linejoin: miter; stroke-miterlimit: 4; fill: rgb(0, 0, 0); fill-rule: nonzero; opacity: 1;" vector-effect="non-scaling-stroke"  transform=" translate(-1500.26, -585.68)" d="M 1464 604 C 1467 595 1470 586 1470 584 C 1470 581 1479 584 1489 590 C 1510 600 1529 587 1510 575 C 1494 565 1498 552 1517 554 C 1559 560 1533 614 1487 617 C 1465 619 1459 616 1464 604 z" stroke-linecap="round" />
</g>
</g>
</g>
</svg>