<?xml version="1.0" standalone="no"?>
<!DOCTYPE svg PUBLIC "-//W3C//DTD SVG 20010904//EN"
 "http://www.w3.org/TR/2001/REC-SVG-20010904/DTD/svg10.dtd">
<svg version="1.0" xmlns="http://www.w3.org/2000/svg"
 width="30.000000pt" height="30.000000pt" viewBox="0 0 300.000000 300.000000"
 preserveAspectRatio="xMidYMid meet">

<g transform="translate(0.000000,300.000000) scale(0.100000,-0.100000)"
fill="#ffffff" stroke="none">
<path d="M1410 2339 c0 -6 -7 -9 -15 -5 -18 7 -45 -19 -45 -45 0 -16 -5 -18
-27 -13 -22 4 -25 3 -13 -5 13 -9 12 -11 -4 -11 -15 0 -16 -3 -7 -14 32 -39
29 -106 -4 -106 -9 0 -12 -6 -8 -16 4 -12 0 -14 -21 -8 -17 4 -26 2 -26 -6 0
-6 -4 -9 -9 -6 -5 3 -16 -5 -25 -19 -17 -26 -50 -33 -61 -15 -4 6 -1 17 5 25
10 13 8 15 -14 15 -14 0 -26 -4 -26 -10 0 -5 -7 -10 -16 -10 -8 0 -12 -5 -9
-10 4 -6 1 -18 -7 -27 -9 -12 -9 -15 0 -9 6 4 12 3 12 -3 0 -6 -16 -13 -36
-17 -31 -6 -34 -8 -21 -21 16 -16 90 -36 82 -22 -9 13 43 42 66 36 14 -4 19
-2 15 8 -6 16 119 79 136 69 6 -4 8 -2 4 4 -3 6 8 15 29 22 42 14 44 22 9 45
-18 11 -23 20 -16 27 6 6 8 16 5 23 -2 8 1 24 8 37 7 13 12 28 10 33 -1 6 1 7
4 3 4 -4 16 -3 27 3 17 9 18 7 12 -31 -7 -40 -6 -41 21 -36 20 4 25 2 21 -10
-3 -7 0 -14 7 -15 7 0 20 -2 29 -4 26 -5 31 11 16 45 -12 28 -38 42 -38 20 0
-5 -8 -6 -17 -3 -14 6 -12 9 12 19 17 7 25 13 18 14 -7 0 -10 6 -8 13 3 6 1
17 -3 23 -10 15 -72 26 -72 13z"/>
<path d="M1394 2194 c-4 -17 -1 -31 8 -41 14 -13 16 -12 22 11 5 22 10 25 24
17 9 -5 17 -20 17 -32 0 -16 7 -25 20 -27 11 -2 39 -12 62 -23 47 -21 63 -24
63 -10 0 5 8 7 18 4 14 -3 18 3 20 26 2 21 -2 31 -11 31 -14 0 -58 -34 -54
-41 1 -2 -2 -1 -7 3 -5 4 -3 14 5 24 12 14 10 19 -10 36 -19 15 -26 16 -32 6
-5 -7 -4 -14 1 -16 13 -5 13 -32 0 -32 -5 0 -10 6 -10 13 0 8 -4 7 -11 -3 -8
-12 -9 -10 -4 8 5 16 2 22 -10 22 -9 0 -13 -4 -10 -10 3 -5 0 -10 -8 -10 -10
0 -13 7 -10 18 3 14 -5 23 -30 35 -45 22 -45 22 -53 -9z"/>
<path d="M1186 2131 c-9 -10 -16 -25 -16 -35 0 -14 4 -14 30 6 17 12 30 25 30
29 0 16 -29 16 -44 0z"/>
<path d="M1685 2091 c-3 -6 -23 -11 -43 -11 l-37 0 27 -25 c15 -14 32 -25 38
-25 5 0 10 -5 10 -11 0 -6 7 -8 16 -5 10 4 26 -5 44 -24 18 -19 34 -28 44 -24
9 3 16 1 16 -5 0 -6 7 -11 16 -11 14 0 15 -2 3 -17 -12 -14 -12 -15 0 -9 8 5
16 4 21 -4 5 -8 10 -3 14 14 3 14 13 26 21 26 8 0 15 5 15 10 0 6 -4 10 -10
10 -5 0 -10 8 -10 17 0 13 -3 14 -12 5 -9 -9 -16 -8 -30 5 -15 14 -22 14 -45
4 l-28 -13 20 22 c19 21 19 22 1 36 -14 10 -24 10 -38 3 -17 -9 -19 -8 -13 10
8 27 -6 27 -28 0 -10 -11 -21 -18 -24 -15 -4 3 2 13 13 20 10 8 16 17 12 21
-3 3 -9 2 -13 -4z"/>
<path d="M980 1969 c0 -6 5 -20 11 -32 10 -21 10 -21 -10 1 -15 17 -26 21 -45
16 -25 -6 -37 -24 -15 -24 6 0 7 -5 2 -12 -4 -7 -8 -20 -8 -28 0 -8 -6 -14
-13 -12 -8 1 -11 -2 -7 -8 3 -5 -1 -10 -9 -10 -9 0 -16 -6 -16 -14 0 -8 -7
-17 -16 -20 -8 -3 -12 -2 -9 4 3 6 1 10 -4 10 -6 0 -11 -9 -11 -20 0 -29 22
-25 52 10 15 17 33 29 40 28 7 -2 12 5 12 14 -1 10 4 14 12 11 8 -3 14 0 14 7
0 6 4 8 10 5 5 -3 18 -1 27 4 10 6 14 11 10 11 -4 0 -3 9 3 20 6 11 15 18 19
15 11 -6 36 23 28 32 -4 3 -14 0 -23 -8 -13 -11 -18 -11 -21 -1 -6 15 -33 16
-33 1z"/>
<path d="M1160 1962 c-8 -3 -22 -12 -30 -21 -8 -9 -34 -25 -57 -36 -24 -11
-43 -23 -43 -26 0 -11 64 -2 68 10 2 6 10 11 18 11 8 0 14 5 14 10 0 6 5 10
11 10 14 0 41 28 37 39 -2 4 -10 6 -18 3z"/>
<path d="M1233 1910 c-15 -16 -35 -30 -43 -30 -19 0 -51 -36 -49 -53 3 -17
-11 -47 -23 -47 -5 0 -6 5 -3 10 14 23 -10 7 -48 -30 -28 -29 -45 -39 -58 -35
-23 7 -26 -13 -4 -21 8 -4 15 -12 15 -20 0 -19 5 -18 36 11 15 14 33 25 41 25
12 0 12 3 -1 16 -17 17 -20 25 -8 23 23 -4 38 6 88 56 30 31 54 53 54 51 0 -3
11 6 25 20 25 25 33 54 16 54 -5 0 -22 -13 -38 -30z"/>
<path d="M1908 1924 c-4 -3 -14 -7 -25 -8 -19 -3 -32 -36 -14 -36 6 0 11 5 11
10 0 7 6 7 19 1 15 -9 22 -6 35 14 15 24 15 25 -2 25 -10 0 -21 -3 -24 -6z"/>
<path d="M1948 1898 c16 -16 15 -28 -1 -28 -8 0 -14 -7 -14 -15 0 -9 6 -14 13
-11 6 2 19 -10 29 -27 9 -18 34 -41 56 -51 21 -11 39 -23 39 -29 0 -5 7 -7 15
-3 8 3 15 1 15 -4 0 -5 7 -7 15 -4 8 4 15 1 15 -6 0 -6 5 -8 12 -4 6 4 8 3 5
-3 -4 -6 0 -16 8 -23 12 -10 16 -9 21 4 7 17 34 22 34 6 0 -5 7 -10 16 -10 11
0 15 -7 12 -22 -5 -27 55 -97 66 -79 4 6 1 11 -6 11 -8 0 -14 9 -14 20 0 10 2
17 4 15 3 -2 14 1 25 7 l21 11 -22 8 c-12 5 -22 16 -22 25 0 10 -5 14 -15 10
-8 -3 -15 -2 -15 2 0 4 -13 13 -30 19 -16 6 -30 18 -30 27 0 9 -7 16 -16 16
-9 0 -18 9 -21 21 -4 12 -11 18 -20 15 -8 -3 -16 -6 -18 -6 -2 0 -1 -9 2 -20
4 -15 0 -20 -13 -20 -13 0 -15 3 -7 11 15 15 -3 57 -26 61 -26 6 -41 -15 -22
-29 14 -11 13 -12 -10 -13 -23 0 -25 3 -24 38 1 20 -2 46 -6 57 -5 12 -8 14
-8 6 -1 -11 -4 -10 -15 4 -7 10 -24 20 -37 22 -19 3 -21 1 -11 -9z"/>
<path d="M816 1855 c-9 -13 -16 -28 -16 -34 0 -5 -12 -12 -26 -15 -14 -4 -23
-12 -21 -19 2 -7 -2 -25 -10 -40 -8 -16 -12 -31 -9 -34 10 -10 37 20 32 34 -3
8 2 13 14 13 23 0 29 8 32 49 1 20 9 33 20 37 19 6 24 19 9 28 -5 3 -16 -5
-25 -19z"/>
<path d="M714 1775 c-4 -8 -12 -15 -19 -15 -15 0 -28 -27 -19 -41 3 -6 -5 -7
-22 -3 -17 5 -25 3 -21 -3 4 -6 -3 -13 -14 -16 -17 -5 -19 -9 -9 -26 12 -23
29 -28 31 -8 1 6 2 19 3 27 1 14 6 15 50 2 18 -5 18 -4 2 21 -17 25 -17 25 13
32 22 5 31 13 31 26 0 23 -18 25 -26 4z"/>
<path d="M922 1770 c-30 -29 -27 -33 8 -15 17 9 28 20 25 25 -8 13 -8 13 -33
-10z"/>
<path d="M865 1710 c-13 -15 -15 -24 -8 -31 8 -8 13 -8 17 0 4 6 2 11 -4 11
-6 0 -8 5 -5 10 3 6 18 10 33 10 21 0 24 2 12 10 -21 13 -24 13 -45 -10z"/>
<path d="M922 1705 c-13 -7 -20 -15 -15 -18 12 -7 73 4 73 13 0 7 -28 22 -33
19 -1 -1 -13 -7 -25 -14z"/>
<path d="M2190 1681 c0 -6 5 -13 10 -16 6 -4 8 -10 5 -15 -3 -5 -1 -11 4 -14
16 -10 21 23 5 39 -18 17 -24 19 -24 6z"/>
<path d="M979 1659 c-11 -22 1 -40 26 -38 6 0 4 3 -2 6 -7 2 -13 9 -13 14 0 6
5 7 10 4 6 -3 10 3 10 14 0 27 -16 27 -31 0z"/>
<path d="M547 1649 c-9 -6 -15 -14 -12 -20 4 -5 1 -9 -4 -9 -6 0 -11 -6 -11
-14 0 -9 -8 -12 -25 -8 -18 3 -25 0 -25 -12 0 -9 -5 -16 -11 -16 -6 0 -9 -7
-5 -15 3 -10 -1 -15 -14 -15 -10 0 -36 -16 -57 -35 -69 -63 -108 -95 -116 -95
-12 0 20 -30 31 -30 6 0 12 -5 14 -11 3 -9 9 -9 25 0 18 9 25 8 40 -7 10 -10
26 -22 36 -25 11 -4 15 -12 11 -19 -4 -8 -3 -10 2 -5 5 5 10 13 10 18 1 5 3
12 4 17 2 4 4 13 4 21 1 8 7 16 14 19 7 2 10 -2 6 -12 -3 -9 -1 -16 5 -16 20
0 12 29 -11 41 -13 6 -20 8 -16 4 8 -9 -15 -35 -31 -35 -10 0 -15 14 -12 32 0
4 -15 0 -34 -9 -19 -9 -38 -14 -41 -10 -9 8 37 57 54 57 6 0 12 5 12 11 0 7
10 9 25 7 30 -6 32 6 4 25 -13 9 -16 17 -10 22 6 3 11 1 11 -5 0 -6 8 -10 18
-8 12 2 17 -3 16 -18 0 -19 4 -20 39 -13 22 4 43 12 47 19 4 6 11 11 16 9 5
-1 10 5 12 14 4 22 -17 22 -34 0 -13 -17 -14 -17 -7 2 7 20 7 20 -21 1 -23
-15 -30 -16 -37 -5 -13 20 -12 21 31 54 23 17 37 36 34 44 -3 11 -1 11 10 2
10 -8 16 -9 21 -1 9 14 25 13 21 -2 -1 -7 -1 -10 1 -5 3 4 8 5 12 3 4 -3 8 11
8 30 1 29 -2 34 -20 34 -12 0 -30 -5 -40 -11z"/>
<path d="M781 1609 c-8 -23 -8 -29 2 -26 6 2 11 11 11 19 -1 9 5 15 14 14 8 0
17 5 19 12 3 7 -4 12 -15 12 -13 0 -24 -10 -31 -31z"/>
<path d="M2366 1623 c-10 -10 -7 -55 3 -49 5 3 12 -1 15 -10 9 -24 8 -24 -21
-8 -35 17 -43 18 -43 1 0 -10 -11 -12 -47 -7 -27 4 -55 10 -64 14 -10 4 -20 3
-23 -2 -6 -10 -76 8 -76 20 0 5 -4 8 -9 8 -4 0 -6 -12 -3 -26 3 -20 0 -26 -17
-31 -11 -3 -21 -12 -21 -19 0 -16 26 -19 35 -4 5 8 11 7 21 -1 8 -6 14 -8 14
-4 0 4 6 3 13 -2 6 -6 28 -9 47 -8 19 2 48 -4 65 -12 19 -9 31 -10 33 -3 2 5
8 8 13 4 5 -3 9 4 9 15 0 22 -15 28 -23 11 -3 -6 -4 -5 -3 2 1 7 15 14 31 15
15 1 32 8 37 15 7 10 9 10 5 -2 -2 -8 3 -21 12 -28 13 -10 14 -12 1 -10 -8 2
-18 7 -22 13 -9 13 -33 -10 -24 -23 3 -6 17 -9 31 -7 16 1 25 -3 25 -11 0 -27
20 -14 21 14 1 26 2 25 17 -11 9 -24 20 -36 29 -33 7 3 13 1 13 -5 0 -6 4 -8
8 -5 5 3 9 -1 9 -9 0 -8 -5 -15 -11 -15 -5 0 -1 -6 9 -14 18 -13 16 -15 -29
-36 -40 -18 -50 -19 -57 -8 -5 8 -3 17 6 24 22 16 18 26 -5 14 -11 -6 -20 -20
-20 -31 0 -15 -5 -19 -19 -14 -24 7 -37 -11 -21 -30 10 -12 10 -18 0 -30 -11
-13 -9 -15 12 -13 15 1 25 8 24 16 -1 8 6 17 14 20 8 3 12 1 8 -3 -10 -11 11
-47 23 -40 5 4 7 10 4 15 -3 4 5 6 17 2 16 -4 19 -2 13 8 -6 10 -4 12 9 7 11
-5 15 -3 10 4 -5 8 5 10 30 7 27 -3 35 -1 32 9 -5 12 13 18 38 14 4 -1 14 3
22 10 7 6 18 8 23 4 6 -3 18 3 28 15 10 11 26 20 36 20 17 0 18 2 6 16 -16 19
-50 34 -63 27 -4 -3 -2 -10 5 -15 10 -6 7 -7 -8 -3 -14 4 -23 2 -23 -4 0 -6
-4 -11 -10 -11 -5 0 -10 15 -10 33 -1 39 -23 72 -44 64 -10 -4 -13 -1 -9 9 3
10 -2 14 -19 14 -15 0 -25 -6 -25 -15 0 -18 13 -20 20 -2 3 7 6 5 6 -5 1 -28
-38 -22 -49 6 -5 13 -18 27 -29 31 -17 5 -19 10 -11 26 8 15 7 21 -5 25 -8 3
-12 10 -9 15 3 5 0 9 -6 9 -6 0 -9 4 -5 9 6 11 -9 23 -19 14z m-119 -95 c-8
-5 -6 -8 6 -8 10 0 16 -4 12 -9 -3 -6 -18 -5 -38 3 -17 8 -38 11 -46 8 -8 -2
-11 -1 -8 4 3 5 23 9 46 9 22 0 34 -3 28 -7z m278 -89 c8 -12 -2 -59 -13 -59
-4 0 -8 16 -9 35 -3 34 9 46 22 24z"/>
<path d="M1927 1583 c-4 -3 -23 -7 -44 -7 -31 -2 -38 -6 -46 -31 -6 -17 -17
-35 -26 -42 -9 -6 -12 -15 -8 -19 4 -5 12 -2 17 6 7 10 10 11 10 3 0 -7 4 -12
9 -10 10 2 11 -2 11 -32 0 -11 -9 -21 -22 -24 -23 -6 -23 -6 -3 9 16 12 17 16
6 23 -9 6 -20 4 -29 -6 -15 -15 -54 -85 -49 -89 1 -2 15 -5 30 -8 14 -2 32 -8
38 -12 23 -14 27 19 6 38 -12 11 -17 17 -11 14 7 -3 17 1 24 9 7 8 19 15 26
15 8 0 14 9 14 21 0 13 -4 18 -12 13 -10 -5 -10 -4 -1 6 9 10 8 16 -3 27 -12
13 -12 16 1 29 8 9 15 20 15 25 0 6 9 7 20 4 13 -4 22 -1 26 9 7 18 34 10 34
-11 0 -20 27 -46 35 -33 9 14 42 12 49 -2 3 -7 3 -2 0 11 -4 15 -2 21 4 17 12
-7 35 29 30 46 -2 6 -17 -2 -33 -18 -38 -38 -54 -39 -50 -3 4 27 2 28 -16 18
-14 -7 -24 -7 -33 0 -7 6 -16 8 -19 4z"/>
<path d="M1260 1567 c0 -14 -4 -16 -19 -7 -27 14 -64 8 -79 -13 -10 -12 -23
-17 -42 -13 -27 4 -39 -11 -40 -46 0 -14 37 -8 50 7 17 21 54 13 58 -13 2 -12
9 -22 15 -23 7 0 23 -2 36 -5 19 -3 22 -1 18 16 -7 26 16 43 55 42 19 0 37 6
44 16 12 17 8 45 -6 37 -5 -3 -11 -1 -15 4 -3 6 -14 3 -25 -6 -13 -12 -16 -19
-8 -24 6 -4 -4 -10 -21 -14 -50 -11 -54 10 -6 29 6 2 5 9 -2 17 -11 11 -13 10
-13 -4z"/>
<path d="M1562 1568 c-13 -13 -62 -20 -62 -9 0 12 -79 12 -101 1 -10 -6 -19
-18 -19 -27 0 -9 -8 -22 -17 -29 -15 -10 -16 -15 -5 -26 10 -10 16 -10 33 0
11 7 24 10 29 7 5 -3 11 -1 14 4 6 10 60 8 94 -3 14 -5 29 -3 37 4 8 6 18 9
23 6 6 -3 32 -7 58 -8 27 -1 43 -3 36 -6 -7 -2 -10 -8 -6 -13 5 -9 -17 -13
-46 -9 -11 1 -10 -3 5 -17 19 -18 61 -20 50 -3 -6 10 20 62 31 60 5 -1 17 -8
26 -17 15 -14 16 -13 11 8 -5 20 -3 21 20 15 29 -7 34 2 15 23 -7 8 -8 11 -2
8 6 -4 19 0 29 7 18 13 18 14 -3 25 -17 9 -22 9 -22 0 0 -8 -12 -10 -35 -6
-19 3 -37 1 -41 -5 -3 -5 -15 -8 -25 -5 -12 3 -19 0 -19 -9 0 -8 -7 -14 -15
-14 -8 0 -12 6 -9 14 4 11 0 14 -19 10 -14 -2 -32 2 -40 10 -10 11 -17 12 -25
4z"/>
<path d="M992 1555 c-18 -8 -40 -21 -48 -30 -9 -8 -19 -15 -24 -15 -5 0 -7 -6
-4 -13 3 -8 15 -12 27 -11 12 1 27 3 34 3 6 1 13 11 15 23 2 11 11 22 20 24
23 3 34 -14 14 -22 -9 -3 -16 -14 -15 -23 0 -10 2 -11 6 -3 2 6 13 12 24 12
12 0 19 7 19 20 0 11 5 20 10 20 6 0 10 6 10 13 0 17 -49 18 -88 2z"/>
<path d="M1093 1557 c4 -14 37 -18 56 -7 18 11 17 11 -27 15 -20 2 -31 -2 -29
-8z"/>
<path d="M892 1543 c-15 -10 -26 -13 -30 -7 -8 12 -52 13 -52 2 0 -13 -28 -9
-32 4 -3 9 -9 8 -22 -5 -20 -20 -36 -22 -37 -4 -1 6 -5 1 -9 -13 -6 -18 -8
-20 -9 -7 -1 10 -7 17 -13 14 -7 -2 -22 -1 -34 4 -18 6 -21 4 -18 -17 1 -13
-2 -22 -7 -18 -5 3 -7 9 -4 14 3 4 -2 10 -10 14 -10 4 -15 -1 -15 -15 0 -31
-68 -87 -90 -74 -5 3 -10 0 -10 -9 0 -8 -3 -21 -6 -29 -4 -12 0 -14 16 -10 12
3 19 11 16 19 -8 22 18 22 32 0 l13 -21 -6 21 c-5 21 0 29 37 60 23 18 38 5
31 -27 -3 -17 -1 -29 5 -29 18 0 25 22 11 31 -9 6 -10 9 -2 9 6 0 13 8 15 17
3 16 4 16 20 0 20 -21 25 -21 44 -2 19 19 48 19 66 1 12 -11 17 -11 36 4 12
10 31 16 42 13 21 -6 28 12 8 20 -19 6 -4 18 26 20 14 1 26 5 26 10 1 33 -4
34 -38 10z"/>
<path d="M1922 1534 c-12 -8 -22 -21 -22 -27 0 -7 4 -6 10 3 6 10 10 11 10 3
0 -23 18 -14 22 12 3 14 5 25 4 25 -1 0 -12 -7 -24 -16z"/>
<path d="M1270 1472 c0 -7 4 -11 9 -8 5 4 11 1 13 -6 5 -15 38 -3 38 15 0 9
-11 14 -30 13 -17 -1 -30 -6 -30 -14z"/>
<path d="M981 1461 c-19 -12 -23 -41 -5 -41 8 0 14 -9 14 -20 0 -11 5 -20 11
-20 5 0 7 5 4 10 -3 6 -1 10 4 10 15 0 14 -27 -1 -32 -6 -2 -12 -18 -12 -35
-1 -17 2 -29 7 -26 4 2 7 -5 7 -16 0 -11 11 -28 25 -37 14 -9 22 -21 18 -27
-4 -6 -11 -4 -19 7 -10 15 -13 15 -21 3 -12 -22 -63 -10 -63 14 0 18 -2 19
-30 4 -19 -10 -28 -21 -24 -28 4 -7 1 -6 -7 2 -11 10 -11 15 -1 18 6 3 12 9
12 14 0 6 -6 9 -12 8 -7 -1 -21 1 -31 6 -24 10 -36 -4 -16 -18 9 -7 14 -17 12
-24 -6 -18 -33 -3 -33 18 0 12 -7 19 -20 19 -11 0 -20 5 -20 11 0 6 -9 9 -20
6 -11 -3 -20 0 -20 6 -1 7 -5 6 -13 -3 -14 -18 -50 -23 -44 -6 3 6 10 10 17 8
6 -1 10 3 8 10 -5 13 -43 15 -70 3 -30 -12 -20 -32 18 -39 19 -4 43 -16 52
-26 11 -14 18 -16 23 -8 6 9 11 9 22 -1 13 -10 17 -9 26 6 10 17 10 17 11 -2
0 -20 11 -24 68 -28 6 0 12 -4 12 -9 0 -4 8 -8 18 -8 10 0 23 -5 29 -11 8 -8
25 -8 63 0 68 15 81 14 74 -4 -4 -10 0 -15 11 -15 9 0 13 5 10 10 -3 6 1 10 9
10 8 0 20 -9 26 -20 8 -16 6 -21 -12 -32 -13 -7 -27 -11 -33 -10 -5 1 -1 -5
10 -14 17 -14 17 -16 2 -10 -20 7 -71 -39 -82 -75 -6 -18 -4 -21 9 -16 11 4
15 3 11 -4 -4 -5 -15 -7 -26 -4 -13 4 -19 2 -19 -8 0 -8 -12 -27 -27 -43 -15
-16 -26 -35 -25 -41 2 -7 -1 -13 -7 -13 -5 0 -23 -13 -39 -30 -21 -21 -27 -32
-18 -37 16 -11 37 -63 30 -75 -4 -6 1 -8 12 -6 11 2 18 11 16 21 -2 9 1 17 6
17 6 0 13 16 16 35 5 27 12 35 28 35 18 0 19 2 7 16 -11 14 -11 18 2 28 24 18
89 102 89 115 0 6 12 24 28 39 15 16 34 41 42 58 18 34 36 39 76 23 16 -6 40
-13 53 -15 13 -2 29 -8 34 -13 17 -17 25 -13 23 13 -1 21 -5 24 -28 19 -19 -4
-28 -1 -28 7 0 7 -6 10 -14 7 -8 -3 -17 1 -20 9 -3 8 -15 14 -26 14 -11 0 -20
6 -20 13 0 7 -10 14 -22 14 -13 1 -24 7 -26 13 -2 5 -8 8 -13 4 -5 -3 -9 3 -9
12 0 14 -3 15 -12 6 -16 -16 -28 -15 -28 3 0 8 3 14 8 14 21 -4 31 3 25 17 -4
10 -14 14 -29 11 -13 -2 -21 0 -18 4 3 5 -5 9 -18 10 l-23 0 23 10 c15 6 21
13 15 21 -4 7 -8 22 -9 33 -1 11 -4 36 -8 55 -3 19 -3 29 0 22 4 -9 9 -10 19
-2 9 8 17 7 28 -5 10 -9 18 -11 22 -5 3 5 1 10 -4 10 -6 0 -11 7 -11 16 0 12
-7 15 -30 12 -17 -3 -33 -1 -36 4 -7 10 -25 10 -43 -1z"/>
<path d="M1952 1450 c-15 -24 -15 -33 -2 -25 15 9 11 -7 -7 -30 -11 -14 -14
-15 -10 -3 4 10 -1 18 -13 21 -13 3 -17 0 -13 -9 3 -8 -1 -14 -11 -14 -14 0
-15 -4 -6 -20 9 -16 8 -20 -5 -20 -9 0 -13 -4 -10 -10 6 -10 -7 -14 -32 -11
-10 1 -10 -5 -4 -23 6 -13 7 -27 3 -31 -4 -4 3 -1 16 6 12 8 22 20 22 27 0 7
7 15 15 18 8 4 15 13 15 21 0 8 5 11 10 8 6 -3 10 -1 10 4 0 6 7 11 15 11 18
0 37 34 29 54 -7 18 6 43 15 28 4 -6 11 -4 19 4 11 12 8 14 -15 14 -17 0 -33
-8 -41 -20z"/>
<path d="M745 1446 c-12 -6 -19 -19 -17 -29 4 -21 27 -17 27 4 0 8 4 17 10 21
17 12 1 15 -20 4z"/>
<path d="M822 1429 c-27 -25 -28 -27 -11 -38 18 -11 24 -5 20 21 0 4 6 5 14 2
8 -4 15 -1 15 5 0 6 -5 11 -12 11 -6 0 -8 3 -5 6 4 4 13 2 20 -4 10 -9 17 -7
29 7 14 17 13 18 -13 17 -15 -1 -41 -13 -57 -27z"/>
<path d="M2198 1449 c-23 -13 -23 -55 -2 -63 21 -8 50 14 33 25 -7 4 -18 5
-26 2 -18 -7 -16 7 4 29 18 20 16 22 -9 7z"/>
<path d="M2317 1427 c4 -7 0 -8 -11 -4 -14 5 -17 3 -13 -8 4 -8 2 -17 -3 -20
-6 -4 -10 -12 -10 -18 0 -7 4 -6 10 3 8 13 14 8 12 -11 -1 -3 10 -4 23 -1 14
2 22 8 20 13 -3 4 -12 6 -19 3 -27 -10 -26 15 0 29 26 13 26 14 5 20 -13 3
-19 1 -14 -6z"/>
<path d="M2147 1412 c-10 -10 -17 -24 -17 -30 0 -7 -4 -12 -10 -12 -5 0 -10
-4 -10 -10 0 -5 9 -10 19 -10 13 0 23 11 31 36 14 42 9 51 -13 26z"/>
<path d="M692 1404 c-12 -8 -22 -22 -22 -30 0 -16 16 -19 25 -4 4 6 11 8 16 5
5 -4 9 5 9 19 0 31 1 30 -28 10z"/>
<path d="M2006 1401 c-3 -5 -3 -16 0 -25 4 -10 1 -16 -7 -16 -9 0 -10 -3 -2
-11 7 -7 17 -8 28 -2 15 9 15 11 1 26 -11 11 -13 18 -5 23 6 3 16 0 21 -7 8
-12 9 -11 5 1 -4 18 -32 25 -41 11z"/>
<path d="M758 1383 c-9 -2 -21 -18 -27 -34 -6 -18 -6 -27 -1 -24 6 4 10 14 10
23 0 13 2 14 9 4 6 -10 10 -9 14 7 3 14 10 19 21 15 9 -3 16 -1 16 5 0 11 -11
12 -42 4z"/>
<path d="M490 1355 c-7 -8 -16 -12 -21 -9 -5 3 -9 3 -9 0 0 -2 -3 -12 -7 -22
-5 -14 -2 -16 15 -12 18 5 22 2 22 -15 0 -16 3 -18 9 -9 11 19 15 19 33 4 13
-10 17 -10 22 4 4 10 -5 26 -23 45 -25 24 -31 26 -41 14z"/>
<path d="M650 1355 c0 -8 -5 -15 -11 -15 -5 0 -7 6 -3 13 6 9 4 9 -7 1 -8 -6
-28 -10 -46 -9 -24 2 -30 -1 -26 -11 3 -8 11 -14 19 -14 8 0 14 -4 14 -10 0
-5 -7 -10 -15 -10 -20 0 -19 -19 0 -26 10 -4 28 8 50 32 31 33 45 64 30 64 -3
0 -5 -7 -5 -15z"/>
<path d="M2220 1347 c0 -24 -37 -42 -56 -26 -11 9 -14 8 -14 -3 0 -10 -12 -14
-46 -13 -34 1 -47 -3 -55 -17 -10 -18 -59 -26 -59 -9 0 4 11 6 25 3 15 -2 25
0 25 8 0 17 -23 37 -38 32 -7 -2 -19 2 -27 8 -10 8 -15 9 -15 2 0 -6 5 -14 10
-17 16 -10 12 -25 -5 -19 -8 4 -23 0 -32 -7 -13 -11 -17 -11 -20 -1 -6 17 -23
15 -23 -4 0 -19 -20 -41 -40 -41 -8 0 -23 -4 -32 -8 -12 -5 -20 -2 -24 9 -5
12 -10 13 -25 5 -13 -7 -19 -6 -19 1 0 6 7 13 15 16 9 4 15 19 15 39 0 27 -3
32 -22 31 -13 -1 -26 3 -30 9 -4 5 -7 1 -6 -10 1 -30 -21 -77 -32 -70 -6 4
-22 -5 -35 -19 -13 -14 -21 -26 -18 -26 3 0 -4 -8 -16 -19 -20 -17 -20 -19 -4
-25 14 -6 15 -9 4 -15 -8 -6 -10 -14 -5 -22 6 -12 5 -12 -8 -1 -16 13 -35 1
-25 -15 3 -5 -6 -9 -19 -10 -46 -4 -53 -6 -48 -15 4 -5 -4 -12 -16 -15 -13 -3
-19 -11 -16 -20 6 -14 -26 -53 -44 -53 -5 0 -7 -6 -4 -14 3 -8 1 -17 -4 -20
-12 -7 -72 13 -72 23 0 14 -100 106 -111 103 -6 -1 -17 3 -25 9 -8 6 -14 7
-14 2 0 -14 31 -55 72 -95 21 -20 38 -40 38 -45 0 -4 16 -13 35 -19 22 -7 35
-7 35 -1 0 5 6 4 14 -2 24 -20 63 -23 70 -5 3 9 3 20 0 26 -8 12 25 48 45 48
14 0 14 2 1 9 -8 6 -18 7 -23 4 -5 -3 -3 5 4 18 11 20 14 21 17 7 4 -22 22
-24 22 -3 0 8 5 15 11 15 17 0 79 51 79 66 0 7 6 11 13 8 8 -3 24 10 38 30 13
19 26 31 29 26 4 -6 20 -6 41 0 20 6 50 8 68 6 18 -2 50 1 72 7 31 7 38 13 34
27 -3 11 0 17 10 17 8 0 15 -6 15 -13 0 -7 4 -15 8 -18 15 -9 52 6 52 21 0 11
4 11 20 3 23 -12 41 -6 36 13 -1 7 -1 9 1 4 3 -4 9 -5 14 -2 5 4 6 -1 3 -10
-5 -13 4 -15 64 -13 39 2 68 6 66 10 -3 4 5 6 16 5 11 -1 20 -4 20 -8 0 -4 9
-5 20 -2 11 3 20 10 20 15 0 5 4 7 9 4 5 -3 12 2 15 11 8 20 -33 62 -53 55 -8
-3 -20 3 -28 14 -11 16 -13 16 -13 1z m-528 -119 c-2 -10 -11 -18 -18 -18 -8
0 -14 -10 -14 -25 0 -14 -4 -25 -10 -25 -16 0 -11 25 10 52 10 14 17 27 15 30
-3 3 1 5 9 5 8 0 11 -8 8 -19z"/>
<path d="M1698 1153 c-22 -5 -23 -19 -3 -27 8 -3 18 1 22 9 6 9 13 11 23 5 12
-8 12 -10 -3 -16 -9 -3 -17 -11 -17 -18 0 -6 -7 -23 -14 -39 -14 -26 -14 -27
9 -21 19 5 27 1 35 -17 21 -46 35 -66 46 -62 14 5 27 -24 15 -32 -10 -6 10
-55 22 -55 4 0 7 -13 7 -30 0 -24 4 -30 21 -30 11 0 18 4 14 9 -3 5 -1 12 4
15 5 3 11 -3 14 -14 3 -12 0 -20 -7 -20 -6 0 -13 -12 -14 -26 -2 -23 1 -26 23
-22 15 3 26 0 29 -9 9 -22 7 -33 -4 -33 -5 0 -10 7 -10 15 0 17 -16 20 -25 5
-3 -5 -2 -10 4 -10 6 0 13 -16 17 -35 4 -21 11 -34 18 -32 6 3 10 10 8 16 -1
6 2 11 8 11 5 0 10 -7 10 -15 0 -8 -4 -15 -10 -15 -5 0 -10 -5 -10 -11 0 -6 6
-9 14 -6 8 3 16 -2 19 -13 3 -11 0 -21 -6 -23 -6 -2 -1 -13 12 -26 12 -12 20
-29 17 -37 -3 -8 -2 -14 2 -14 14 0 68 -144 64 -168 -2 -6 2 -12 8 -12 6 0 9
-4 6 -9 -3 -5 1 -12 9 -15 13 -4 14 -10 5 -26 -8 -16 -8 -22 3 -26 10 -4 14
-20 13 -51 -1 -27 4 -52 12 -59 7 -8 10 -23 6 -38 -4 -18 -2 -28 9 -32 9 -3
13 -12 11 -19 -3 -7 4 -23 15 -34 24 -24 40 -28 21 -6 -15 18 1 20 19 2 10
-10 11 -6 5 18 -4 17 -13 45 -21 63 -7 17 -9 32 -4 32 11 0 3 39 -13 59 -6 7
-11 21 -11 30 -1 9 -2 29 -3 45 -2 21 -6 27 -17 22 -12 -4 -14 -2 -7 11 6 10
4 36 -5 72 -8 31 -14 64 -14 73 0 10 -4 20 -10 23 -5 4 -9 15 -9 26 0 10 -7
19 -15 19 -10 0 -13 9 -10 30 2 17 -2 36 -11 44 -8 8 -14 21 -14 30 0 8 -8 20
-17 25 -16 9 -15 10 5 11 14 0 21 4 17 11 -4 6 -14 8 -22 5 -8 -3 -11 -2 -8 3
3 5 0 13 -6 16 -5 4 -8 13 -5 21 9 22 -14 52 -36 46 -12 -3 -18 1 -18 11 0 8
-2 24 -5 34 -3 11 -1 9 6 -4 7 -13 18 -23 26 -23 11 0 11 4 1 23 -7 12 -11 26
-10 31 2 4 -8 6 -21 2 -19 -4 -26 0 -35 19 -11 24 0 36 13 15 4 -6 11 -8 16
-4 14 8 -11 36 -28 30 -7 -3 -13 -1 -13 4 0 6 5 10 10 10 6 0 10 5 10 10 0 6
-5 10 -10 10 -24 0 -53 39 -48 64 3 14 1 26 -3 26 -5 0 -9 -6 -9 -12 -1 -17
-40 71 -40 88 0 8 -4 14 -9 14 -5 0 -11 8 -13 18 -5 18 -43 25 -80 15z"/>
<path d="M1362 1112 c2 -9 -2 -17 -9 -17 -25 0 -22 -13 6 -25 39 -16 91 -19
91 -6 0 6 5 4 10 -4 7 -11 10 -12 10 -2 0 8 -9 16 -20 19 -11 3 -17 10 -13 16
4 6 1 7 -8 1 -25 -15 -46 -14 -25 2 23 16 16 26 -19 30 -19 2 -25 -2 -23 -14z"/>
<path d="M1642 1100 c-3 -8 -12 -21 -19 -28 -12 -12 -17 -33 -14 -54 0 -4 -8
-9 -18 -13 -11 -3 -19 -16 -20 -28 -3 -65 -8 -84 -31 -107 -14 -14 -28 -26
-32 -26 -5 -1 -13 -2 -19 -3 -6 0 -8 -10 -4 -23 4 -16 3 -19 -3 -9 -6 8 -17
11 -32 6 -22 -7 -22 -7 5 -21 36 -18 61 -18 69 2 3 9 12 14 20 11 8 -3 27 14
48 41 27 36 35 56 34 85 -1 20 1 37 5 37 14 0 20 52 8 66 -9 11 -9 20 1 40 10
18 16 21 22 12 6 -10 10 -10 18 2 14 22 12 26 -11 26 -12 0 -24 -7 -27 -16z"/>
<path d="M1152 1064 c-1 -39 15 -98 30 -120 5 -6 6 -18 3 -26 -3 -8 1 -21 10
-28 19 -15 34 -5 17 12 -7 7 -12 20 -12 29 0 10 -6 19 -12 22 -10 4 -10 7 0
18 14 15 16 33 3 25 -11 -7 -21 17 -21 52 0 15 -4 33 -9 41 -6 9 -9 2 -9 -25z"/>
<path d="M1241 822 c1 -26 13 -47 28 -50 8 -2 11 3 8 12 -4 11 -1 13 10 9 13
-5 13 -3 4 14 -14 27 -51 37 -50 15z"/>
<path d="M1310 764 c0 -27 14 -25 29 4 7 14 5 18 -10 19 -14 1 -19 -5 -19 -23z"/>
<path d="M841 743 c-10 -21 -19 -42 -19 -47 0 -5 -6 -12 -13 -16 -7 -5 -13
-20 -15 -35 -2 -15 -9 -35 -17 -44 -12 -13 -28 -49 -32 -71 0 -3 -6 -15 -13
-27 -7 -13 -9 -23 -5 -23 4 0 4 -4 -2 -8 -32 -23 -55 -116 -24 -96 5 3 9 1 9
-5 0 -5 -10 -11 -22 -13 -21 -3 -23 -8 -22 -59 0 -47 -2 -56 -15 -51 -9 3 -13
2 -9 -3 4 -4 3 -14 -3 -22 -9 -9 -8 -13 0 -13 15 0 14 -27 -1 -33 -10 -3 -10
-9 0 -27 8 -12 10 -25 5 -29 -12 -9 -8 -80 5 -93 9 -9 12 -6 12 13 0 18 2 21
9 9 6 -8 7 -19 5 -25 -3 -5 2 -1 10 9 20 24 20 31 1 50 -16 16 -19 27 -7 25
25 -4 34 2 23 14 -6 8 -8 16 -5 20 9 9 12 57 3 57 -5 0 -9 -7 -9 -16 0 -9 -5
-12 -11 -8 -9 5 -10 -1 -5 -20 4 -15 2 -26 -4 -26 -19 0 -10 47 15 74 14 16
22 33 18 42 -3 9 0 20 7 24 7 4 13 22 14 39 0 17 4 31 9 31 5 0 7 8 6 18 -3
31 1 43 11 37 6 -3 10 4 10 17 0 13 4 30 10 38 5 9 5 19 -1 26 -8 9 -5 11 10
7 17 -4 19 -1 15 37 -2 25 0 39 6 35 11 -7 35 42 31 63 -1 7 5 15 13 18 8 3
12 12 9 20 -3 8 -1 14 4 14 4 0 14 9 21 20 11 17 10 23 -3 36 -12 12 -13 20
-5 29 7 9 8 15 1 19 -6 4 -19 -10 -30 -31z"/>
<path d="M1340 750 c-10 -19 -9 -20 17 -14 15 4 35 11 43 16 12 8 12 9 -2 4
-10 -3 -20 -1 -23 4 -10 16 -23 12 -35 -10z"/>
<path d="M1373 732 c-13 -2 -23 -10 -23 -19 0 -9 6 -13 15 -9 8 3 15 1 15 -4
0 -5 14 -23 30 -40 17 -17 30 -36 30 -43 0 -7 4 -6 9 3 13 23 8 73 -9 78 -13
5 -13 3 -1 -11 12 -15 11 -17 -3 -17 -9 0 -16 8 -16 18 0 28 -22 48 -47 44z"/>
<path d="M1464 604 c3 -9 6 -18 6 -20 0 -3 9 0 19 6 21 10 40 -3 21 -15 -16
-10 -12 -23 7 -21 42 6 16 60 -30 63 -22 2 -28 -1 -23 -13z"/>
</g>
</svg>
