<?xml version="1.0" standalone="no"?>
<!DOCTYPE svg PUBLIC "-//W3C//DTD SVG 20010904//EN"
 "http://www.w3.org/TR/2001/REC-SVG-20010904/DTD/svg10.dtd">
<svg version="1.0" xmlns="http://www.w3.org/2000/svg"
 width="1920.000000pt" height="1920.000000pt" viewBox="0 0 1920.000000 1920.000000"
 preserveAspectRatio="xMidYMid meet">
<metadata>
Created by potrace 1.14, written by Peter Selinger 2001-2017
</metadata>
<g transform="translate(0.000000,1920.000000) scale(0.100000,-0.100000)"
fill="#000000" stroke="none">
<path d="M9064 15028 c-6 -20 -8 -20 -19 -5 -7 9 -17 17 -24 17 -14 0 -14 -23
-1 -36 16 -16 3 -40 -37 -69 -33 -26 -48 -26 -48 -2 0 6 -16 15 -35 19 -27 5
-38 3 -47 -9 -10 -13 -15 -14 -28 -3 -12 10 -18 10 -30 0 -8 -7 -15 -19 -15
-26 0 -16 -9 -17 -30 -4 -9 6 -20 5 -29 -3 -12 -9 -13 -9 -7 1 4 7 2 12 -5 12
-8 0 -10 -15 -6 -50 6 -57 -8 -94 -41 -109 -27 -13 -44 -51 -30 -68 16 -19 6
-58 -14 -55 -13 2 -16 -2 -11 -14 5 -14 3 -16 -11 -11 -15 6 -17 3 -12 -17 4
-15 0 -28 -9 -36 -8 -7 -15 -22 -15 -34 -1 -19 -2 -18 -18 7 -13 21 -23 26
-38 22 -26 -6 -34 10 -27 48 7 37 -16 35 -30 -3 -13 -35 -27 -39 -34 -10 -3
11 -10 20 -15 20 -5 0 -6 -9 -3 -21 5 -14 3 -20 -7 -18 -28 3 -49 -1 -43 -11
3 -5 21 -10 40 -10 19 0 37 -5 41 -11 3 -6 17 -9 30 -6 30 5 30 0 0 -37 -21
-25 -29 -28 -60 -23 -20 3 -36 2 -36 -4 0 -5 9 -9 19 -9 31 0 14 -38 -20 -45
-26 -6 -28 -9 -18 -28 9 -16 9 -22 0 -25 -19 -6 -12 -30 18 -54 36 -29 57 -75
71 -158 6 -36 20 -110 31 -164 20 -102 18 -115 -18 -116 -7 0 -13 -9 -13 -20
0 -13 5 -18 15 -14 9 4 15 1 15 -7 0 -29 -41 -80 -87 -109 -38 -24 -57 -29
-90 -27 -29 3 -51 -2 -70 -14 -15 -10 -31 -15 -36 -12 -5 3 -4 9 3 13 8 5 9
10 2 14 -6 3 -17 -7 -25 -24 -9 -16 -11 -30 -6 -30 5 0 8 -3 8 -7 -1 -5 0 -11
1 -15 1 -5 3 -14 4 -20 1 -7 10 -12 20 -10 13 2 17 -2 14 -15 -2 -10 -10 -17
-16 -15 -7 1 -12 -5 -12 -13 0 -22 -28 -18 -41 6 -9 17 -13 19 -20 8 -6 -10
-9 -8 -9 10 0 13 -3 21 -7 18 -3 -4 -17 0 -30 8 -21 14 -23 14 -23 -5 0 -13
-7 -20 -20 -20 -11 0 -23 -7 -26 -15 -4 -8 -10 -12 -15 -9 -5 3 -7 9 -4 14 3
4 -2 10 -10 14 -8 3 -15 0 -15 -7 0 -9 -3 -8 -9 1 -9 15 -17 15 -44 1 -13 -8
-15 -14 -7 -29 5 -10 10 -21 10 -24 0 -12 -26 -5 -50 14 -24 20 -25 21 -6 35
11 8 15 15 9 15 -6 0 -14 7 -17 16 -3 8 -2 12 4 9 9 -5 27 42 19 50 -2 2 -13
-3 -23 -11 -11 -8 -14 -14 -8 -14 8 0 5 -8 -7 -21 -13 -14 -26 -19 -39 -15
-13 4 -22 1 -26 -9 -6 -17 -51 -20 -62 -4 -4 8 -9 7 -15 -2 -6 -10 -9 -8 -9 9
0 12 5 22 10 22 6 0 10 5 10 10 0 6 -7 10 -15 10 -8 0 -15 -6 -15 -13 0 -8 -7
-14 -15 -14 -8 0 -15 4 -15 9 0 17 -17 7 -28 -17 -7 -15 -8 -27 -2 -30 6 -4 3
-16 -6 -31 -9 -14 -18 -35 -19 -47 -1 -12 -3 -26 -4 -31 0 -4 -12 -1 -25 7
-23 15 -36 13 -36 -5 0 -5 4 -7 8 -4 4 2 14 1 22 -5 11 -6 6 -8 -16 -5 -26 3
-31 0 -29 -18 2 -26 -22 -56 -45 -56 -26 0 -45 -26 -24 -34 21 -8 26 -8 20 2
-3 5 8 6 25 4 18 -3 29 0 29 7 0 7 5 9 11 5 8 -5 7 -10 -4 -16 -11 -5 -16 -21
-15 -42 2 -50 -34 -79 -75 -61 -23 10 -36 -3 -17 -16 11 -8 9 -9 -10 -4 -14 3
-32 7 -39 9 -23 4 -24 21 -3 64 18 38 18 41 2 45 -13 3 -17 -1 -14 -17 2 -11
2 -15 -2 -8 -3 6 -17 12 -30 12 -28 0 -32 24 -6 39 9 6 11 11 5 11 -7 0 -13
10 -13 21 0 18 2 19 15 9 13 -11 14 -10 9 4 -8 21 -30 21 -38 -1 -5 -13 -9
-14 -15 -5 -4 7 -21 14 -37 15 -27 2 -29 0 -29 -35 0 -28 -3 -34 -12 -26 -7 6
-13 16 -13 23 0 15 -38 8 -57 -10 -9 -9 -7 -15 6 -27 13 -11 20 -12 28 -2 7 6
9 15 5 19 -4 4 -1 6 7 4 7 -3 19 -21 26 -42 13 -39 11 -42 -29 -37 -14 1 -18
-3 -13 -19 3 -12 2 -21 -2 -21 -3 0 -15 -15 -25 -34 -18 -34 -18 -35 3 -63 21
-26 21 -28 4 -34 -30 -12 -33 -10 -33 26 0 29 -4 35 -21 35 -19 0 -20 4 -14
33 3 17 7 44 8 58 1 15 7 25 13 22 7 -2 15 0 19 6 3 6 1 11 -4 11 -6 0 -11 7
-11 15 0 8 -4 15 -8 15 -11 0 -34 -49 -27 -60 3 -4 -2 -13 -10 -20 -8 -7 -15
-21 -15 -30 0 -10 -6 -21 -12 -23 -8 -3 -5 -6 5 -6 10 -1 15 -6 12 -11 -4 -6
-15 -8 -25 -5 -15 5 -17 2 -13 -15 5 -18 2 -21 -18 -18 -20 2 -25 -2 -27 -26
-2 -17 0 -26 7 -22 12 8 51 -23 51 -40 0 -7 -21 -11 -60 -10 -60 1 -73 -5 -44
-22 13 -7 12 -11 -10 -26 -16 -10 -35 -14 -49 -11 -14 4 -28 1 -34 -7 -16 -21
-22 -57 -9 -62 6 -3 -1 -3 -16 0 -25 6 -28 3 -29 -22 -1 -19 -3 -23 -6 -11 -4
14 -12 18 -29 14 -13 -2 -26 1 -29 7 -3 8 -7 7 -11 -2 -3 -6 -10 -9 -16 -6 -6
4 -9 1 -6 -7 3 -8 13 -15 24 -15 10 -1 25 -2 33 -3 7 -1 11 -7 8 -14 -5 -15
18 -39 29 -29 4 4 4 2 0 -5 -4 -7 -13 -10 -20 -7 -23 9 -27 -12 -7 -30 17 -15
19 -15 25 -1 5 14 8 13 24 -2 10 -10 17 -21 15 -25 -2 -5 1 -8 8 -8 9 0 9 -3
0 -14 -9 -10 -6 -17 11 -28 25 -16 48 -25 62 -26 5 0 13 -6 17 -14 6 -9 11
-10 17 -2 4 6 17 10 30 9 12 -1 22 2 22 7 0 4 15 14 33 21 28 12 34 12 48 -4
14 -17 16 -16 27 13 6 16 16 27 21 23 6 -3 11 -2 11 3 0 5 11 7 25 4 18 -3 25
0 25 11 0 26 80 82 190 131 166 75 202 87 220 71 15 -13 33 -18 59 -16 10 1
11 4 2 15 -10 11 -7 19 10 35 14 13 18 21 9 21 -9 0 -8 6 6 21 10 11 26 18 36
16 11 -3 18 0 18 9 0 26 221 153 275 157 16 1 38 10 48 20 27 27 289 145 301
135 2 -1 12 4 22 13 29 25 54 31 60 14 9 -22 26 -18 20 3 -5 15 11 28 86 68
51 27 122 59 158 70 36 12 86 31 111 42 25 11 71 25 102 32 32 6 57 16 57 21
0 5 7 9 15 9 8 0 14 3 13 8 -1 4 7 22 18 40 18 31 22 33 58 27 32 -5 42 -2 62
20 15 16 24 38 24 59 0 17 5 37 12 44 15 15 74 16 83 2 3 -5 13 -10 21 -10 19
0 18 39 -3 62 -15 17 -15 19 3 32 16 12 20 12 32 -5 7 -10 22 -19 33 -19 11 0
22 -7 25 -15 4 -8 12 -15 20 -15 9 0 14 -12 14 -35 0 -19 -4 -35 -10 -35 -16
0 -11 -29 9 -51 11 -12 16 -29 13 -44 -2 -14 -1 -37 2 -51 7 -26 8 -27 81 -22
41 3 78 1 83 -4 5 -5 29 -10 53 -11 24 -1 49 -8 55 -16 18 -23 44 -6 44 28 0
24 -4 29 -16 24 -13 -5 -15 1 -13 36 2 29 -1 45 -11 52 -13 8 -13 10 0 19 19
13 37 13 45 0 3 -5 16 -10 28 -10 19 0 19 -1 5 -12 -15 -12 -15 -17 -2 -53 8
-23 12 -55 8 -76 -6 -38 14 -100 35 -114 7 -4 33 -7 59 -7 26 0 53 -6 61 -11
10 -9 17 -7 26 7 13 17 41 14 30 -4 -3 -4 -2 -16 1 -25 5 -12 14 -14 34 -10
24 5 30 1 48 -29 12 -20 26 -36 31 -36 5 0 22 18 38 40 31 43 41 48 50 24 3
-9 -5 -27 -22 -44 -18 -19 -25 -35 -21 -46 6 -15 9 -14 32 7 25 23 26 23 39 5
19 -26 65 -14 66 17 1 13 6 3 13 -22 6 -25 17 -46 25 -49 15 -5 51 31 51 51 0
21 37 50 55 44 21 -9 19 -43 -4 -59 -22 -16 -47 -65 -38 -74 10 -10 27 6 27
27 0 12 5 19 12 17 7 -3 19 1 26 9 15 15 52 18 52 4 0 -5 -16 -26 -35 -47 -26
-28 -34 -43 -29 -58 8 -25 23 -37 46 -33 9 1 28 -9 42 -22 14 -13 43 -27 63
-30 33 -6 38 -10 35 -31 -4 -33 28 -98 51 -104 9 -2 17 -1 17 3 0 7 53 41 65
41 3 0 4 -4 0 -10 -3 -5 8 -22 25 -38 18 -18 30 -39 30 -55 0 -43 10 -57 42
-57 21 0 31 6 35 19 10 38 101 36 128 -2 8 -12 28 -21 51 -23 37 -3 58 -20 47
-37 -2 -4 -11 -3 -18 3 -9 7 -16 6 -25 -4 -10 -13 -6 -19 22 -36 19 -12 42
-18 54 -15 23 5 34 -10 34 -48 0 -17 9 -25 40 -35 22 -6 45 -12 52 -12 27 -1
58 -39 64 -79 8 -49 19 -59 43 -37 10 9 25 16 34 16 9 0 26 9 37 20 l21 21 34
-27 c19 -14 35 -31 35 -37 0 -6 10 -33 22 -60 20 -44 25 -48 48 -42 63 16 83
17 105 5 19 -10 23 -18 18 -41 -5 -25 -2 -29 23 -35 40 -9 55 -24 49 -45 -4
-11 2 -26 14 -38 33 -33 50 -25 55 24 2 13 10 30 18 39 8 8 18 37 22 65 6 43
10 52 32 57 16 4 30 19 39 40 8 21 21 34 32 34 32 0 45 15 38 43 -4 15 -16 28
-31 31 -13 4 -28 15 -34 26 -6 11 -16 18 -22 14 -16 -10 -98 -14 -98 -5 0 5
10 15 22 23 20 13 21 17 9 32 -17 20 -40 20 -69 0 -22 -15 -24 -15 -37 2 -8
11 -15 25 -15 33 0 9 -9 12 -30 9 -25 -4 -30 -1 -30 17 0 35 -39 62 -102 70
-36 4 -58 11 -58 19 0 7 -6 21 -14 31 -10 14 -17 17 -27 9 -8 -6 -34 -11 -59
-10 -42 1 -45 3 -42 26 5 40 10 84 11 92 1 4 12 3 26 -2 46 -18 41 12 -8 43
-22 14 -28 25 -25 45 3 25 0 27 -32 28 -65 2 -70 4 -87 24 -21 24 -41 26 -50
4 -5 -13 -17 -15 -74 -9 -60 6 -69 5 -69 -9 0 -10 -8 -16 -21 -16 -15 0 -19 5
-15 18 9 26 -52 81 -96 88 -29 5 -38 2 -51 -17 -13 -18 -28 -23 -69 -26 -28
-2 -54 -7 -57 -11 -3 -5 -14 -11 -24 -15 -15 -5 -16 -2 -11 21 3 15 15 33 25
41 29 21 23 31 -17 31 -31 0 -36 3 -31 19 4 17 0 18 -35 13 -23 -3 -49 1 -63
8 -14 7 -39 10 -59 7 -44 -7 -55 8 -27 34 12 11 21 21 21 23 0 17 -34 78 -45
83 -9 3 -15 17 -14 37 1 17 3 23 6 14 3 -11 14 -18 28 -18 27 0 31 16 30 130
l0 75 -41 -3 c-27 -1 -46 3 -54 13 -17 20 -33 19 -81 -6 l-40 -20 -54 20 c-46
17 -55 18 -65 6 -19 -23 -33 -18 -27 10 4 22 -9 39 -75 105 -74 75 -82 79
-114 74 -22 -3 -44 1 -63 12 -28 17 -32 17 -70 -1 -22 -10 -43 -26 -46 -36 -3
-9 -12 -23 -21 -30 -12 -10 -19 -8 -37 8 -36 32 -75 53 -97 53 -27 0 -25 14 4
34 17 11 23 21 19 36 -3 12 2 29 12 40 15 17 16 22 4 37 -7 10 -14 19 -15 21
-1 2 -14 -4 -28 -13 -20 -13 -24 -23 -20 -41 3 -13 2 -24 -2 -24 -5 0 -15 -4
-23 -9 -12 -8 -12 -12 -2 -25 8 -9 11 -17 7 -17 -3 -1 -10 -3 -16 -4 -5 -1
-15 -3 -21 -4 -6 0 -8 -10 -4 -21 5 -15 2 -20 -14 -20 -26 0 -34 15 -16 30 8
7 15 18 15 25 0 7 6 18 14 24 8 6 17 31 20 54 5 33 14 47 41 65 19 12 39 22
44 22 6 0 17 10 25 22 14 20 14 24 -1 40 -9 10 -22 18 -30 18 -8 0 -11 4 -8
10 3 5 -5 15 -18 21 -14 6 -27 21 -30 33 -3 11 -9 32 -13 45 -5 17 -4 22 4 17
6 -3 16 2 21 13 15 27 15 28 -19 35 -21 4 -30 11 -30 26 0 11 5 20 10 20 6 0
10 7 10 15 0 8 -7 15 -15 15 -8 0 -15 7 -15 15 0 8 6 15 14 15 7 0 16 10 19
22 8 31 -1 36 -11 7 l-9 -24 -8 24 c-6 20 -12 23 -41 18 -27 -5 -40 -1 -61 19
-14 13 -24 26 -22 28 17 14 53 26 83 26 19 0 37 4 40 9 3 4 -5 7 -17 7 -31 -3
-77 48 -77 84 0 15 10 46 21 68 12 22 19 48 16 56 -10 25 -36 30 -57 11 -19
-17 -20 -17 -20 3 0 14 6 22 16 22 15 0 15 2 0 25 -18 27 -14 45 10 45 9 0 12
5 8 11 -3 6 -19 9 -35 5 -27 -5 -34 1 -30 27 1 5 -3 6 -9 2 -5 -3 -10 -12 -10
-20 0 -10 -10 -8 -41 7 -55 26 -157 47 -213 42 -44 -3 -46 -2 -42 21 6 32 -20
34 -30 3z m-327 -265 c-3 -3 -11 -2 -17 2 -8 5 -7 11 2 22 12 15 13 14 16 -1
2 -10 1 -20 -1 -23z m787 -559 c9 -22 -3 -32 -14 -14 -12 19 -12 30 -1 30 5 0
12 -7 15 -16z m89 10 c3 -3 3 -12 0 -20 -4 -11 -9 -12 -19 -3 -8 6 -14 15 -14
20 0 10 24 12 33 3z m-143 -138 c0 -7 -6 -19 -14 -25 -19 -16 -32 5 -16 24 16
19 30 19 30 1z m-263 -148 c-3 -8 -6 -5 -6 6 -1 11 2 17 5 13 3 -3 4 -12 1
-19z m693 -124 c17 -49 5 -94 -34 -140 l-34 -39 -11 28 c-6 16 -11 34 -11 41
0 7 -6 21 -14 31 -9 12 -11 27 -6 40 4 11 9 25 10 30 4 14 51 43 72 44 10 1
21 -12 28 -35z m-449 -17 c-16 -16 -26 0 -10 19 9 11 15 12 17 4 2 -6 -1 -17
-7 -23z m329 -21 c0 -3 -4 -8 -10 -11 -5 -3 -10 -1 -10 4 0 6 5 11 10 11 6 0
10 -2 10 -4z m430 -123 c0 -12 -4 -24 -8 -27 -13 -8 -52 41 -46 58 8 22 54 -4
54 -31z m-1985 7 c3 -5 1 -10 -4 -10 -6 0 -11 5 -11 10 0 6 2 10 4 10 3 0 8
-4 11 -10z m1700 -40 c3 -5 -1 -10 -9 -10 -8 0 -18 5 -21 10 -3 6 1 10 9 10 8
0 18 -4 21 -10z m165 -40 c-8 -5 -21 -10 -29 -10 -11 0 -9 5 5 19 12 12 23 15
29 9 6 -6 5 -12 -5 -18z m-2280 -12 c0 -6 -3 -8 -7 -5 -3 4 -13 1 -22 -6 -14
-11 -14 -10 -2 6 15 20 31 22 31 5z m130 -18 c0 -5 -7 -7 -15 -4 -8 4 -12 10
-9 15 6 11 24 2 24 -11z m1990 0 c0 -11 -4 -20 -9 -20 -14 0 -23 18 -16 30 10
17 25 11 25 -10z m-40 -10 c0 -5 -5 -10 -11 -10 -5 0 -7 5 -4 10 3 6 8 10 11
10 2 0 4 -4 4 -10z m-2085 -10 c3 -6 -1 -7 -9 -4 -18 7 -21 14 -7 14 6 0 13
-4 16 -10z m-45 -59 c0 -5 -7 -12 -16 -15 -14 -5 -15 -4 -4 9 14 17 20 19 20
6z m-140 -43 c0 -5 -7 -8 -15 -8 -15 0 -20 21 -8 33 7 7 23 -11 23 -25z m89
22 c13 -7 19 -21 19 -50 1 -36 -2 -40 -23 -40 -13 0 -29 8 -34 18 -9 15 -10
15 -11 1 0 -9 -7 -22 -15 -29 -8 -7 -15 -19 -15 -26 0 -8 7 -14 15 -14 9 0 15
-9 15 -24 0 -18 -6 -25 -22 -28 -14 -2 -22 -9 -21 -18 3 -16 -45 -50 -69 -50
-7 0 -24 9 -37 19 -23 18 -23 19 -8 51 9 18 14 36 11 41 -3 5 6 13 20 19 24 9
31 23 27 60 -2 13 0 13 8 1 6 -9 15 -11 27 -6 11 5 22 7 27 7 4 -1 7 5 7 13 0
8 4 15 8 15 15 0 52 37 45 44 -10 9 6 7 26 -4z m-139 -26 c0 -24 -32 -45 -47
-32 -24 20 -15 44 17 46 22 2 30 -2 30 -14z m-310 -44 c0 -5 -4 -10 -10 -10
-5 0 -10 5 -10 10 0 6 5 10 10 10 6 0 10 -4 10 -10z m-50 -50 c0 -5 -5 -10
-11 -10 -5 0 -7 5 -4 10 3 6 8 10 11 10 2 0 4 -4 4 -10z m200 -141 c0 -6 -4
-7 -10 -4 -5 3 -10 11 -10 16 0 6 5 7 10 4 6 -3 10 -11 10 -16z m-395 -59 c3
-5 -1 -10 -9 -10 -9 0 -16 5 -16 10 0 6 4 10 9 10 6 0 13 -4 16 -10z m98 -50
c-3 -11 -9 -22 -13 -25 -11 -7 -8 29 4 37 15 10 15 11 9 -12z m3967 -110 c-24
-16 -31 -11 -19 11 8 16 14 18 22 10 9 -9 8 -14 -3 -21z m-3487 1 c3 -13 1
-18 -9 -14 -7 2 -10 11 -7 19 7 19 10 18 16 -5z m3507 -66 c0 -8 -4 -15 -10
-15 -5 0 -7 7 -4 15 4 8 8 15 10 15 2 0 4 -7 4 -15z m318 -23 c-4 -22 -46 -28
-54 -8 -4 9 -1 23 6 31 16 19 53 1 48 -23z m-4655 -17 c-3 -9 -8 -14 -10 -11
-3 3 -2 9 2 15 9 16 15 13 8 -4z m4757 -15 c0 -5 -7 -10 -15 -10 -8 0 -15 5
-15 10 0 6 7 10 15 10 8 0 15 -4 15 -10z m77 -112 c-3 -8 -6 -5 -6 6 -1 11 2
17 5 13 3 -3 4 -12 1 -19z m13 -58 c0 -5 -4 -10 -9 -10 -6 0 -13 5 -16 10 -3
6 1 10 9 10 9 0 16 -4 16 -10z m315 -19 c3 -5 1 -12 -4 -15 -13 -8 -42 4 -35
15 7 12 31 12 39 0z"/>
<path d="M7532 13260 l-19 -37 44 -2 c29 -1 42 2 38 9 -4 6 -2 16 4 23 13 17
-2 40 -27 42 -14 1 -26 -10 -40 -35z"/>
<path d="M8489 14794 c-9 -11 -10 -20 -2 -32 12 -21 6 -44 -10 -36 -7 3 6 -10
28 -30 l40 -36 19 38 c17 34 24 97 11 110 -2 3 -12 -1 -20 -8 -12 -10 -19 -10
-27 -2 -16 16 -23 15 -39 -4z"/>
<path d="M8520 14579 c0 -5 5 -7 10 -4 6 3 10 8 10 11 0 2 -4 4 -10 4 -5 0
-10 -5 -10 -11z"/>
<path d="M9630 14450 c0 -23 27 -56 37 -46 10 9 -10 59 -24 64 -8 2 -13 -5
-13 -18z"/>
<path d="M9745 14220 c4 -6 11 -8 16 -5 14 9 11 15 -7 15 -8 0 -12 -5 -9 -10z"/>
<path d="M9864 13976 c-4 -11 -1 -21 7 -27 17 -11 26 18 10 34 -7 7 -12 5 -17
-7z"/>
<path d="M9756 13941 c-9 -14 4 -41 19 -41 22 0 26 29 5 40 -11 6 -21 6 -24 1z"/>
<path d="M8260 13936 c0 -2 7 -7 16 -10 8 -3 12 -2 9 4 -6 10 -25 14 -25 6z"/>
<path d="M8370 13926 c0 -9 -5 -16 -11 -16 -5 0 -7 5 -4 10 3 6 1 10 -4 10
-14 0 -14 -17 0 -26 6 -3 18 0 26 9 10 10 11 17 4 21 -6 4 -11 0 -11 -8z"/>
<path d="M8265 13900 c3 -5 8 -10 11 -10 2 0 4 5 4 10 0 6 -5 10 -11 10 -5 0
-7 -4 -4 -10z"/>
<path d="M8410 13866 c0 -31 6 -34 13 -6 3 11 1 23 -4 26 -5 3 -9 -6 -9 -20z"/>
<path d="M7705 13670 c3 -6 -4 -10 -16 -10 -37 0 -8 -19 44 -29 36 -6 49 -5
58 6 14 16 5 27 -29 38 -15 4 -22 3 -20 -5 2 -7 -3 -15 -11 -18 -10 -3 -12 0
-8 12 4 10 1 16 -9 16 -8 0 -12 -4 -9 -10z m85 -20 c0 -5 -7 -10 -15 -10 -8 0
-15 5 -15 10 0 6 7 10 15 10 8 0 15 -4 15 -10z"/>
<path d="M7517 13516 c-4 -10 -3 -15 3 -11 6 3 10 2 10 -3 0 -6 7 -12 15 -16
9 -3 15 0 15 9 0 8 -6 15 -14 15 -8 0 -16 5 -18 12 -3 7 -7 5 -11 -6z"/>
<path d="M7470 13504 c0 -8 5 -12 10 -9 6 3 10 10 10 16 0 5 -4 9 -10 9 -5 0
-10 -7 -10 -16z"/>
<path d="M7359 13458 c-1 -7 -1 -17 0 -21 1 -4 -6 -10 -14 -13 -8 -4 -15 -14
-15 -23 1 -12 5 -11 20 8 11 12 18 27 15 31 -3 5 0 10 7 12 9 3 9 6 0 12 -7 4
-13 2 -13 -6z"/>
<path d="M10810 13370 c0 -5 5 -10 10 -10 6 0 10 5 10 10 0 6 -4 10 -10 10 -5
0 -10 -4 -10 -10z"/>
<path d="M8370 13325 c0 -8 4 -15 10 -15 5 0 7 7 4 15 -4 8 -8 15 -10 15 -2 0
-4 -7 -4 -15z"/>
<path d="M10987 13308 c-7 -26 -9 -23 26 -32 32 -8 47 15 27 39 -18 22 -47 18
-53 -7z"/>
<path d="M10790 13306 c0 -24 15 -26 28 -5 11 16 9 19 -8 19 -11 0 -20 -6 -20
-14z"/>
<path d="M6877 13116 c-18 -21 -21 -38 -10 -49 10 -10 53 33 53 53 0 23 -24
21 -43 -4z"/>
<path d="M11904 12785 c-15 -11 -16 -14 -4 -15 21 0 44 16 33 23 -6 4 -19 0
-29 -8z"/>
<path d="M6756 12614 c-4 -9 -4 -19 -1 -22 3 -3 5 0 5 7 0 7 4 9 10 6 6 -3 7
1 4 9 -8 20 -10 20 -18 0z"/>
<path d="M6354 12507 c-14 -16 10 -55 42 -67 32 -12 63 -2 57 19 -6 22 -33 23
-34 2 0 -9 -7 1 -16 22 -16 38 -30 45 -49 24z"/>
<path d="M12023 12427 c-36 -11 -42 -21 -18 -31 8 -3 15 -15 15 -26 0 -37 45
-14 63 33 9 24 -21 36 -60 24z"/>
<path d="M6278 12313 c7 -3 16 -2 19 1 4 3 -2 6 -13 5 -11 0 -14 -3 -6 -6z"/>
<path d="M6100 12252 c0 -11 -12 -24 -27 -31 l-27 -13 24 -19 c20 -14 21 -19
8 -19 -20 0 -28 -12 -38 -56 -9 -39 -3 -42 28 -14 12 11 25 20 30 20 23 0 49
40 45 67 -3 15 -5 40 -6 56 0 20 -5 27 -18 27 -12 0 -19 -7 -19 -18z"/>
<path d="M12245 12250 c-19 -21 -45 -27 -45 -11 0 16 -26 19 -64 8 -28 -9 -39
-19 -45 -42 -4 -16 -4 -35 0 -41 16 -20 89 -36 133 -28 63 10 131 88 105 120
-17 20 -63 17 -84 -6z"/>
<path d="M12025 12249 c-4 -5 -22 -9 -40 -8 -46 4 -65 -15 -65 -67 0 -23 4
-45 9 -48 4 -3 40 4 78 16 l71 21 -15 44 c-16 46 -28 60 -38 42z"/>
<path d="M5915 12225 c21 -17 37 -15 43 3 2 8 -8 12 -30 12 -31 -1 -32 -1 -13
-15z"/>
<path d="M5950 12176 c0 -17 24 -27 45 -20 14 6 13 8 -2 20 -23 17 -43 18 -43
0z"/>
<path d="M12627 12162 c-21 -23 -22 -71 -2 -78 20 -8 10 -22 -30 -38 -18 -8
-38 -24 -45 -35 -7 -13 -21 -21 -38 -21 -15 -1 -42 -14 -61 -30 -32 -27 -34
-31 -22 -56 8 -19 9 -30 1 -38 -5 -5 -10 -21 -10 -34 0 -20 4 -22 23 -17 12 4
32 13 44 21 19 12 22 12 28 -6 3 -10 16 -20 27 -22 22 -3 41 -43 39 -85 0 -15
4 -20 17 -16 22 5 61 -52 80 -115 9 -31 18 -42 30 -41 9 1 30 -1 45 -6 20 -5
33 -3 47 10 22 20 62 13 42 -7 -7 -7 -12 -20 -12 -29 0 -10 -7 -24 -15 -33
-12 -12 -13 -20 -3 -40 6 -15 20 -26 30 -26 25 0 100 50 95 64 -3 6 2 27 10
46 13 32 12 36 -4 50 -11 8 -20 18 -21 22 -2 4 -5 14 -8 21 -2 7 4 35 15 60
17 38 18 52 9 72 -9 20 -8 28 5 43 10 10 17 35 17 55 0 33 -3 37 -25 37 -14 0
-25 6 -26 13 -1 6 -2 20 -3 29 0 10 -4 18 -8 18 -4 1 -23 7 -42 15 -18 8 -36
11 -40 8 -3 -4 -17 3 -29 16 -15 13 -30 19 -40 15 -10 -3 -24 -3 -33 0 -13 5
-14 9 -4 21 7 8 21 15 31 15 29 0 33 19 7 43 -13 12 -36 39 -52 60 -32 42 -45
45 -69 19z"/>
<path d="M12260 12095 c0 -8 5 -15 10 -15 6 0 10 7 10 15 0 8 -4 15 -10 15 -5
0 -10 -7 -10 -15z"/>
<path d="M5910 12000 c-12 -23 -6 -40 15 -40 16 0 29 35 20 50 -10 16 -23 12
-35 -10z"/>
<path d="M13341 11579 c-15 -6 -21 -15 -17 -24 4 -10 -1 -15 -14 -15 -30 0
-24 -13 15 -32 66 -33 116 17 63 63 -11 11 -21 19 -22 18 -1 0 -12 -5 -25 -10z"/>
<path d="M13342 11469 c-27 -10 -36 -28 -56 -106 -18 -74 -16 -96 8 -87 24 9
28 -15 7 -42 -35 -44 -19 -116 21 -101 7 2 21 -2 30 -11 16 -13 18 -12 27 10
17 45 81 55 81 13 0 -20 5 -25 25 -25 28 0 32 12 10 30 -8 7 -15 19 -15 26 0
8 -9 15 -20 15 -11 1 -26 2 -32 3 -23 2 -21 44 2 51 23 7 50 -9 50 -31 0 -8 5
-14 10 -14 6 0 10 9 10 20 0 10 11 39 25 64 14 25 25 58 25 74 0 26 -3 29 -21
25 -14 -4 -31 4 -55 28 -19 18 -34 38 -34 45 0 14 -71 23 -98 13z"/>
<path d="M13740 11470 c-8 -5 -27 -10 -42 -10 -32 0 -63 -36 -72 -83 -3 -19
-17 -44 -31 -57 -34 -32 -33 -59 0 -52 42 8 30 -22 -17 -44 -42 -18 -43 -21
-45 -69 -3 -61 13 -77 67 -69 49 8 123 -29 115 -57 -5 -14 1 -22 19 -31 14 -6
26 -17 26 -24 0 -6 13 -17 29 -22 27 -10 29 -13 24 -51 -7 -48 2 -87 21 -94
16 -7 114 74 109 89 -5 16 50 72 82 84 34 13 48 4 41 -26 -9 -36 31 -33 45 3
12 32 4 57 -16 49 -18 -7 -26 6 -15 23 9 16 -17 51 -38 51 -11 0 -13 11 -7 55
3 30 4 64 0 75 -7 24 -37 26 -59 5 -21 -22 -39 -19 -31 5 7 21 3 23 -44 24
-18 1 -32 13 -51 46 -14 25 -38 51 -53 58 -29 14 -35 40 -15 72 21 33 -11 70
-42 50z m220 -320 c0 -13 -30 -13 -50 0 -11 7 -7 10 18 10 17 0 32 -4 32 -10z
m-82 -104 c4 -20 -15 -46 -34 -46 -17 0 -18 24 -3 51 12 23 32 20 37 -5z"/>
<path d="M13080 11284 c0 -8 5 -12 10 -9 6 3 10 10 10 16 0 5 -4 9 -10 9 -5 0
-10 -7 -10 -16z"/>
<path d="M13165 11231 c-7 -12 12 -24 25 -16 11 7 4 25 -10 25 -5 0 -11 -4
-15 -9z"/>
<path d="M6722 11100 c-7 -12 -24 -25 -37 -30 -32 -12 -34 -42 -2 -39 12 2 32
-1 44 -5 13 -4 30 -2 42 6 17 10 23 9 39 -5 26 -23 39 -21 58 8 16 25 16 27
-5 46 -20 19 -22 19 -38 4 -15 -16 -18 -16 -32 3 -24 30 -54 35 -69 12z"/>
<path d="M6890 11072 c0 -14 11 -21 26 -15 8 3 11 9 8 14 -7 11 -34 12 -34 1z"/>
<path d="M6757 10984 c-9 -9 25 -75 37 -71 19 6 19 38 0 58 -18 20 -27 23 -37
13z"/>
<path d="M14205 10980 c3 -5 13 -10 21 -10 8 0 14 5 14 10 0 6 -9 10 -21 10
-11 0 -17 -4 -14 -10z"/>
<path d="M6575 10972 c-17 -12 -45 -69 -45 -91 0 -26 20 -27 41 -2 14 16 24
17 80 9 77 -10 85 -8 92 28 11 61 -25 75 -49 19 -8 -19 -16 -35 -18 -35 -2 0
-19 7 -37 15 -31 13 -32 15 -12 21 21 6 21 6 2 25 -20 20 -37 24 -54 11z"/>
<path d="M14396 10899 c-14 -11 -32 -19 -39 -16 -7 2 -20 1 -29 -2 -16 -6 -16
-8 -2 -36 9 -17 21 -46 28 -66 12 -34 11 -37 -21 -69 l-33 -34 30 -31 c16 -17
30 -35 30 -40 -1 -20 -40 -57 -55 -51 -18 6 -20 -16 -5 -45 8 -14 21 -19 55
-19 43 0 46 -2 61 -40 9 -22 22 -40 29 -40 8 0 11 -8 8 -20 -6 -22 8 -26 38
-9 12 6 28 8 36 5 14 -6 14 -8 -1 -24 -9 -10 -16 -23 -16 -29 0 -9 43 -23 75
-24 46 -1 92 29 82 55 -4 9 7 24 28 41 31 23 33 28 24 53 -7 19 -7 28 1 30 13
5 40 67 40 93 0 12 -11 24 -27 30 -15 6 -31 15 -35 21 -5 9 -10 8 -21 0 -18
-16 -27 3 -27 58 0 21 -8 47 -17 59 -16 19 -22 20 -57 10 -44 -12 -38 -19 -96
90 -19 35 -40 66 -46 68 -6 2 -23 -6 -38 -18z m112 -158 c23 -14 10 -46 -19
-49 -32 -4 -47 32 -21 48 21 12 24 12 40 1z m142 -191 c0 -5 -4 -10 -10 -10
-5 0 -10 5 -10 10 0 6 5 10 10 10 6 0 10 -4 10 -10z m-10 -84 c0 -3 -4 -8 -10
-11 -5 -3 -10 -1 -10 4 0 6 5 11 10 11 6 0 10 -2 10 -4z"/>
<path d="M14172 10879 c-16 -26 -16 -26 28 -31 27 -2 35 1 38 16 8 37 -45 49
-66 15z"/>
<path d="M14566 10845 c-6 -17 17 -31 34 -20 8 5 8 11 -1 21 -15 18 -25 18
-33 -1z"/>
<path d="M14205 10810 c-3 -5 -1 -10 4 -10 6 0 11 5 11 10 0 6 -2 10 -4 10 -3
0 -8 -4 -11 -10z"/>
<path d="M14106 10720 c1 -16 2 -41 3 -54 1 -32 38 -38 69 -11 22 18 22 20 6
32 -13 10 -15 16 -7 24 20 20 3 39 -36 39 -34 0 -36 -2 -35 -30z"/>
<path d="M3614 10613 c-7 -5 -20 -26 -31 -48 -15 -33 -23 -39 -43 -37 -32 3
-70 -17 -70 -37 0 -9 -7 -27 -16 -40 -10 -14 -13 -26 -7 -30 6 -3 17 -20 26
-37 15 -28 15 -33 2 -44 -24 -20 -16 -80 10 -80 6 0 20 -9 30 -20 25 -28 36
-25 75 15 19 19 41 35 49 35 27 0 91 66 91 94 0 15 5 26 10 26 6 0 10 -9 10
-19 0 -29 17 -35 26 -9 4 15 1 26 -12 37 -11 9 -18 26 -16 39 4 27 22 29 22 2
0 -16 7 -20 35 -20 33 0 35 2 35 34 0 19 -5 38 -11 41 -7 5 -2 15 13 29 l23
21 -50 3 c-29 2 -58 10 -68 20 -11 9 -31 17 -46 18 -14 0 -37 4 -51 7 -14 4
-30 4 -36 0z m1 -93 c0 -7 -6 -15 -12 -17 -8 -3 -13 4 -13 17 0 13 5 20 13 18
6 -3 12 -11 12 -18z"/>
<path d="M14160 10581 c0 -9 5 -23 10 -31 12 -19 44 -2 48 26 2 15 -4 19 -28
20 -21 1 -30 -3 -30 -15z"/>
<path d="M14851 10464 c0 -11 3 -14 6 -6 3 7 2 16 -1 19 -3 4 -6 -2 -5 -13z"/>
<path d="M14922 10408 c-7 -7 -7 -17 0 -34 12 -25 22 -24 38 6 8 15 6 21 -8
29 -13 7 -22 7 -30 -1z"/>
<path d="M15187 10360 c-14 -11 -30 -20 -35 -20 -17 0 -45 -135 -33 -158 8
-15 7 -23 -4 -32 -8 -7 -15 -23 -15 -37 0 -13 -9 -42 -20 -63 -17 -33 -25 -40
-51 -40 -17 0 -39 5 -49 10 -18 10 -18 12 12 40 35 34 34 37 -10 46 -25 5 -33
3 -38 -12 -9 -25 -55 -63 -76 -64 -28 0 -39 -32 -22 -64 7 -16 12 -31 10 -35
-6 -8 -45 -6 -69 4 -12 5 -32 1 -54 -9 -28 -13 -38 -14 -49 -5 -11 9 -18 9
-26 1 -16 -16 -43 -15 -58 2 -12 16 -35 14 -112 -7 -60 -16 -63 -20 -48 -57
17 -41 1 -60 -43 -51 -27 6 -32 11 -35 40 -3 30 -1 32 24 29 33 -4 44 18 13
27 -15 5 -26 2 -34 -9 -7 -8 -23 -17 -36 -18 -19 -2 -25 2 -27 22 -2 14 -9 30
-17 36 -7 5 -13 19 -12 30 3 26 -36 31 -60 6 -34 -36 -51 -34 -93 8 -22 22
-47 40 -55 40 -8 0 -38 -23 -67 -51 -45 -44 -56 -50 -81 -45 -17 3 -35 13 -42
23 -8 11 -14 13 -19 5 -11 -18 -24 -14 -31 8 -7 21 -14 21 -63 2 -10 -4 -13 5
-11 34 4 38 3 39 -26 37 -17 -1 -41 -4 -55 -7 -14 -3 -42 -8 -62 -11 -23 -4
-38 -11 -38 -20 0 -23 -22 -29 -36 -10 -7 9 -16 42 -20 72 -5 46 -11 56 -31
64 -25 9 -47 4 -38 -10 2 -5 0 -23 -5 -41 -8 -27 -6 -40 9 -65 10 -17 15 -37
11 -45 -4 -8 -15 -30 -24 -48 -21 -40 -16 -50 24 -44 24 3 30 1 30 -13 0 -15
-7 -17 -41 -12 -32 4 -42 2 -47 -11 -3 -10 -21 -33 -40 -52 -32 -33 -34 -34
-48 -16 -11 16 -14 16 -19 5 -4 -11 -17 -14 -43 -11 -20 3 -34 1 -29 -4 4 -4
-2 -18 -14 -30 l-21 -23 33 -40 c30 -36 39 -41 77 -41 34 0 48 6 68 27 14 15
28 40 31 55 6 32 20 34 78 13 22 -8 61 -14 87 -15 26 0 49 -4 52 -9 3 -4 24
-11 47 -14 45 -6 59 -19 59 -54 0 -22 26 -43 53 -43 8 0 31 12 53 26 40 28 40
28 70 -22 9 -16 15 -17 38 -6 15 7 25 16 22 21 -3 4 5 6 17 4 12 -2 35 2 51
11 28 14 31 14 52 -9 26 -28 54 -33 54 -9 0 13 3 14 15 4 11 -9 19 -7 40 14
14 14 25 30 25 36 0 5 5 10 10 10 6 0 10 -7 10 -16 0 -9 25 -40 56 -70 49 -46
58 -51 75 -41 21 13 21 13 23 77 1 39 4 45 25 48 35 5 43 -17 21 -53 -22 -36
-12 -55 27 -55 19 0 25 -8 34 -44 10 -42 23 -54 71 -70 12 -3 15 -1 12 9 -8
21 45 63 89 70 20 4 37 11 37 16 0 17 22 9 27 -11 7 -24 42 -37 54 -19 13 21
11 36 -6 43 -16 6 -21 36 -6 36 5 0 13 9 16 21 9 27 30 19 30 -12 0 -18 10
-28 38 -42 21 -9 40 -24 43 -32 4 -8 17 -15 31 -15 25 0 85 28 91 43 9 19 32
5 32 -21 0 -50 49 -72 70 -32 6 11 16 20 22 20 6 0 16 7 22 16 20 26 44 6 52
-42 3 -24 10 -44 14 -44 5 0 10 -10 12 -22 2 -14 15 -27 36 -35 31 -12 33 -12
41 10 8 19 16 24 43 23 18 -1 43 -7 56 -14 12 -7 32 -12 44 -10 20 3 46 -26
64 -72 35 -90 57 -116 89 -104 8 4 27 -2 43 -12 15 -10 30 -18 34 -16 4 1 31
-11 60 -26 53 -28 53 -28 53 -76 0 -29 -6 -52 -14 -59 -11 -9 -13 -9 -8 0 12
19 -35 11 -58 -10 -20 -19 -20 -19 5 -13 24 7 25 7 5 -9 -19 -16 -19 -16 10
-10 l30 6 -24 -21 c-19 -16 -22 -23 -12 -33 7 -7 17 -12 24 -12 7 0 11 -8 9
-18 -2 -9 2 -17 8 -17 19 0 10 -25 -20 -53 -17 -16 -28 -32 -25 -37 3 -4 -5
-10 -16 -13 -12 -3 -19 -12 -17 -19 5 -13 -47 -58 -67 -58 -7 0 -18 -11 -25
-25 -18 -33 -73 -49 -117 -33 -28 10 -36 10 -50 -4 -14 -15 -14 -22 -3 -63 7
-25 17 -48 21 -51 17 -10 9 -39 -13 -49 -13 -6 -24 -20 -26 -32 -3 -23 -26
-31 -37 -13 -7 11 10 45 36 74 24 25 24 55 2 62 -10 3 -26 10 -36 15 -9 5 -28
7 -41 3 -19 -4 -25 -1 -30 21 -10 41 -42 71 -59 56 -12 -9 -16 -8 -21 4 -3 8
-13 15 -23 14 -11 0 -13 -3 -5 -6 6 -2 12 -11 12 -19 0 -8 6 -14 13 -14 6 0 4
-5 -6 -11 -10 -6 -28 -8 -39 -6 -21 6 -66 -17 -81 -40 -11 -18 -27 -16 -27 2
0 8 -7 15 -14 15 -8 0 -27 11 -42 25 -23 21 -28 22 -41 10 -17 -18 -28 -19
-53 -5 -16 9 -18 6 -16 -30 0 -22 5 -40 9 -40 5 0 6 -4 2 -9 -3 -5 2 -16 11
-25 8 -9 12 -20 9 -26 -10 -16 -25 -11 -18 6 5 13 1 15 -18 10 -13 -3 -18 -3
-11 0 16 7 6 24 -15 24 -10 0 -14 -6 -10 -20 3 -11 1 -20 -4 -20 -5 0 -9 8 -9
17 0 22 -10 11 -15 -18 -3 -13 0 -26 6 -30 7 -4 5 -8 -5 -12 -9 -4 -16 -2 -16
3 0 5 -9 8 -20 7 -22 -1 -24 -5 -11 -26 5 -8 16 -11 24 -8 8 3 19 1 25 -5 11
-11 4 -48 -9 -48 -12 0 -11 -27 1 -35 6 -3 14 5 20 19 5 14 14 26 20 26 5 0
10 9 10 20 0 11 5 20 10 20 6 0 10 -12 10 -26 0 -14 4 -23 10 -19 6 4 10 -6
10 -24 0 -16 5 -33 10 -36 6 -4 8 -10 5 -15 -3 -5 0 -12 5 -15 8 -5 6 -13 -5
-25 -11 -13 -13 -20 -5 -25 8 -5 7 -10 -3 -18 -8 -7 -17 -23 -20 -37 -6 -24
-6 -24 9 -5 15 20 15 20 34 -2 15 -20 20 -21 30 -8 7 8 20 15 29 15 9 0 22 5
29 12 9 9 18 9 37 0 36 -17 37 -16 33 25 -2 22 2 38 10 41 6 2 12 12 12 23 0
10 5 19 11 19 5 0 7 6 3 13 -4 6 -3 9 1 4 5 -4 18 2 30 13 12 11 29 18 37 15
22 -9 37 -46 27 -72 -7 -18 -1 -28 26 -55 19 -18 35 -38 35 -45 0 -6 11 -25
24 -40 24 -28 25 -28 43 -8 33 36 53 74 53 99 0 16 7 27 20 31 28 9 53 -13 46
-40 -4 -17 1 -25 20 -33 34 -16 41 -15 48 6 18 50 53 96 80 103 15 4 36 14 45
22 19 17 61 32 79 28 8 -1 20 6 27 15 11 16 17 16 39 6 36 -16 56 -15 78 5 11
10 38 17 71 18 59 2 91 16 107 45 7 13 21 20 41 20 17 0 32 6 35 15 4 9 15 20
26 26 16 9 23 7 35 -10 14 -21 53 -29 53 -12 0 5 15 26 34 45 34 37 63 48 52
21 -4 -10 1 -15 15 -15 13 0 18 -4 13 -12 -5 -7 5 -3 20 10 16 12 41 22 56 22
15 0 33 7 40 15 7 8 26 15 42 15 27 0 30 2 24 26 -8 30 14 53 51 54 24 0 37
15 38 44 0 11 14 28 32 39 30 17 35 18 64 3 30 -15 34 -15 57 0 21 14 25 14
41 0 22 -20 41 -7 50 35 5 25 13 35 29 37 13 2 27 14 32 27 9 24 47 51 57 41
3 -3 14 -1 25 5 21 11 21 56 0 51 -20 -4 -72 27 -72 43 0 8 7 15 15 15 20 0
19 9 -5 30 -15 13 -32 17 -63 13 -56 -6 -69 -11 -62 -22 8 -15 -65 -61 -97
-61 -15 0 -30 -5 -33 -10 -9 -15 -25 -2 -25 21 0 10 -7 19 -15 19 -8 0 -23 5
-34 11 -12 8 -23 9 -36 1 -13 -7 -26 -7 -42 1 -17 7 -27 7 -35 -1 -8 -8 -15
-7 -25 4 -18 18 -39 8 -23 -11 20 -24 30 -87 15 -95 -5 -3 -11 10 -13 28 -2
21 -9 32 -19 32 -12 0 -13 8 -8 40 5 28 3 40 -5 40 -9 0 -10 3 -1 13 6 8 8 17
4 20 -3 4 -1 13 5 20 14 16 6 28 -13 21 -15 -6 -29 38 -14 46 5 4 7 14 3 23
-3 10 -2 23 4 30 5 6 12 24 16 40 5 22 3 27 -13 27 -10 0 -21 7 -25 15 -3 8
-12 15 -20 15 -9 0 -13 6 -10 14 3 7 -2 16 -10 19 -9 4 -13 13 -10 22 5 13 2
15 -19 9 -34 -8 -62 19 -62 60 0 27 -4 31 -27 28 -21 -3 -28 2 -36 27 -11 31
-29 39 -47 22 -6 -5 -29 -11 -52 -13 -33 -3 -43 0 -44 12 -3 96 -16 120 -65
120 -39 0 -41 -5 -16 -33 16 -19 16 -20 -6 -15 -12 4 -20 3 -17 -2 4 -7 -36
-40 -50 -40 -9 0 17 44 34 57 14 11 13 15 -10 38 -20 21 -30 24 -49 17 -16 -6
-38 -3 -73 10 -27 10 -71 23 -98 29 -43 9 -49 14 -49 35 0 14 6 37 13 52 22
44 21 93 -2 99 -12 3 -21 17 -25 37 -10 50 -42 63 -98 38 -27 -11 -57 -17 -76
-14 -34 5 -39 11 -21 29 23 23 -30 108 -61 98 -10 -3 -21 -1 -25 5 -4 6 -15 8
-26 5 -22 -7 -99 32 -99 51 0 6 -7 14 -15 18 -13 5 -13 9 -3 26 11 18 10 23
-5 34 -14 11 -17 27 -16 79 2 91 -8 103 -54 67z m33 -230 c19 -12 1 -45 -25
-45 -26 0 -44 33 -25 45 8 5 20 10 25 10 6 0 17 -5 25 -10z m10 -87 c-1 -11
-26 -43 -34 -43 -3 0 -6 11 -6 25 0 18 5 25 20 25 11 0 20 -3 20 -7z m220
-118 c0 -8 -6 -15 -14 -15 -17 0 -28 14 -19 24 12 12 33 6 33 -9z m-383 -57
c-3 -8 -6 -5 -6 6 -1 11 2 17 5 13 3 -3 4 -12 1 -19z m-265 0 c-9 -9 -15 -9
-24 0 -9 9 -7 12 12 12 19 0 21 -3 12 -12z m-1232 -33 c0 -8 -4 -15 -9 -15
-13 0 -22 16 -14 24 11 11 23 6 23 -9z m440 -20 c12 -13 27 -22 31 -19 5 3 9
1 9 -4 0 -10 -47 -27 -67 -23 -16 2 -26 -16 -13 -24 5 -3 10 -12 10 -20 0 -10
-8 -7 -25 9 -31 28 -31 39 -3 76 26 36 28 36 58 5z m138 -27 c-6 -18 -28 -21
-28 -4 0 9 7 16 16 16 9 0 14 -5 12 -12z m107 -28 c-3 -5 -12 -7 -20 -3 -21 7
-19 13 6 13 11 0 18 -4 14 -10z m83 -20 c12 -16 22 -34 22 -39 0 -27 -65 -33
-82 -7 -14 20 -8 55 10 65 24 15 26 14 50 -19z m141 -65 c-6 -6 -17 -1 -32 13
-18 19 -19 24 -8 31 18 11 55 -29 40 -44z m1201 10 c0 -21 -19 -28 -36 -15
-10 9 -11 16 -3 26 12 15 39 8 39 -11z m105 -45 c14 -22 -7 -69 -36 -84 l-30
-15 7 47 c3 26 8 50 11 55 6 11 41 9 48 -3z m-1145 -22 c0 -18 -2 -20 -9 -8
-6 8 -7 18 -5 22 9 14 14 9 14 -14z m800 -146 c16 -7 20 -25 8 -38 -10 -9 -60
25 -53 36 7 11 23 12 45 2z m411 -590 c7 -19 6 -29 -7 -43 -14 -15 -18 -16
-30 -4 -18 18 -18 25 2 25 8 0 13 4 10 9 -4 5 -3 11 1 14 5 2 3 2 -4 1 -15 -4
-26 12 -18 26 9 15 36 -1 46 -28z m34 -262 c-3 -5 -12 -10 -18 -10 -7 0 -6 4
3 10 19 12 23 12 15 0z m-440 -233 c0 -26 -20 -25 -23 2 -3 16 1 22 10 19 7
-3 13 -12 13 -21z"/>
<path d="M14760 10355 c0 -10 7 -15 18 -13 21 4 19 22 -2 26 -10 2 -16 -3 -16
-13z"/>
<path d="M3760 10320 c0 -5 7 -10 16 -10 8 0 12 5 9 10 -3 6 -10 10 -16 10 -5
0 -9 -4 -9 -10z"/>
<path d="M14530 10260 c0 -5 5 -10 10 -10 6 0 10 5 10 10 0 6 -4 10 -10 10 -5
0 -10 -4 -10 -10z"/>
<path d="M14651 10233 c-11 -12 -12 -20 -3 -34 7 -10 12 -25 12 -33 0 -26 20
-28 50 -4 35 28 38 44 8 54 -13 3 -30 12 -38 19 -12 11 -18 10 -29 -2z"/>
<path d="M15297 10213 c-12 -11 -8 -45 5 -41 17 6 30 48 14 48 -7 0 -16 -3
-19 -7z"/>
<path d="M3057 10158 c-6 -45 1 -48 28 -13 18 21 21 31 12 37 -23 15 -35 8
-40 -24z"/>
<path d="M3386 10173 c-9 -23 21 -54 33 -34 11 18 2 51 -14 51 -7 0 -16 -8
-19 -17z"/>
<path d="M3250 10150 c-10 -18 -8 -26 11 -46 21 -22 23 -23 35 -6 6 10 14 29
15 42 3 21 -1 26 -23 28 -19 2 -30 -3 -38 -18z"/>
<path d="M3166 10143 c-10 -10 -7 -48 4 -59 7 -7 4 -19 -10 -36 -19 -24 -19
-28 -4 -43 14 -14 19 -14 38 -2 17 12 21 24 21 72 0 50 -3 59 -22 66 -11 4
-24 5 -27 2z"/>
<path d="M13262 10118 c-18 -18 -14 -36 9 -43 27 -9 33 -2 25 30 -7 28 -16 31
-34 13z"/>
<path d="M12172 10087 c-6 -7 -11 -21 -13 -31 -2 -10 -13 -24 -24 -30 -11 -6
-22 -14 -25 -18 -13 -16 -54 -13 -58 4 -2 13 1 16 12 12 21 -8 21 10 0 27 -14
11 -19 10 -39 -13 l-22 -26 -26 25 c-21 22 -35 26 -83 26 -52 0 -60 -3 -86
-32 -15 -17 -28 -42 -28 -55 0 -25 -19 -39 -38 -27 -7 4 -8 12 -2 21 17 27 11
30 -54 30 -46 0 -65 4 -69 14 -4 11 -16 13 -41 9 -23 -3 -36 -2 -36 5 0 6 -9
13 -20 17 -14 5 -37 -8 -82 -44 -70 -57 -98 -63 -130 -26 -24 28 -38 32 -38
11 0 -8 -16 -23 -36 -35 l-35 -21 -37 27 c-20 16 -45 37 -54 48 -18 20 -18 20
-47 -15 -25 -29 -33 -33 -48 -24 -14 9 -20 7 -28 -10 -8 -17 -25 -23 -78 -30
-55 -8 -67 -12 -67 -28 0 -10 -2 -18 -4 -18 -14 0 -60 31 -72 49 -22 31 -61
28 -68 -7 -4 -15 -17 -41 -31 -57 -21 -26 -26 -29 -44 -17 -11 6 -31 12 -43
12 -17 0 -19 3 -10 12 18 18 15 58 -5 64 -10 3 -26 10 -35 15 -24 13 -28 12
-28 -8 -1 -41 -16 -46 -51 -14 -29 27 -39 30 -69 25 -19 -4 -45 -13 -57 -21
-25 -17 -56 -5 -74 28 -7 14 -14 18 -21 11 -6 -6 -19 -5 -37 4 -16 8 -48 16
-72 17 -39 3 -44 6 -43 28 2 39 -32 52 -60 23 -9 -8 -16 -26 -16 -39 0 -20 -3
-22 -27 -16 -29 8 -101 -7 -124 -25 -8 -6 -27 -14 -44 -17 -16 -3 -40 -8 -52
-12 -19 -6 -23 -4 -23 15 0 19 -4 21 -27 16 -85 -21 -84 -22 -113 57 -16 45
-55 35 -84 -21 -12 -23 -22 -32 -33 -28 -8 3 -26 9 -39 12 -13 3 -24 9 -24 13
0 10 -56 41 -73 41 -9 0 -23 -8 -33 -17 -15 -16 -18 -15 -36 10 -26 36 -54 34
-94 -8 -32 -34 -54 -45 -54 -26 0 5 -13 19 -29 30 l-29 21 -43 -43 c-27 -26
-61 -48 -89 -56 -47 -14 -69 -34 -70 -63 0 -10 -4 -18 -9 -18 -5 0 -15 -26
-21 -57 -10 -48 -21 -66 -70 -118 -42 -44 -59 -70 -65 -100 -3 -21 -13 -44
-21 -50 -27 -19 -6 -45 35 -45 31 0 40 5 49 26 10 19 18 25 39 22 21 -2 29
-10 35 -36 6 -22 17 -36 36 -43 35 -13 60 1 91 51 24 38 25 38 38 20 10 -15
21 -18 38 -14 16 4 39 -1 63 -14 41 -21 93 -19 113 4 6 8 17 14 23 14 6 0 16
10 21 23 14 31 39 28 43 -5 4 -35 22 -37 22 -2 0 14 3 24 8 22 4 -3 22 -10 40
-17 17 -7 32 -18 32 -24 0 -5 8 -3 18 6 10 10 25 17 33 17 8 0 25 7 37 16 30
20 52 11 52 -21 0 -28 25 -44 43 -26 13 13 93 15 101 2 3 -4 20 -12 38 -16 45
-11 51 -13 66 -14 6 0 12 -8 12 -17 0 -13 7 -15 39 -9 30 5 40 3 45 -10 4 -11
12 -14 26 -10 12 4 27 2 35 -5 10 -8 15 -8 22 4 4 8 21 18 37 22 28 7 28 7 13
-21 -25 -49 10 -108 52 -85 21 11 31 4 31 -21 0 -23 -17 -34 -34 -20 -13 11
-26 5 -26 -10 0 -16 46 -38 67 -33 18 5 21 10 13 24 -15 28 -12 56 7 75 16 16
16 18 0 27 -9 5 -17 20 -17 33 0 20 5 25 25 25 14 0 25 -5 25 -11 0 -7 10 -9
28 -4 15 4 32 8 39 9 21 3 28 16 28 49 0 27 4 32 25 32 22 0 25 -5 28 -44 3
-42 4 -43 15 -20 15 29 64 39 73 14 6 -14 9 -14 29 -1 14 9 27 11 36 5 22 -14
26 -11 38 21 14 42 59 42 95 -1 14 -17 24 -35 21 -39 -9 -15 14 -21 35 -10 16
9 25 8 36 -1 15 -12 14 -14 17 41 3 36 31 32 36 -5 4 -29 4 -30 10 -5 5 16 15
26 30 28 30 5 42 -8 35 -36 -5 -16 -14 -22 -33 -22 -29 -1 -69 -26 -57 -37 4
-4 11 -1 15 6 6 10 10 10 16 2 8 -13 47 -9 86 9 27 12 32 42 15 83 -19 41 28
63 74 35 16 -10 25 -9 52 7 18 10 44 30 58 44 l25 25 10 -35 c14 -47 79 -109
115 -109 7 0 8 6 0 19 -15 28 -13 31 19 31 25 0 30 4 29 23 -1 12 -1 34 0 48
2 24 5 26 35 20 22 -5 32 -13 32 -25 0 -10 10 -22 21 -27 12 -4 31 -19 42 -34
l21 -27 7 27 c5 22 11 25 30 21 12 -3 26 -1 29 5 8 12 55 -47 55 -68 0 -7 5
-13 10 -13 6 0 10 -5 10 -10 0 -7 -14 -9 -37 -5 -29 5 -34 4 -21 -5 22 -14 13
-78 -14 -103 -17 -14 -18 -20 -7 -33 15 -18 54 -11 84 15 24 22 45 17 45 -10
0 -21 -11 -24 -27 -8 -16 16 -35 1 -28 -22 8 -25 -18 -51 -54 -54 -15 -1 -33
-5 -39 -9 -17 -10 -15 -63 3 -70 26 -10 16 -25 -21 -32 -34 -6 -35 -8 -30 -38
8 -41 -9 -90 -46 -137 -32 -42 -35 -64 -11 -73 14 -6 14 -8 1 -19 -9 -6 -19
-28 -22 -47 -4 -24 -16 -41 -36 -55 -16 -11 -34 -32 -39 -47 -9 -26 -8 -28 19
-28 24 0 27 3 23 21 -5 19 -3 21 28 14 38 -9 50 -21 80 -83 26 -51 39 -61 39
-29 0 33 28 87 46 87 7 0 19 -9 26 -20 7 -11 24 -20 38 -20 14 0 34 -6 45 -13
11 -7 40 -19 65 -26 25 -7 53 -17 64 -23 13 -7 21 -6 27 4 13 20 11 96 -3 100
-7 3 -12 26 -13 56 -1 63 -12 76 -67 81 -5 1 -8 6 -8 12 0 7 -7 17 -16 23 -9
7 -12 18 -8 29 9 25 24 21 24 -8 0 -14 2 -25 5 -25 18 0 55 27 66 49 7 14 15
28 16 30 1 2 9 -2 17 -8 22 -19 57 6 50 36 -4 16 3 31 28 56 18 19 41 49 50
66 16 28 20 31 39 21 11 -7 30 -9 41 -7 11 3 29 1 39 -6 26 -16 33 -4 19 37
-8 24 -18 36 -30 36 -11 0 -23 8 -29 17 -7 14 -12 15 -25 4 -13 -11 -16 -9
-21 12 -4 14 -14 28 -22 31 -13 5 -13 9 -2 22 12 14 14 14 27 -3 12 -16 13
-14 7 18 -6 32 -3 39 29 70 37 34 43 62 19 86 -15 17 -43 6 -43 -17 0 -30 -33
-50 -85 -50 -33 0 -52 5 -60 16 -11 16 -15 16 -44 1 -29 -15 -32 -14 -42 4
-14 27 6 52 33 43 14 -4 24 1 34 15 19 27 72 55 104 56 36 0 39 39 6 74 l-25
26 44 24 c32 17 50 35 66 70 13 25 22 49 21 54 -1 4 4 7 11 7 21 0 37 16 42
40 2 13 13 33 24 44 12 13 18 32 16 50 -3 28 -2 28 35 23 21 -3 49 -14 61 -26
27 -25 39 -27 39 -5 0 9 6 14 13 11 6 -3 19 -8 29 -12 11 -4 29 5 56 29 22 20
49 36 61 36 28 0 28 36 0 43 -17 5 -20 11 -14 36 6 27 4 31 -22 37 -15 4 -34
11 -41 17 -9 7 -16 7 -24 -1 -9 -9 -6 -12 12 -12 17 0 21 -3 13 -11 -8 -8 -23
-5 -56 9 -34 15 -48 17 -55 9z m-862 -168 c0 -11 -4 -18 -10 -14 -5 3 -7 12
-3 20 7 21 13 19 13 -6z m410 4 c0 -5 -5 -15 -10 -23 -8 -12 -10 -11 -10 8 0
12 5 22 10 22 6 0 10 -3 10 -7z m-2552 -75 c-6 -18 -28 -21 -28 -4 0 9 7 16
16 16 9 0 14 -5 12 -12z m782 2 c0 -5 -4 -10 -10 -10 -5 0 -10 5 -10 10 0 6 5
10 10 10 6 0 10 -4 10 -10z m1310 -15 c0 -8 -4 -15 -10 -15 -5 0 -10 7 -10 15
0 8 5 15 10 15 6 0 10 -7 10 -15z m367 -45 c4 -22 -34 -80 -52 -80 -9 0 -15 9
-15 25 0 16 -6 25 -15 25 -8 0 -15 -9 -15 -20 0 -21 -15 -27 -25 -9 -9 14 42
60 59 53 7 -3 16 2 20 11 7 20 40 16 43 -5z m55 -30 c-6 -11 -12 -29 -12 -40
0 -12 -9 -24 -22 -29 -32 -12 -42 -3 -23 22 8 12 23 37 32 55 12 22 20 29 27
22 7 -7 7 -17 -2 -30z m-1067 -81 c0 -7 -8 -15 -17 -17 -18 -3 -25 18 -11 32
10 10 28 1 28 -15z m951 -6 c7 -10 14 -31 14 -47 0 -28 -1 -29 -20 -11 -22 20
-34 50 -25 65 9 14 16 13 31 -7z m-198 -45 c5 -7 13 -24 17 -38 7 -23 7 -23
-9 -7 -10 9 -22 17 -27 17 -5 0 -9 9 -9 20 0 23 13 26 28 8z m-453 -28 c-5 -8
-11 -8 -17 -2 -6 6 -7 16 -3 22 5 8 11 8 17 2 6 -6 7 -16 3 -22z m85 9 c0 -5
-4 -9 -10 -9 -5 0 -10 7 -10 16 0 8 5 12 10 9 6 -3 10 -10 10 -16z m690 -9 c0
-5 -4 -10 -10 -10 -5 0 -10 5 -10 10 0 6 5 10 10 10 6 0 10 -4 10 -10z m-1550
-40 c0 -11 -4 -20 -10 -20 -5 0 -10 9 -10 20 0 11 5 20 10 20 6 0 10 -9 10
-20z m-480 -6 c0 -8 -5 -12 -10 -9 -6 4 -8 11 -5 16 9 14 15 11 15 -7z m446
-41 c-10 -10 -19 5 -10 18 6 11 8 11 12 0 2 -7 1 -15 -2 -18z m1584 8 c0 -13
-26 -32 -33 -24 -14 13 -6 33 13 33 11 0 20 -4 20 -9z m-1460 -15 c0 -18 -15
-36 -31 -36 -17 0 -18 3 -9 20 9 17 40 29 40 16z m1418 -59 c2 -9 8 -17 13
-17 6 0 7 -5 4 -11 -5 -7 -14 -5 -29 5 -12 8 -33 16 -46 18 -42 6 -33 24 12
23 32 -1 44 -5 46 -18z m-100 -39 c4 -33 -21 -39 -38 -9 -16 30 -12 43 13 39
16 -2 23 -11 25 -30z m290 -99 c2 -13 -10 -23 -61 -47 -5 -2 -4 4 2 14 5 11
12 27 15 37 7 22 39 19 44 -4z m-32 -94 c5 -11 11 -12 24 -5 24 13 60 13 60 1
0 -6 -10 -22 -23 -37 -25 -29 -52 -29 -91 -1 -15 11 -17 17 -7 35 14 25 29 28
37 7z m-196 -114 c0 -12 -20 -25 -27 -18 -7 7 6 27 18 27 5 0 9 -4 9 -9z m0
-101 c0 -5 -7 -10 -15 -10 -8 0 -15 5 -15 10 0 6 7 10 15 10 8 0 15 -4 15 -10z
m-30 -160 c0 -11 -7 -20 -15 -20 -15 0 -21 21 -8 33 12 13 23 7 23 -13z m40
-74 c0 -11 -19 -15 -25 -6 -3 5 1 10 9 10 9 0 16 -2 16 -4z"/>
<path d="M12445 10080 c-3 -5 -1 -10 4 -10 6 0 11 5 11 10 0 6 -2 10 -4 10 -3
0 -8 -4 -11 -10z"/>
<path d="M12623 10051 c-3 -12 -13 -21 -24 -21 -10 0 -20 -4 -24 -9 -3 -5 -19
-12 -35 -16 -35 -8 -37 -15 -10 -40 11 -10 17 -21 14 -26 -3 -5 2 -19 10 -31
8 -13 18 -47 22 -76 5 -42 3 -56 -10 -71 -10 -11 -13 -22 -8 -25 6 -3 17 5 26
19 13 20 22 24 44 19 42 -11 66 -31 78 -67 13 -40 44 -50 44 -14 0 13 9 32 20
42 28 25 25 32 -15 39 -31 6 -51 26 -25 26 9 0 29 39 45 89 6 20 4 22 -13 17
-38 -12 -40 67 -5 121 9 13 14 23 12 24 -2 1 -20 2 -39 4 -19 1 -50 5 -68 9
-29 7 -34 5 -39 -13z"/>
<path d="M13137 10064 c-3 -3 -3 -12 -1 -19 3 -7 -2 -25 -12 -40 -12 -19 -23
-25 -38 -21 -26 6 -54 -8 -37 -19 9 -5 9 -10 1 -20 -17 -20 -2 -38 26 -32 13
2 32 -1 41 -8 14 -11 15 -18 7 -46 -18 -58 5 -79 41 -39 10 11 22 17 26 14 5
-3 9 -1 9 3 0 5 18 29 40 53 22 24 40 47 40 51 0 4 -16 22 -35 40 -19 19 -35
41 -35 51 0 26 -55 50 -73 32z"/>
<path d="M12420 10039 c0 -11 5 -17 10 -14 6 3 10 13 10 21 0 8 -4 14 -10 14
-5 0 -10 -9 -10 -21z"/>
<path d="M13265 10040 c-10 -17 20 -44 40 -36 9 3 15 14 13 23 -4 21 -43 30
-53 13z"/>
<path d="M6505 9988 c-27 -22 -52 -45 -54 -52 -2 -6 -8 -14 -13 -17 -5 -3 -13
-22 -17 -41 -7 -29 -4 -39 16 -62 22 -26 24 -27 53 -12 21 10 46 13 78 9 69
-8 74 -16 46 -67 -29 -52 -58 -63 -95 -36 -27 19 -27 19 -45 -1 -15 -17 -16
-24 -6 -39 17 -27 15 -30 -13 -30 -31 0 -33 -22 -5 -50 14 -14 20 -33 20 -58
0 -20 0 -46 0 -57 1 -11 -2 -31 -5 -44 -5 -21 -10 -23 -42 -18 -21 4 -49 0
-69 -8 -31 -13 -33 -17 -27 -46 5 -28 4 -31 -16 -25 -11 3 -30 8 -40 12 -15 4
-24 -3 -35 -25 -20 -37 -20 -61 -2 -61 14 0 23 -25 34 -100 7 -43 8 -45 45
-48 34 -3 37 -5 32 -30 -5 -25 -5 -25 6 -6 14 27 50 44 93 44 57 0 64 -26 41
-152 -2 -9 4 -18 14 -21 14 -3 19 -19 24 -66 4 -34 10 -73 13 -86 5 -20 3 -24
-9 -19 -11 4 -18 -7 -28 -45 -14 -57 -29 -67 -29 -21 0 55 -64 51 -65 -3 -1
-15 -4 -29 -8 -33 -13 -13 -7 -24 19 -34 14 -6 28 -19 31 -31 8 -28 27 -18 33
16 5 27 6 28 23 11 14 -14 15 -21 6 -32 -6 -8 -11 -32 -11 -55 1 -32 -3 -42
-17 -46 -13 -3 -20 -18 -25 -50 -7 -52 4 -73 40 -73 12 0 25 -4 28 -8 9 -15
-6 -52 -21 -52 -8 0 -11 -4 -8 -10 12 -19 35 -10 45 16 9 23 14 26 42 20 17
-3 36 -2 42 2 6 5 32 15 58 22 80 21 88 54 22 91 -21 12 -29 23 -29 45 -1 22
-6 30 -23 32 -19 3 -21 7 -15 48 5 37 2 47 -13 59 -10 7 -16 17 -11 21 4 4 7
2 7 -4 0 -20 25 -14 48 11 26 27 28 47 7 47 -15 0 -37 41 -34 64 3 22 -23 76
-37 76 -18 0 -18 5 3 37 17 25 16 26 -12 51 l-29 25 23 18 23 19 -25 53 c-24
53 -24 54 -5 77 17 21 17 25 4 32 -20 11 -21 47 -1 54 18 7 62 -42 69 -78 7
-36 18 -35 36 5 8 17 24 34 35 36 21 3 55 29 55 42 0 4 -14 11 -32 14 -18 4
-40 12 -49 18 -13 8 -21 6 -34 -7 -23 -22 -50 -4 -35 24 6 10 10 21 10 23 0 9
-59 29 -68 23 -5 -3 -15 1 -22 9 -11 13 -9 20 10 40 29 31 22 49 -21 49 -31 1
-34 4 -34 31 0 24 5 31 23 33 28 4 39 27 22 47 -24 29 -5 41 70 43 39 0 80 -4
89 -10 14 -8 23 -5 45 17 25 25 28 34 24 77 -4 41 -2 50 15 59 11 6 16 14 11
18 -8 5 -11 50 -6 89 2 15 32 16 32 1 0 -6 -4 -18 -10 -28 -7 -14 -4 -23 14
-40 28 -26 35 -19 40 36 2 23 9 39 18 41 8 1 19 20 24 41 8 30 7 46 -7 79 -10
23 -22 42 -26 41 -4 0 -26 -11 -48 -24 -87 -52 -82 -51 -107 -19 -58 73 -70
76 -94 17 -17 -39 -34 -35 -34 7 0 19 -7 33 -19 40 -25 13 -18 16 -76 -32z
m-45 -127 c0 -6 -4 -13 -10 -16 -5 -3 -10 1 -10 9 0 9 5 16 10 16 6 0 10 -4
10 -9z m70 -505 c0 -11 -19 -15 -25 -6 -3 5 1 10 9 10 9 0 16 -2 16 -4z m58
-620 l33 -24 -26 -6 c-28 -7 -72 24 -60 43 9 16 17 14 53 -13z m12 -96 c0 -5
-2 -10 -4 -10 -3 0 -8 5 -11 10 -3 6 -1 10 4 10 6 0 11 -4 11 -10z m-12 -138
c2 -7 -6 -12 -17 -12 -21 0 -27 11 -14 24 9 9 26 2 31 -12z m72 -41 c0 -11 -5
-23 -10 -26 -6 -4 -10 -16 -8 -28 3 -18 -3 -23 -31 -25 -31 -3 -33 -2 -22 12
8 9 20 16 28 16 12 0 12 3 -1 22 -24 34 -20 48 14 48 23 0 30 -5 30 -19z"/>
<path d="M7232 9986 c-17 -28 -26 -34 -68 -39 -43 -4 -52 -2 -83 24 -20 16
-41 29 -48 29 -7 0 -24 -18 -38 -40 -14 -22 -30 -40 -35 -40 -6 0 -10 -7 -10
-15 0 -13 4 -14 21 -5 39 21 65 -6 34 -36 -8 -8 -12 -21 -9 -29 8 -19 -10 -20
-25 -1 -15 18 -58 8 -64 -15 -4 -14 0 -18 17 -16 17 2 22 -4 24 -32 5 -51 -28
-151 -49 -151 -10 0 -21 5 -24 10 -11 18 -33 10 -37 -14 -4 -18 -1 -22 12 -19
10 3 20 -5 28 -21 14 -30 2 -41 -34 -32 -21 6 -25 3 -22 -11 4 -21 57 -31 68
-12 6 8 18 2 40 -21 l33 -34 19 24 c19 23 21 23 33 7 8 -12 26 -17 60 -17 39
0 52 5 75 30 27 29 73 42 98 26 15 -9 39 3 24 13 -5 3 -12 16 -16 29 -5 16 -3
22 7 22 8 0 17 7 21 15 3 8 15 15 26 15 15 0 20 -7 20 -25 0 -14 -6 -28 -14
-31 -15 -6 -30 -34 -18 -34 17 1 42 29 45 51 5 32 51 34 55 2 4 -25 28 -38 36
-18 4 11 20 13 67 10 34 -2 66 -8 70 -12 5 -5 22 -47 37 -93 26 -76 32 -85 58
-91 39 -8 111 -46 116 -60 3 -9 12 -10 35 -1 21 7 33 7 35 0 2 -6 16 -7 38 -1
28 7 35 14 35 34 0 25 -4 26 -45 14 l-25 -7 24 26 c26 28 50 32 81 16 16 -8
18 -15 10 -35 -11 -28 -7 -32 38 -33 30 -1 33 2 28 21 -3 12 -6 30 -6 39 0 9
-7 24 -16 32 -14 15 -13 17 16 22 30 6 37 29 9 29 -8 0 -15 3 -16 8 -7 18 -2
27 16 27 13 0 21 9 26 30 5 22 16 34 41 45 36 15 43 29 19 39 -25 9 -17 32 17
47 35 15 49 39 24 39 -9 0 -16 5 -16 10 0 6 -7 10 -15 10 -8 0 -15 -5 -15 -11
0 -19 -59 1 -93 32 -23 21 -29 33 -22 43 44 60 46 63 36 90 -6 14 -15 26 -21
26 -5 0 -10 8 -10 19 0 28 -117 76 -164 67 -20 -4 -36 -12 -36 -18 0 -7 -19
-8 -59 -4 -35 4 -62 3 -65 -3 -3 -5 0 -12 6 -14 7 -3 -3 -3 -22 0 -19 3 -42
12 -51 19 -8 8 -27 14 -42 14 -14 0 -29 5 -32 10 -13 21 -45 9 -61 -22 -32
-63 -74 -91 -74 -50 0 17 -48 72 -62 72 -4 0 -14 -7 -22 -15 -14 -14 -17 -14
-33 5 -24 28 -38 25 -61 -14z m138 -52 c0 -8 -4 -12 -10 -9 -5 3 -10 10 -10
16 0 5 5 9 10 9 6 0 10 -7 10 -16z m-185 -24 c-28 -12 -45 -12 -45 0 0 6 15
10 33 9 27 0 29 -2 12 -9z m610 -10 c3 -5 1 -10 -4 -10 -6 0 -11 5 -11 10 0 6
2 10 4 10 3 0 8 -4 11 -10z m-355 -20 c0 -5 -18 -10 -40 -10 -22 0 -40 5 -40
10 0 6 18 10 40 10 22 0 40 -4 40 -10z m-316 -6 c24 -9 19 -21 -10 -28 -32 -8
-41 -1 -24 19 14 17 13 17 34 9z m126 -23 c0 -5 -6 -14 -14 -20 -16 -13 -32 2
-21 19 8 12 35 13 35 1z m554 -293 c13 -21 -2 -51 -26 -56 -16 -3 -33 51 -22
70 9 14 35 6 48 -14z"/>
<path d="M2922 9988 c7 -19 34 -32 54 -24 18 7 17 9 -6 21 -31 18 -53 19 -48
3z"/>
<path d="M8128 9993 c7 -3 16 -2 19 1 4 3 -2 6 -13 5 -11 0 -14 -3 -6 -6z"/>
<path d="M8633 9982 c-18 -12 -4 -99 17 -105 13 -3 18 2 19 17 0 11 2 37 3 56
3 35 -13 49 -39 32z"/>
<path d="M6347 9943 c-13 -12 -7 -23 13 -23 11 0 20 7 20 15 0 15 -21 21 -33
8z"/>
<path d="M8331 9931 c-13 -23 -1 -34 24 -25 18 7 17 35 -2 41 -6 2 -16 -5 -22
-16z"/>
<path d="M8451 9931 c-12 -21 -5 -32 15 -24 16 6 19 43 4 43 -5 0 -14 -8 -19
-19z"/>
<path d="M3057 9926 c-3 -7 -23 -16 -44 -20 -21 -3 -58 -20 -83 -37 -39 -27
-51 -30 -89 -24 -24 4 -52 12 -62 18 -12 8 -27 8 -46 1 -23 -8 -29 -17 -33
-49 -5 -39 -6 -40 -47 -43 -26 -2 -43 -8 -43 -16 0 -6 -16 -30 -36 -52 -31
-33 -43 -39 -78 -39 -39 0 -41 -1 -39 -29 3 -35 -12 -56 -38 -56 -15 0 -17 -5
-12 -30 5 -29 4 -30 -29 -30 -29 0 -39 -7 -66 -45 -18 -25 -32 -54 -32 -65 0
-27 -16 -33 -56 -20 -41 14 -64 1 -64 -34 0 -30 -18 -46 -52 -46 -31 0 -46
-24 -55 -92 -6 -43 -34 -52 -55 -18 -17 26 -25 25 -30 -5 -3 -16 4 -37 19 -60
19 -28 22 -39 13 -50 -6 -8 -9 -23 -5 -34 5 -15 -1 -21 -30 -31 -20 -7 -46 -9
-59 -6 -17 4 -31 -2 -50 -19 -25 -23 -26 -26 -11 -48 8 -13 13 -26 9 -29 -3
-3 6 -18 20 -33 20 -21 27 -24 31 -13 4 11 23 14 70 13 61 -1 65 1 65 22 0 13
4 23 9 23 5 0 24 15 43 33 18 18 55 39 82 47 44 14 50 19 67 65 14 38 16 51 6
58 -9 7 -9 10 2 14 7 3 22 14 33 25 19 19 19 21 2 39 -16 17 -16 19 0 25 10 4
36 3 59 -2 33 -7 43 -14 45 -32 4 -24 22 -31 22 -8 0 7 9 25 21 40 16 20 26
25 45 20 37 -9 55 11 42 47 -6 18 -7 34 -2 39 11 10 116 30 126 24 4 -3 5 2 2
10 -5 12 1 16 24 16 17 0 43 -5 59 -11 22 -8 30 -7 40 7 15 21 -2 52 -32 56
-13 2 -21 12 -23 28 -2 20 4 28 30 39 18 8 39 20 46 27 7 7 19 11 27 8 8 -4
18 1 21 10 10 25 36 18 72 -18 29 -29 33 -39 35 -97 2 -67 1 -65 49 -52 12 4
19 -3 24 -21 8 -32 20 -33 35 -3 6 12 13 23 14 25 4 5 69 -29 76 -40 11 -17
100 -5 134 18 11 8 26 14 33 14 8 0 23 11 34 25 13 16 29 25 49 25 22 0 29 5
29 20 0 10 17 36 37 57 25 24 37 44 35 59 -3 22 28 39 45 24 4 -5 26 -5 48 -1
31 5 41 11 43 29 3 18 -1 22 -22 22 -19 0 -26 5 -26 20 0 14 -7 20 -23 20 -13
0 -28 5 -33 10 -7 7 -19 8 -37 1 -23 -9 -27 -16 -27 -53 0 -36 -5 -46 -28 -60
-15 -10 -35 -23 -46 -30 -15 -10 -19 -10 -23 0 -6 14 -33 16 -33 2 0 -5 -7
-10 -15 -10 -15 0 -20 21 -8 34 4 4 9 18 10 31 3 18 -4 28 -26 40 -35 18 -61
20 -61 4 0 -24 -42 -66 -95 -94 -55 -29 -57 -29 -70 -11 -11 15 -22 17 -51 13
l-36 -6 6 48 c6 43 3 53 -19 79 -30 36 -31 53 -5 77 11 10 20 24 20 32 0 7 5
13 10 13 6 0 10 5 10 11 0 11 7 20 66 81 14 15 23 32 19 37 -9 15 -22 14 -28
-3z m-384 -306 c-6 -45 -45 -95 -67 -87 -12 5 -14 11 -7 24 5 10 15 33 22 51
14 40 39 67 49 55 4 -4 5 -24 3 -43z m611 -4 c-3 -9 -10 -13 -15 -10 -5 3 -3
11 4 19 15 16 19 13 11 -9z"/>
<path d="M8730 9904 c-29 -25 -29 -27 -13 -40 10 -7 28 -14 41 -14 17 0 22 6
22 24 0 13 7 27 16 30 8 3 12 10 9 16 -11 18 -43 11 -75 -16z"/>
<path d="M5887 9902 c-28 -14 -47 -47 -47 -83 0 -27 22 -24 52 9 49 52 46 99
-5 74z"/>
<path d="M12440 9900 c0 -15 6 -19 25 -18 30 3 32 13 6 28 -27 14 -31 13 -31
-10z"/>
<path d="M6241 9891 c-8 -5 -12 -18 -9 -29 7 -27 -20 -38 -37 -16 -18 25 -51
0 -81 -63 -14 -29 -32 -57 -39 -63 -20 -17 -74 -30 -80 -20 -9 15 -36 -1 -46
-27 -7 -20 -14 -24 -32 -18 -60 19 -88 -5 -52 -45 12 -13 15 -28 11 -44 -7
-30 9 -43 32 -24 30 25 94 49 113 43 10 -4 19 -14 19 -23 1 -9 11 -29 23 -45
l23 -27 47 36 c26 20 47 41 47 45 0 15 30 10 36 -6 7 -17 59 -21 69 -5 9 14
25 2 25 -18 0 -13 9 -18 35 -19 31 -1 35 2 35 26 0 14 -9 55 -20 89 -25 79
-25 81 0 75 16 -4 20 0 20 20 0 16 -7 27 -17 30 -16 4 -16 5 -1 6 9 0 20 10
23 22 9 26 -28 55 -66 51 -22 -3 -27 2 -32 27 -7 31 -21 38 -46 22z m84 -150
c-6 -21 -25 -29 -25 -11 0 6 5 10 10 10 6 0 10 8 10 17 0 9 3 14 6 10 3 -3 3
-15 -1 -26z"/>
<path d="M6370 9875 c0 -8 4 -15 10 -15 5 0 7 7 4 15 -4 8 -8 15 -10 15 -2 0
-4 -7 -4 -15z"/>
<path d="M4925 9839 c-23 -28 -26 -39 -21 -73 4 -23 15 -48 25 -56 10 -9 23
-26 30 -37 9 -19 8 -24 -11 -37 -12 -9 -43 -19 -69 -22 -39 -5 -46 -9 -42 -25
6 -22 -12 -26 -21 -4 -3 9 -18 15 -37 15 -30 0 -31 2 -25 31 3 17 6 39 6 48 0
11 14 21 45 29 47 13 54 22 31 41 -24 20 -70 10 -74 -17 -3 -20 -7 -22 -40
-17 -67 11 -141 37 -146 51 -3 8 -14 14 -24 14 -17 0 -19 -9 -21 -67 -2 -79
-11 -94 -35 -59 -9 15 -25 26 -36 26 -19 0 -26 24 -21 67 2 16 -58 28 -72 13
-9 -9 -7 -16 11 -30 12 -10 22 -23 22 -29 0 -16 -46 -13 -60 4 -7 8 -20 15
-30 15 -10 0 -20 6 -23 13 -6 15 -141 52 -160 44 -7 -3 -13 -18 -15 -33 -3
-42 -22 -74 -45 -74 -17 0 -19 -4 -12 -37 11 -61 11 -76 -2 -80 -7 -3 -13 2
-13 10 0 8 -12 18 -27 21 -16 4 -36 9 -45 12 -13 4 -18 0 -18 -15 0 -23 -16
-35 -45 -36 -27 0 -32 -40 -9 -66 20 -23 52 -25 60 -4 4 8 11 15 18 15 6 0 19
9 29 20 10 12 23 17 33 13 13 -5 15 -15 9 -59 -6 -54 0 -65 24 -41 10 10 15 8
26 -7 8 -10 26 -24 40 -32 24 -12 28 -11 72 32 47 45 62 45 63 1 0 -17 6 -18
74 -12 90 9 116 -2 116 -47 0 -18 7 -36 18 -44 18 -14 62 -19 62 -6 0 4 14 15
30 24 17 9 30 24 30 32 0 24 53 54 101 58 41 3 44 5 44 32 0 31 15 42 43 31 9
-4 34 -7 56 -5 23 1 42 -4 47 -11 4 -7 18 -14 31 -14 67 -3 77 -6 81 -22 3
-15 6 -13 17 9 11 23 15 25 36 16 13 -6 33 -30 44 -54 35 -72 57 -77 104 -25
13 14 31 21 57 21 31 0 42 6 61 33 13 17 24 43 25 56 3 37 17 45 57 31 45 -14
60 -6 52 31 -8 42 5 36 48 -21 21 -27 42 -50 46 -50 5 0 18 12 29 26 12 15 21
23 21 18 0 -5 4 -3 9 5 6 10 13 11 29 2 31 -16 37 -14 39 17 3 40 -37 58 -63
28 l-19 -21 -5 34 c-4 29 -10 36 -37 43 -26 7 -33 14 -33 33 0 15 6 25 15 25
7 0 18 7 23 16 6 11 17 15 30 12 33 -9 48 7 36 39 -10 28 -15 29 -65 18 -20
-5 -27 -2 -37 19 -12 26 -54 37 -67 16 -8 -13 -60 -1 -113 27 -29 16 -51 21
-66 17 -11 -4 -30 -8 -41 -8 -11 -1 -24 -11 -30 -24 -11 -25 -67 -47 -93 -37
-9 4 -36 7 -59 6 -34 -2 -44 2 -54 21 -7 13 -13 30 -14 38 0 27 -32 21 -60
-11z m504 -48 c9 -6 10 -10 2 -16 -15 -8 -41 1 -41 15 0 12 20 13 39 1z m-136
-25 c7 -18 -1 -26 -25 -26 -11 0 -18 7 -18 20 0 23 35 28 43 6z m-133 -35 c0
-11 -31 -19 -47 -14 -21 7 -15 21 10 25 25 4 37 1 37 -11z m320 -67 c0 -8 -4
-14 -10 -14 -5 0 -10 9 -10 21 0 11 5 17 10 14 6 -3 10 -13 10 -21z m-743 10
c-3 -3 -12 -4 -19 -1 -8 3 -5 6 6 6 11 1 17 -2 13 -5z m273 2 c0 -3 -4 -8 -10
-11 -5 -3 -10 -1 -10 4 0 6 5 11 10 11 6 0 10 -2 10 -4z m-348 -48 c-7 -7 -12
-8 -12 -2 0 14 12 26 19 19 2 -3 -1 -11 -7 -17z m66 -39 c-18 -11 -32 6 -24
28 7 17 8 17 22 -1 11 -16 11 -21 2 -27z m702 -11 c0 -12 -8 -10 -36 8 -20 13
-22 19 -12 31 10 12 14 11 30 -9 9 -13 18 -26 18 -30z m-729 -121 c-13 -13
-15 1 -4 30 7 17 8 17 11 -1 2 -10 -1 -23 -7 -29z"/>
<path d="M5410 9859 c0 -5 5 -7 10 -4 6 3 10 8 10 11 0 2 -4 4 -10 4 -5 0 -10
-5 -10 -11z"/>
<path d="M12366 9861 c-4 -7 -5 -15 -2 -18 9 -9 19 4 14 18 -4 11 -6 11 -12 0z"/>
<path d="M12347 9814 c-4 -4 -7 -14 -7 -23 0 -11 3 -12 11 -4 6 6 10 16 7 23
-2 6 -7 8 -11 4z"/>
<path d="M12856 9786 c-14 -22 -14 -25 0 -30 21 -8 34 1 34 24 0 29 -16 32
-34 6z"/>
<path d="M12280 9780 c0 -11 6 -20 13 -20 8 0 24 -22 37 -50 26 -55 36 -60 68
-30 24 23 27 35 12 45 -5 3 -10 19 -10 36 0 35 0 34 -45 9 l-36 -20 -9 25
c-11 30 -30 33 -30 5z"/>
<path d="M5840 9770 c0 -5 5 -10 11 -10 5 0 7 5 4 10 -3 6 -8 10 -11 10 -2 0
-4 -4 -4 -10z"/>
<path d="M8603 9737 c-43 -29 -41 -37 6 -37 44 0 55 10 46 40 -8 25 -12 24
-52 -3z"/>
<path d="M3986 9691 c-3 -4 1 -17 9 -27 14 -18 14 -18 15 9 0 26 -13 36 -24
18z"/>
<path d="M4797 9666 c-4 -10 1 -20 14 -27 29 -15 37 -2 12 22 -17 18 -21 19
-26 5z"/>
<path d="M3350 9650 c-22 -6 -23 -8 -7 -15 20 -8 47 0 47 15 0 11 -4 11 -40 0z"/>
<path d="M3905 9650 c3 -5 8 -10 11 -10 2 0 4 5 4 10 0 6 -5 10 -11 10 -5 0
-7 -4 -4 -10z"/>
<path d="M13592 9629 c2 -7 10 -15 17 -17 8 -3 12 1 9 9 -2 7 -10 15 -17 17
-8 3 -12 -1 -9 -9z"/>
<path d="M7440 9538 c0 -5 -1 -11 -2 -14 -2 -4 12 -8 30 -9 25 -2 32 1 32 15
0 13 -8 17 -30 16 -16 -1 -30 -4 -30 -8z"/>
<path d="M7470 9490 c0 -5 5 -10 10 -10 6 0 10 5 10 10 0 6 -4 10 -10 10 -5 0
-10 -4 -10 -10z"/>
<path d="M8154 9463 c2 -21 -1 -44 -6 -50 -15 -18 -2 -44 17 -37 12 5 14 14
10 36 -5 21 -2 35 11 49 16 17 16 22 4 29 -30 19 -41 11 -36 -27z"/>
<path d="M8385 9491 c-6 -5 -21 -11 -34 -13 -34 -4 -49 -32 -32 -59 11 -19 11
-23 -3 -31 -17 -9 -22 -43 -8 -52 20 -12 52 7 52 30 0 30 13 31 32 3 12 -19
17 -20 36 -10 25 13 29 31 7 31 -9 0 -15 9 -15 22 0 19 1 20 18 5 15 -14 19
-14 37 2 23 20 48 61 42 68 -3 2 -14 0 -26 -6 -14 -8 -22 -8 -26 -1 -5 8 -12
7 -22 -2 -12 -10 -17 -9 -28 5 -14 20 -17 20 -30 8z"/>
<path d="M3560 9476 c0 -9 5 -16 10 -16 6 0 10 4 10 9 0 6 -4 13 -10 16 -5 3
-10 -1 -10 -9z"/>
<path d="M8740 9481 c0 -5 5 -13 10 -16 6 -3 10 -2 10 4 0 5 -4 13 -10 16 -5
3 -10 2 -10 -4z"/>
<path d="M3982 9463 c4 -21 33 -25 33 -3 0 8 -8 16 -18 18 -14 3 -18 -1 -15
-15z"/>
<path d="M3785 9450 c-10 -11 -15 -28 -12 -39 3 -11 -1 -25 -9 -32 -8 -6 -14
-18 -14 -26 0 -21 28 -27 48 -11 9 8 25 18 35 21 9 4 17 15 17 26 0 26 17 36
36 20 14 -11 15 -10 12 11 -2 14 -9 24 -16 22 -7 -1 -26 5 -42 13 -36 19 -33
19 -55 -5z"/>
<path d="M8786 9455 c-3 -9 0 -15 9 -15 16 0 20 16 6 24 -5 3 -11 -1 -15 -9z"/>
<path d="M8257 9446 c-6 -16 2 -28 14 -20 12 7 11 34 0 34 -5 0 -11 -6 -14
-14z"/>
<path d="M6770 9410 c0 -6 7 -10 15 -10 8 0 15 2 15 4 0 2 -7 6 -15 10 -8 3
-15 1 -15 -4z"/>
<path d="M2786 9354 c-7 -19 2 -37 15 -29 12 8 12 45 0 45 -5 0 -12 -7 -15
-16z"/>
<path d="M4110 9345 c0 -15 26 -32 36 -23 2 3 2 13 -2 22 -8 20 -34 21 -34 1z"/>
<path d="M2894 9329 c-3 -6 -1 -16 5 -22 8 -8 11 -5 11 11 0 24 -5 28 -16 11z"/>
<path d="M6670 9333 c0 -5 7 -17 15 -27 11 -15 17 -16 28 -8 8 7 18 8 22 4 5
-4 5 -1 1 6 -4 7 -12 10 -17 7 -5 -4 -9 1 -9 9 0 9 -9 16 -20 16 -11 0 -20 -3
-20 -7z"/>
<path d="M3577 9283 c-6 -34 -1 -43 24 -43 25 0 34 22 19 49 -15 29 -37 26
-43 -6z"/>
<path d="M6750 9280 c0 -10 10 -25 23 -31 12 -7 22 -11 22 -9 0 2 22 -2 48 -9
51 -15 63 -11 54 14 -4 10 -19 15 -44 15 -26 0 -44 6 -56 20 -22 26 -47 26
-47 0z"/>
<path d="M11958 9275 c-14 -30 -7 -39 24 -31 37 9 51 23 45 40 -10 26 -56 20
-69 -9z"/>
<path d="M3180 9161 c0 -11 8 -22 19 -26 15 -5 17 -13 13 -58 -2 -28 -11 -59
-18 -68 -8 -8 -14 -20 -14 -26 0 -6 -12 -20 -27 -31 -35 -25 -22 -42 26 -35
22 4 35 12 39 26 5 19 6 19 22 -3 20 -27 42 -19 38 13 -2 18 3 23 30 25 36 4
37 6 21 50 -7 20 -7 37 -1 49 8 14 5 24 -13 41 -12 12 -32 22 -44 22 -11 0
-25 9 -31 20 -14 27 -60 27 -60 1z"/>
<path d="M3390 9163 c0 -5 7 -17 15 -27 14 -19 15 -19 15 7 0 17 -5 27 -15 27
-8 0 -15 -3 -15 -7z"/>
<path d="M1860 9120 c0 -5 5 -10 10 -10 6 0 10 5 10 10 0 6 -4 10 -10 10 -5 0
-10 -4 -10 -10z"/>
<path d="M4770 9074 c0 -8 5 -12 10 -9 6 3 10 10 10 16 0 5 -4 9 -10 9 -5 0
-10 -7 -10 -16z"/>
<path d="M3067 9074 c-3 -3 -4 -12 -1 -20 2 -8 6 -21 9 -29 3 -12 10 -12 36
-3 l31 11 -28 23 c-31 25 -37 27 -47 18z"/>
<path d="M16771 9056 c-9 -11 -7 -15 11 -20 32 -8 68 -7 68 2 0 7 -47 32 -61
32 -3 0 -12 -6 -18 -14z"/>
<path d="M6410 9039 c-19 -4 -41 -6 -47 -4 -27 9 -12 -35 17 -50 38 -19 43
-19 35 4 -4 15 1 21 25 30 18 6 29 15 25 21 -7 11 -7 11 -55 -1z"/>
<path d="M16722 9018 c6 -18 28 -21 28 -4 0 9 -7 16 -16 16 -9 0 -14 -5 -12
-12z"/>
<path d="M2370 8910 c-40 -34 -56 -36 -88 -14 -20 13 -23 14 -28 0 -12 -30 1
-51 41 -64 22 -7 47 -20 57 -28 21 -19 55 -10 63 17 4 10 10 19 15 19 15 0 23
-21 11 -33 -6 -6 -11 -24 -11 -39 0 -25 3 -28 35 -28 24 0 35 5 35 14 0 8 10
16 22 18 12 2 29 16 38 31 14 26 14 29 -2 41 -10 7 -18 18 -18 25 0 6 -6 11
-14 11 -8 0 -18 9 -21 21 -7 22 -42 39 -78 39 -12 0 -38 -14 -57 -30z"/>
<path d="M4445 8919 c-4 -6 -5 -13 -1 -16 8 -8 56 6 56 17 0 13 -47 13 -55 -1z"/>
<path d="M6372 8868 c-19 -19 -15 -25 18 -30 34 -5 43 2 34 26 -7 19 -35 21
-52 4z"/>
<path d="M12150 8870 c0 -5 5 -10 10 -10 6 0 10 5 10 10 0 6 -4 10 -10 10 -5
0 -10 -4 -10 -10z"/>
<path d="M12311 8864 c0 -11 3 -14 6 -6 3 7 2 16 -1 19 -3 4 -6 -2 -5 -13z"/>
<path d="M3025 8850 c-4 -6 -15 -8 -25 -5 -16 5 -31 -12 -34 -37 -1 -4 -11
-15 -24 -24 -13 -9 -22 -23 -20 -32 3 -14 17 -17 76 -18 72 -1 81 3 61 23 -8
8 -6 18 6 37 17 25 17 28 0 46 -20 22 -31 25 -40 10z"/>
<path d="M12230 8831 c0 -35 15 -55 34 -48 10 4 16 18 16 36 0 23 -5 30 -25
33 -22 5 -25 2 -25 -21z"/>
<path d="M3135 8830 c-3 -5 1 -10 9 -10 9 0 16 5 16 10 0 6 -4 10 -9 10 -6 0
-13 -4 -16 -10z"/>
<path d="M2040 8815 c-10 -12 -10 -18 0 -30 21 -25 42 -18 38 12 -4 32 -20 40
-38 18z"/>
<path d="M4390 8790 c0 -23 -4 -30 -20 -30 -11 0 -20 5 -20 12 0 6 -2 9 -5 6
-12 -12 9 -38 31 -38 17 0 27 8 34 26 14 36 12 54 -5 54 -10 0 -15 -10 -15
-30z"/>
<path d="M12155 8811 c-8 -15 14 -53 28 -48 18 6 15 51 -5 55 -9 2 -19 -2 -23
-7z"/>
<path d="M11212 8788 c5 -32 28 -35 28 -4 0 17 -5 26 -16 26 -10 0 -14 -7 -12
-22z"/>
<path d="M11750 8781 c0 -27 10 -51 21 -51 12 0 28 41 22 58 -8 20 -43 14 -43
-7z"/>
<path d="M2600 8759 c0 -5 -8 -9 -17 -8 -34 3 -43 -1 -43 -21 0 -11 -5 -29
-12 -40 -9 -13 -9 -27 -3 -46 12 -35 28 -33 33 3 4 34 17 43 65 43 21 0 47 5
58 10 28 15 24 49 -7 60 -34 13 -74 13 -74 -1z"/>
<path d="M3220 8745 c-7 -8 -19 -15 -27 -15 -20 0 -82 -65 -99 -105 -17 -41
-25 -42 -64 -13 -25 18 -34 20 -54 10 -30 -13 -42 -52 -27 -80 6 -12 11 -31
11 -44 0 -15 13 -32 35 -48 19 -14 35 -31 35 -38 0 -10 5 -10 23 -1 12 7 25
16 28 22 13 19 69 -16 78 -48 6 -25 12 -30 35 -27 17 2 38 -6 57 -22 16 -14
35 -23 42 -21 6 2 31 6 54 9 42 5 42 5 49 -29 5 -28 11 -35 30 -35 12 0 26 -4
29 -10 3 -5 16 -10 28 -10 24 0 47 38 47 76 0 61 51 23 78 -58 14 -45 21 -55
31 -45 9 9 17 5 35 -18 23 -28 24 -29 65 -17 23 7 57 10 76 6 50 -9 84 2 91
31 3 13 12 29 20 35 19 17 75 2 81 -21 5 -16 11 -18 38 -13 31 5 33 4 39 -31
l7 -37 49 6 c28 3 51 2 55 -4 3 -6 22 -10 41 -10 22 0 37 -6 40 -15 8 -21 20
-19 43 7 21 21 21 21 1 35 -29 20 -25 38 17 72 28 23 40 28 50 19 10 -8 13 -6
14 8 1 11 1 23 0 28 -1 4 4 14 10 22 7 8 9 17 5 21 -3 3 -6 1 -6 -5 0 -7 -4
-12 -10 -12 -5 0 -7 6 -4 13 8 22 -24 40 -67 39 -43 -2 -89 -26 -89 -48 0 -28
-68 -5 -95 32 -12 16 -17 17 -34 7 -12 -7 -34 -13 -50 -13 -36 0 -51 18 -40
48 6 16 16 22 38 22 16 0 33 5 36 10 3 6 17 10 30 10 41 0 43 59 1 61 -16 1
-17 2 -3 6 18 5 23 28 8 38 -12 7 -93 -74 -85 -86 3 -5 -2 -9 -10 -9 -18 0
-21 21 -5 37 17 17 7 58 -15 58 -10 0 -22 10 -27 23 -7 19 -15 22 -67 22 -32
0 -85 5 -117 12 -51 10 -58 9 -67 -6 -8 -13 -13 -15 -24 -5 -24 20 -62 2 -83
-39 -11 -21 -27 -44 -35 -51 -24 -20 -10 -31 38 -31 27 0 48 -6 56 -15 7 -8
18 -15 26 -15 18 0 24 -13 17 -38 -3 -13 -24 -30 -52 -43 -25 -13 -49 -27 -53
-33 -4 -6 -8 1 -8 15 0 14 -9 34 -19 43 -11 10 -17 24 -15 31 8 19 -14 29 -32
14 -13 -10 -17 -10 -25 2 -12 19 -11 42 1 34 14 -8 42 14 34 27 -3 5 0 15 6
23 9 11 9 15 1 15 -6 0 -11 -4 -11 -10 0 -5 -9 -10 -20 -10 -11 0 -20 -4 -20
-8 0 -12 -47 -32 -75 -32 -29 0 -33 16 -6 25 10 3 26 20 35 38 15 31 14 32 -7
35 -11 2 -27 11 -33 20 -11 14 -16 15 -33 5 -17 -11 -21 -10 -26 7 -4 12 -21
24 -45 30 -45 12 -52 20 -56 68 -3 33 -19 62 -34 62 -4 0 -13 -7 -20 -15z
m578 -363 c2 -7 -3 -12 -12 -12 -9 0 -16 7 -16 16 0 17 22 14 28 -4z m172 -46
c9 -12 7 -17 -9 -28 -12 -7 -21 -18 -21 -25 0 -7 -4 -13 -10 -13 -13 0 -13 36
0 61 13 23 23 24 40 5z m-220 -51 c0 -8 -4 -15 -10 -15 -5 0 -10 7 -10 15 0 8
5 15 10 15 6 0 10 -7 10 -15z"/>
<path d="M2806 8724 c-3 -9 -4 -20 0 -25 10 -16 22 -9 26 16 6 28 -16 36 -26
9z"/>
<path d="M2773 8689 c-13 -5 -23 -14 -24 -21 -2 -28 -7 -54 -14 -70 -4 -12 -3
-18 5 -18 6 0 14 9 17 20 3 11 14 20 24 20 10 0 25 10 33 22 20 28 20 38 2 38
-8 0 -16 4 -18 9 -2 5 -13 5 -25 0z"/>
<path d="M2447 8673 c-13 -12 -7 -33 8 -33 8 0 15 9 15 20 0 20 -11 26 -23 13z"/>
<path d="M16690 8670 c0 -5 7 -7 15 -4 8 4 15 8 15 10 0 2 -7 4 -15 4 -8 0
-15 -4 -15 -10z"/>
<path d="M3564 8649 c-3 -6 -1 -16 5 -22 8 -8 11 -5 11 11 0 24 -5 28 -16 11z"/>
<path d="M12175 8650 c-9 -14 4 -52 16 -45 12 8 12 42 0 50 -5 3 -12 1 -16 -5z"/>
<path d="M3540 8580 c0 -5 5 -10 10 -10 6 0 10 5 10 10 0 6 -4 10 -10 10 -5 0
-10 -4 -10 -10z"/>
<path d="M11125 8542 c-3 -12 -21 -30 -40 -41 -19 -11 -35 -25 -35 -31 0 -5
-15 -10 -34 -10 -26 0 -36 -5 -41 -21 -4 -12 -2 -26 4 -32 15 -15 14 -57 -3
-63 -23 -9 -59 -90 -53 -120 3 -17 -2 -37 -13 -53 -9 -14 -25 -38 -34 -53 -20
-34 -51 -39 -41 -7 7 22 -23 99 -38 99 -5 0 -6 -18 -2 -41 6 -35 4 -43 -16
-57 -13 -10 -32 -19 -43 -22 -11 -3 -25 -21 -31 -40 -10 -29 -16 -34 -37 -32
-21 3 -26 -2 -31 -28 -4 -19 -15 -34 -30 -39 -13 -5 -30 -23 -37 -40 -9 -22
-19 -31 -35 -31 -12 0 -30 -9 -40 -20 -15 -17 -16 -24 -7 -46 27 -57 1 -103
-52 -90 -30 7 -50 -8 -43 -33 4 -15 -5 -30 -35 -57 -38 -34 -40 -37 -27 -61 8
-14 26 -30 40 -35 30 -10 55 -49 46 -72 -4 -9 -29 -30 -57 -47 -43 -26 -51
-35 -45 -53 4 -11 7 -30 6 -41 0 -11 3 -15 7 -9 4 6 41 14 83 18 76 7 77 6 83
-18 14 -55 79 -58 108 -7 9 17 28 33 42 37 19 4 26 13 26 30 0 13 10 34 23 47
12 12 37 40 55 60 18 20 39 37 47 37 8 0 15 6 15 13 0 19 59 97 73 97 16 0 37
-48 30 -66 -3 -8 -11 -14 -19 -14 -13 0 -17 -10 -11 -27 1 -5 6 -7 11 -5 4 1
14 -2 21 -8 10 -8 19 -8 34 -1 31 17 51 13 51 -9 0 -12 -7 -20 -17 -21 -37 -1
-58 -8 -69 -23 -13 -18 -24 -11 -24 16 0 25 -17 23 -26 -4 -4 -13 -2 -24 5
-26 20 -7 12 -20 -19 -31 -16 -5 -30 -14 -30 -20 0 -5 -8 -12 -17 -15 -10 -3
-26 -23 -36 -44 -14 -29 -15 -44 -7 -72 5 -19 7 -43 4 -53 -3 -11 -7 -29 -8
-40 -2 -12 -6 -37 -10 -54 -7 -30 -5 -33 16 -34 13 -1 37 -3 53 -4 17 -1 36 3
44 9 7 6 19 11 25 12 6 0 17 2 24 2 6 1 12 13 12 26 0 25 19 39 37 28 14 -9
10 -149 -5 -164 -7 -7 -12 -41 -12 -84 0 -58 -4 -76 -22 -99 -17 -22 -19 -31
-10 -46 9 -15 9 -23 1 -38 -15 -22 -5 -51 16 -51 11 0 15 10 15 35 0 19 5 35
10 35 13 0 53 -22 62 -34 3 -5 22 -9 42 -8 19 1 38 -3 41 -8 3 -5 23 -14 43
-20 49 -13 82 -75 82 -153 0 -51 2 -55 50 -100 28 -26 50 -53 50 -61 0 -9 9
-20 20 -26 11 -6 20 -15 20 -21 0 -6 14 -30 30 -54 17 -24 30 -49 30 -55 0
-21 29 -21 49 -1 12 12 27 21 34 21 12 0 57 -84 57 -105 0 -6 11 -26 24 -46
31 -46 34 -69 13 -99 -21 -30 -22 -59 -3 -66 8 -3 17 -27 21 -55 5 -37 11 -49
21 -45 17 7 44 -3 44 -16 0 -5 -11 -25 -24 -45 -14 -19 -22 -41 -19 -49 3 -7
27 -17 54 -20 35 -5 53 -13 60 -26 6 -11 8 -22 5 -25 -3 -3 0 -15 6 -27 7 -12
11 -58 10 -113 -3 -88 -2 -92 20 -95 21 -3 23 -9 24 -59 1 -69 7 -79 43 -79
16 0 45 -7 65 -15 l37 -16 -7 -49 c-6 -46 -5 -50 20 -61 22 -10 26 -18 26 -56
0 -35 3 -43 18 -43 11 0 24 -11 30 -25 9 -20 9 -23 -4 -18 -17 6 -43 -23 -44
-49 0 -10 9 -22 21 -28 16 -9 24 -8 38 4 16 15 19 15 31 1 7 -8 18 -15 25 -15
32 0 33 -69 1 -99 -33 -32 -39 -69 -12 -77 28 -8 66 -44 66 -61 0 -8 6 -16 14
-19 25 -10 27 -36 5 -60 -16 -17 -19 -27 -12 -36 10 -13 36 -89 47 -140 5 -22
12 -28 34 -28 15 0 22 -4 16 -8 -5 -4 -16 -22 -23 -40 -20 -49 -2 -66 65 -58
46 5 53 4 59 -14 3 -11 -1 -30 -11 -46 -18 -26 -18 -27 11 -50 18 -14 43 -24
62 -24 18 0 43 -5 57 -11 32 -15 50 -63 35 -91 -11 -21 -9 -24 34 -49 9 -5 17
-21 17 -34 0 -20 -5 -25 -25 -25 -31 0 -42 -23 -26 -54 7 -12 14 -35 15 -50 2
-16 19 -43 40 -63 29 -28 36 -43 36 -73 0 -40 11 -50 55 -50 30 0 34 -7 40
-64 2 -25 9 -54 14 -64 7 -13 6 -27 -4 -46 -19 -37 -10 -54 33 -62 43 -8 52
-18 52 -57 0 -18 13 -44 34 -69 36 -41 37 -46 57 -195 12 -89 14 -94 59 -143
25 -28 51 -67 57 -88 6 -20 18 -55 27 -77 8 -22 15 -63 16 -91 0 -76 11 -116
31 -121 9 -3 20 -17 24 -31 3 -15 8 -35 12 -46 3 -12 1 -16 -6 -12 -6 4 -11 4
-11 -1 0 -15 15 -28 30 -28 12 0 15 -15 15 -75 0 -73 0 -75 27 -80 16 -3 38
-20 52 -39 23 -31 24 -36 11 -62 -15 -28 -15 -28 55 -85 63 -51 69 -58 58 -77
-6 -12 -19 -28 -30 -35 -26 -19 -23 -63 8 -107 21 -31 25 -46 20 -76 -6 -36
-4 -38 43 -68 40 -26 48 -36 49 -63 0 -17 -9 -48 -21 -69 -25 -43 -19 -64 24
-86 l24 -13 -27 0 c-32 0 -45 -16 -19 -23 19 -5 20 -6 38 -177 10 -91 7 -139
-11 -159 -9 -9 -16 -22 -16 -27 0 -11 74 -64 89 -64 6 0 11 -20 11 -49 0 -69
13 -101 39 -94 17 4 21 1 21 -21 0 -21 -5 -26 -24 -26 -33 0 -47 -21 -40 -59
5 -22 2 -37 -10 -50 -16 -17 -15 -21 5 -56 12 -20 33 -41 45 -46 13 -4 24 -15
24 -24 0 -8 8 -15 18 -15 19 -1 62 -33 62 -48 0 -5 -6 -15 -14 -21 -15 -13
-10 -101 6 -112 6 -4 5 -14 -3 -27 -10 -17 -10 -24 4 -46 10 -14 25 -26 35
-26 10 0 27 -7 38 -15 26 -20 53 -18 92 5 25 15 32 27 32 50 0 25 4 30 25 30
32 0 40 20 26 61 -8 23 -8 36 0 45 6 7 8 22 4 33 -3 10 -1 22 5 26 8 5 4 15
-11 31 l-23 24 22 29 c24 33 16 53 -31 71 -20 7 -27 15 -24 28 6 19 18 101 17
117 0 6 -6 10 -12 10 -39 0 -38 76 2 121 34 39 31 58 -11 73 -28 10 -29 11
-27 78 0 37 5 78 9 90 12 32 -33 78 -62 63 -17 -9 -19 -7 -19 17 0 15 4 34 9
42 6 10 0 21 -20 39 -45 37 -52 56 -36 95 8 18 22 40 31 50 20 20 13 37 -15
37 -17 0 -20 4 -14 29 5 22 2 32 -13 43 -21 14 -26 74 -9 96 7 9 3 20 -16 40
-14 15 -29 39 -32 55 -4 15 -15 33 -25 40 -17 12 -17 14 11 32 33 23 39 55 10
55 -11 0 -23 -4 -26 -10 -3 -5 -24 -10 -45 -10 -21 0 -42 -5 -45 -10 -4 -6
-11 -8 -16 -5 -17 11 -9 35 14 44 30 12 86 164 67 186 -6 7 -12 40 -13 72 -1
40 -6 62 -16 70 -14 10 -14 16 -4 43 10 27 10 38 -4 64 -9 17 -15 49 -14 72 2
32 -2 45 -17 55 -31 23 -43 53 -28 75 16 24 15 42 -3 53 -16 10 -42 3 -53 -13
-5 -8 -8 -7 -8 1 0 6 11 25 25 41 28 34 32 64 10 82 -8 7 -15 20 -15 30 0 9
-9 25 -19 34 -28 26 -39 130 -16 156 24 26 16 63 -15 70 -35 8 -67 72 -51 106
9 21 7 28 -12 47 -18 18 -21 31 -19 73 3 40 0 53 -12 57 -9 4 -16 17 -16 30 0
35 -30 58 -67 51 -41 -8 -49 9 -24 50 l21 33 -20 18 c-11 10 -23 36 -27 57 -3
22 -12 45 -19 53 -19 18 -17 35 6 70 27 40 25 51 -11 87 -24 25 -30 37 -25 59
7 38 -49 89 -99 89 -28 0 -34 4 -39 28 -4 15 -4 47 0 72 8 58 8 56 -8 115 -10
39 -18 50 -38 55 -16 4 -26 14 -28 28 -2 12 0 22 5 22 5 0 28 17 51 39 38 36
40 40 24 53 -30 24 -70 41 -86 35 -9 -3 -29 -1 -46 5 -29 10 -31 13 -29 59 3
55 -22 94 -54 85 -17 -4 -18 -1 -13 29 6 28 3 34 -15 40 -19 6 -20 12 -15 47
4 22 13 46 21 54 29 29 29 56 1 80 -14 13 -26 26 -26 29 0 4 -9 18 -20 32 -11
14 -20 39 -20 55 0 39 -27 78 -55 78 -33 0 -59 33 -46 59 6 12 15 30 21 40 5
11 7 42 3 70 -5 44 -13 57 -70 118 -62 66 -64 69 -58 111 5 36 4 42 -12 42
-11 0 -24 -5 -30 -11 -18 -18 -43 -2 -43 26 0 14 -4 25 -10 25 -5 0 -10 -9
-10 -20 0 -23 -15 -27 -24 -5 -8 21 -38 19 -59 -5 -16 -19 -57 -27 -70 -14 -3
4 3 19 14 34 18 24 19 30 7 51 -7 13 -21 30 -30 37 -15 11 -27 72 -15 72 10 0
67 -32 72 -41 11 -17 27 -9 22 11 -3 10 1 24 9 31 8 6 14 18 14 25 0 8 9 14
20 14 20 0 38 25 27 36 -2 3 -18 6 -33 8 -19 2 -30 10 -32 22 -8 52 -16 68
-52 105 -22 22 -44 38 -50 34 -7 -5 -5 -12 7 -21 17 -12 16 -13 -10 -14 -40 0
-61 14 -86 55 -24 41 -25 45 -11 45 6 0 10 -7 10 -15 0 -8 4 -15 9 -15 5 0 14
7 21 15 7 8 18 15 25 15 21 0 23 22 6 57 -14 29 -33 45 -30 26 1 -5 1 -18 0
-30 -1 -29 -41 -33 -41 -4 0 11 -12 23 -30 31 -16 7 -31 18 -31 24 -10 93 -57
157 -94 126 -21 -17 -41 -7 -49 26 -4 15 -14 33 -23 39 -9 7 -15 28 -15 58 -1
26 -4 50 -8 52 -7 5 -4 91 5 122 6 18 2 23 -19 29 -31 7 -32 14 -6 37 11 9 20
23 20 30 0 18 -42 37 -80 37 -30 0 -31 2 -34 55 -1 14 -9 21 -27 23 -15 2 -34
11 -42 20 -15 17 -57 133 -57 158 0 7 -9 18 -20 24 -11 6 -20 20 -20 31 0 12
-9 32 -20 46 -15 20 -19 34 -14 60 4 22 1 41 -10 58 -9 13 -16 36 -16 49 0 19
-11 31 -45 52 -37 21 -45 31 -45 55 0 19 -8 34 -25 45 -19 13 -25 25 -27 67
-3 46 -6 53 -37 71 -32 19 -35 19 -64 3 -29 -17 -30 -17 -64 9 -19 14 -40 23
-48 21 -7 -3 -23 3 -36 14 -12 10 -30 19 -40 19 -27 0 -32 86 -7 123 10 15 18
35 16 45 -2 14 5 17 42 17 47 0 65 6 194 63 68 30 84 33 108 24 22 -8 35 -6
65 9 36 19 37 19 58 -1 28 -26 59 -25 97 2 27 19 32 19 39 5 5 -8 17 -13 27
-11 23 7 88 -21 95 -41 8 -19 27 -20 27 -1 0 16 42 31 112 41 25 3 52 13 59
21 10 13 14 13 30 -2 16 -15 18 -14 21 8 2 16 9 22 23 21 47 -6 62 -4 105 11
67 24 90 38 90 53 0 17 15 17 30 -2 21 -26 39 -17 45 23 10 59 30 115 43 120
6 2 22 -7 35 -20 14 -13 33 -28 43 -34 11 -6 25 -23 32 -37 33 -68 94 -82 146
-34 18 17 34 23 51 19 16 -3 33 2 45 13 13 12 27 15 48 10 24 -5 33 -2 46 16
9 13 12 27 7 33 -5 6 -12 21 -15 33 -6 18 -2 25 18 34 31 14 58 -3 49 -29 -4
-10 2 -7 14 7 l20 25 26 -28 c29 -31 62 -29 72 5 10 29 43 24 51 -8 4 -16 15
-36 24 -45 17 -16 18 -16 23 3 4 14 14 19 36 19 19 0 31 5 31 13 0 16 45 42
87 50 30 6 32 4 35 -26 3 -31 5 -32 49 -33 25 0 51 -4 57 -8 8 -4 15 1 20 14
l8 21 27 -21 c21 -17 35 -20 69 -15 24 3 66 1 93 -5 28 -6 58 -11 68 -11 18 0
57 36 57 53 0 4 7 8 15 8 9 0 18 -12 21 -29 5 -22 13 -30 36 -35 58 -11 78 -7
90 19 8 18 19 25 40 25 25 0 33 9 29 34 -1 5 15 5 36 1 55 -11 78 -9 113 8 17
9 38 13 46 10 8 -3 25 2 39 11 15 10 31 13 38 9 21 -14 77 -9 82 7 3 8 14 21
25 28 17 10 20 10 20 -2 0 -8 6 -16 13 -19 6 -2 12 -19 12 -37 0 -18 6 -35 12
-37 16 -6 15 69 -1 79 -23 15 24 19 51 4 20 -11 23 -15 10 -16 -27 0 -11 -17
23 -25 17 -4 30 -10 30 -14 0 -14 51 1 57 15 3 8 0 21 -7 29 -10 12 -9 15 4
15 11 0 16 9 17 28 2 34 2 34 -6 55 -8 20 9 23 27 3 11 -11 16 -11 34 1 19 12
22 12 27 -6 3 -14 1 -18 -9 -14 -9 3 -14 -2 -14 -17 0 -12 4 -18 10 -15 6 3
13 -1 16 -9 7 -18 49 -22 59 -6 3 6 2 10 -3 10 -5 0 -8 12 -6 28 2 15 1 21 -2
15 -7 -17 -25 -17 -21 -1 1 7 8 19 15 26 6 7 12 20 12 28 0 8 7 14 15 14 8 0
15 -4 15 -9 0 -5 16 -5 38 1 28 7 41 17 51 39 18 40 7 50 -58 52 -46 2 -53 0
-58 -20 -5 -23 -43 -34 -43 -13 0 6 7 10 15 10 13 0 20 14 13 23 -5 5 48 53
55 50 4 -2 7 0 7 5 0 19 -13 20 -37 5 -21 -14 -26 -14 -33 -3 -11 18 -4 30 18
30 15 1 14 3 -3 16 -11 8 -28 13 -37 11 -10 -3 -19 2 -21 12 -4 12 -5 11 -6
-4 -1 -14 -4 -16 -9 -7 -5 7 -33 13 -65 15 -52 2 -72 10 -47 19 5 2 -1 8 -15
14 -22 11 -23 10 -12 -13 8 -17 8 -26 0 -31 -6 -4 -14 -22 -18 -39 -3 -18 -11
-33 -15 -33 -5 0 -18 -10 -30 -22 -11 -12 -20 -17 -20 -11 0 11 -47 28 -64 24
-5 -1 -5 6 -1 16 7 17 13 40 14 55 1 4 8 5 16 2 8 -4 15 -1 15 5 0 6 7 11 15
11 26 0 17 40 -11 50 -34 13 -42 7 -37 -27 3 -20 2 -24 -5 -15 -8 11 -13 10
-29 -8 -17 -18 -21 -19 -26 -5 -4 8 -10 15 -14 14 -15 -2 -53 13 -53 22 0 5
-7 9 -15 9 -8 0 -20 9 -27 20 -16 25 -24 25 -24 1 0 -13 5 -17 16 -13 13 5 13
4 1 -12 -14 -16 -15 -16 -27 6 -12 21 -13 21 -14 3 0 -14 -3 -16 -11 -8 -12
12 -24 10 -74 -12 -16 -8 -38 -16 -47 -19 -11 -3 -18 -15 -18 -30 0 -35 -14
-39 -52 -16 -43 26 -68 26 -68 0 0 -11 -7 -20 -15 -20 -8 0 -15 4 -15 10 0 5
-11 12 -25 16 -14 3 -25 12 -25 18 0 7 -5 17 -12 24 -9 9 -16 8 -30 -5 -10 -9
-18 -22 -18 -28 0 -7 -7 -18 -15 -25 -9 -7 -14 -19 -11 -27 4 -9 -5 -13 -30
-13 -27 0 -37 5 -41 20 -3 11 -6 20 -8 20 -1 0 -16 -5 -34 -11 -20 -7 -31 -18
-31 -31 0 -16 -6 -19 -32 -16 -24 2 -32 7 -29 18 13 52 13 62 0 58 -8 -2 -18
-18 -24 -35 -11 -32 -25 -33 -56 -2 -11 11 -30 19 -43 19 -21 0 -24 -4 -21
-35 2 -19 -1 -35 -6 -35 -5 0 -9 4 -9 10 0 5 -29 7 -70 4 -67 -4 -71 -3 -82
20 -16 36 -34 39 -58 9 -11 -14 -20 -29 -20 -33 0 -20 -54 -14 -128 15 -45 17
-85 35 -89 39 -4 4 -8 21 -9 38 -2 30 -20 52 -36 42 -4 -3 -5 -18 -2 -33 7
-35 -11 -49 -35 -27 -24 22 -57 20 -81 -4 -20 -20 -24 -18 -21 13 3 21 -9 22
-54 0 -26 -13 -35 -23 -35 -42 -1 -20 -10 -31 -44 -47 -43 -22 -43 -22 -55 -1
-13 19 -13 19 -38 -7 -17 -18 -29 -24 -39 -18 -23 13 -73 2 -84 -18 -19 -35
-42 -50 -75 -50 -21 0 -44 -9 -63 -25 -33 -27 -42 -20 -42 31 0 33 -28 74 -51
74 -24 0 -70 -51 -64 -71 3 -9 -4 -28 -15 -42 -15 -19 -19 -31 -12 -43 11 -20
-22 -84 -43 -84 -7 0 -27 -3 -44 -6 -27 -6 -31 -4 -31 15 0 12 6 21 14 21 20
0 29 16 21 39 -4 13 -12 17 -30 13 -23 -4 -30 -18 -26 -50 1 -8 -7 -16 -18
-19 -12 -3 -21 -14 -21 -24 0 -20 -62 -54 -92 -50 -10 1 -18 -2 -18 -8 0 -6
-18 -22 -41 -36 -36 -23 -44 -25 -75 -15 -44 15 -64 1 -64 -45 0 -24 -6 -34
-24 -43 -30 -13 -46 1 -46 39 0 24 -4 27 -26 26 -21 -2 -28 5 -41 37 -13 30
-14 43 -5 57 10 16 9 19 -8 19 -20 0 -69 26 -81 44 -10 13 -29 -3 -29 -25 0
-11 -7 -19 -17 -19 -9 0 -13 3 -10 7 4 3 0 14 -9 24 -21 24 -11 49 19 49 33 0
51 45 42 99 -5 33 -3 42 9 47 13 5 16 22 16 79 0 43 -5 77 -11 81 -6 3 -9 20
-6 38 7 44 -7 63 -50 71 -21 4 -47 10 -58 12 -11 2 -50 6 -87 9 -60 5 -67 4
-73 -14z m3115 -108 c0 -2 -9 -4 -21 -4 -11 0 -18 4 -14 10 5 8 35 3 35 -6z
m-416 -19 c4 -10 -1 -15 -14 -15 -13 0 -18 5 -14 15 4 8 10 15 14 15 4 0 10
-7 14 -15z m-2444 -2 c0 -5 -4 -15 -10 -23 -11 -18 -25 -7 -17 15 6 15 27 21
27 8z m3164 -99 c25 -9 19 -24 -9 -24 -18 0 -25 -5 -25 -18 0 -11 -9 -27 -20
-37 -11 -10 -20 -26 -20 -36 0 -10 -9 -23 -19 -29 -25 -13 -41 -13 -21 0 12 8
12 10 1 10 -11 0 -10 4 3 19 10 10 16 25 15 33 -6 43 2 68 21 68 11 0 20 5 20
10 0 11 30 13 54 4z m-1448 -43 c-9 -10 -16 -27 -16 -39 0 -13 -6 -22 -15 -22
-19 0 -19 2 6 50 12 22 25 37 31 34 5 -4 3 -13 -6 -23z m-323 -76 c1 -5 -6
-11 -15 -13 -11 -2 -18 3 -18 13 0 17 30 18 33 0z m481 -73 c-7 -34 -24 -41
-44 -17 -10 12 -9 16 6 22 11 3 23 13 27 20 13 22 18 10 11 -25z m886 22 c0
-8 -5 -12 -10 -9 -6 4 -8 11 -5 16 9 14 15 11 15 -7z m279 -3 c13 -12 18 -22
11 -26 -5 -3 -10 -1 -10 4 0 6 -11 11 -25 11 -16 0 -25 6 -25 15 0 21 23 19
49 -4z m-1029 -44 c0 -27 -28 -54 -52 -49 -20 4 -28 23 -21 51 4 16 13 21 39
21 29 0 34 -4 34 -23z m560 13 c0 -5 -4 -10 -10 -10 -5 0 -10 5 -10 10 0 6 5
10 10 10 6 0 10 -4 10 -10z m-2662 -61 c4 -31 -20 -53 -47 -44 -28 9 -32 30
-9 54 25 28 52 23 56 -10z m2882 12 c0 -10 -30 -24 -37 -17 -3 3 -2 9 2 15 8
13 35 15 35 2z m-1685 -51 c0 -16 -6 -26 -17 -28 -14 -3 -18 3 -18 28 0 25 4
31 18 28 11 -2 17 -12 17 -28z m-156 -38 c1 -7 -3 -10 -9 -7 -5 3 -10 21 -9
38 1 31 1 31 9 7 4 -14 8 -31 9 -38z m-1760 -401 c16 -16 34 -30 39 -32 6 -2
12 -15 14 -29 2 -19 -2 -26 -18 -28 -11 -2 -28 -16 -38 -32 -9 -17 -24 -30
-32 -30 -8 0 -14 -4 -14 -10 0 -5 -4 -10 -8 -10 -4 0 -9 17 -10 37 -2 20 -8
43 -13 50 -7 7 -8 25 -3 45 4 18 8 37 8 41 1 8 27 27 38 27 4 0 21 -13 37 -29z
m281 -370 c15 -28 12 -61 -4 -61 -19 0 -61 53 -47 58 6 2 9 8 5 13 -3 5 4 9
15 9 11 0 25 -9 31 -19z m1683 -2209 c13 -14 14 -21 5 -30 -7 -7 -17 -12 -24
-12 -18 0 -37 28 -30 45 7 20 29 19 49 -3z m-238 -360 c-3 -3 -10 -1 -15 4 -6
6 -5 24 3 49 l12 40 3 -44 c2 -23 1 -46 -3 -49z m155 -352 c0 -33 -14 -40 -24
-12 -3 9 -9 23 -12 30 -4 7 2 12 15 12 17 0 21 -6 21 -30z m1083 -2237 c4 -2
5 -8 3 -12 -8 -13 -64 0 -70 16 -5 12 0 13 27 8 17 -4 35 -9 40 -12z m-133
-13 c0 -5 -5 -10 -11 -10 -5 0 -7 5 -4 10 3 6 8 10 11 10 2 0 4 -4 4 -10z
m180 -156 c0 -16 -16 -19 -25 -4 -8 13 4 32 16 25 5 -4 9 -13 9 -21z m60 -320
c0 -3 -8 -18 -18 -32 -10 -15 -22 -35 -25 -44 -9 -26 -34 -22 -41 7 -4 14 -11
25 -16 25 -6 0 -10 7 -10 15 0 10 10 15 28 15 15 0 34 5 42 10 17 11 40 13 40
4z m150 -293 c0 -11 5 -23 10 -26 15 -10 12 -45 -5 -45 -14 0 -38 66 -29 82 9
15 24 8 24 -11z m-100 -262 c0 -13 -29 -31 -40 -24 -20 12 -10 33 15 31 14 0
25 -4 25 -7z m-16 -184 c-4 -14 -3 -16 4 -7 10 15 43 13 43 -3 -1 -5 -5 -10
-11 -10 -5 0 -15 -8 -22 -18 -9 -11 -20 -16 -31 -11 -19 7 -22 20 -7 29 6 3
10 21 10 38 0 24 3 28 10 17 5 -8 7 -24 4 -35z"/>
<path d="M11826 8441 c-3 -5 1 -11 9 -14 9 -4 12 -1 8 9 -6 16 -10 17 -17 5z"/>
<path d="M12630 8415 c-8 -9 -8 -15 -2 -15 12 0 26 19 19 26 -2 2 -10 -2 -17
-11z"/>
<path d="M16126 8405 c-8 -22 1 -35 25 -35 15 0 20 6 17 22 -4 27 -33 36 -42
13z"/>
<path d="M4175 8400 c-6 -10 24 -59 37 -60 13 0 20 21 14 46 -6 24 -39 34 -51
14z"/>
<path d="M11807 8344 c-12 -12 -8 -41 8 -54 8 -7 15 -21 15 -32 0 -21 27 -35
41 -21 16 16 -2 74 -25 82 -12 5 -20 12 -18 17 4 11 -12 17 -21 8z"/>
<path d="M11990 8305 c0 -8 7 -15 15 -15 8 0 15 7 15 15 0 8 -7 15 -15 15 -8
0 -15 -7 -15 -15z"/>
<path d="M15743 8304 c-3 -8 1 -22 9 -30 13 -13 18 -13 39 5 27 22 26 25 -14
35 -20 5 -29 2 -34 -10z"/>
<path d="M6643 8273 c-7 -2 -13 -11 -13 -19 0 -8 -5 -14 -11 -14 -7 0 -8 -7
-4 -17 4 -10 10 -39 12 -64 6 -55 -12 -78 -47 -59 -12 6 -28 9 -36 6 -21 -8
-17 -54 6 -66 11 -6 20 -17 20 -24 0 -22 -45 -57 -70 -54 -18 2 -25 -3 -31
-27 -5 -17 -19 -34 -31 -40 -14 -6 -24 -20 -26 -37 -4 -35 -12 -35 -47 2 -32
34 -47 37 -65 15 -18 -22 -73 -18 -104 6 -20 15 -34 19 -54 15 -59 -15 -65
-13 -75 24 -6 19 -10 57 -11 84 -1 30 -7 51 -15 54 -15 5 -40 -26 -41 -50 0
-23 -19 -23 -35 -1 -10 14 -17 14 -45 4 -40 -13 -70 -39 -70 -58 0 -16 -17
-18 -22 -2 -2 6 -38 11 -91 11 -48 0 -87 5 -87 10 0 5 7 23 16 39 8 17 13 34
9 37 -4 4 -28 7 -53 7 -41 0 -47 3 -50 23 -4 29 -26 38 -58 23 -18 -8 -31 -8
-46 0 -16 9 -24 7 -40 -10 -33 -36 -20 -56 37 -56 47 0 50 -2 53 -27 2 -20 -1
-28 -12 -28 -19 0 -47 -58 -48 -101 -1 -19 -7 -40 -14 -47 -11 -11 -10 -18 7
-42 12 -16 19 -35 16 -43 -3 -7 -1 -20 3 -27 7 -11 16 -11 48 4 51 23 76 15
97 -32 10 -20 19 -38 20 -40 1 -1 14 3 29 9 21 10 33 9 65 -5 31 -15 43 -16
61 -6 16 8 25 9 33 1 7 -7 5 -12 -6 -17 -40 -15 3 -54 58 -54 24 0 59 -26 66
-49 6 -17 199 -22 199 -5 0 7 13 22 30 34 24 17 42 20 102 19 41 -1 80 -8 88
-15 18 -15 82 -12 88 4 5 17 42 15 42 -3 0 -19 39 -19 64 0 14 10 22 12 27 4
9 -15 -13 -57 -33 -63 -34 -8 -15 -66 22 -66 21 0 38 31 30 55 -8 23 -2 55 11
55 5 0 9 9 9 19 0 17 5 19 38 14 43 -6 62 -26 62 -64 0 -34 25 -82 47 -91 37
-14 75 -9 80 12 3 11 10 20 17 20 6 0 17 -9 24 -20 15 -25 27 -25 52 0 16 16
19 28 14 60 l-6 39 30 -11 c30 -11 52 -43 52 -74 0 -8 8 -18 18 -21 48 -18 95
-73 62 -73 -5 0 -10 -7 -10 -15 0 -8 4 -15 9 -15 13 0 -14 -72 -31 -81 -9 -5
-28 -3 -46 3 -25 10 -34 10 -44 0 -9 -9 -3 -19 25 -46 20 -19 37 -36 37 -39 0
-2 -13 -2 -29 1 -37 5 -69 -12 -81 -44 -6 -14 -25 -31 -44 -39 -36 -15 -50
-37 -34 -53 6 -6 19 -5 39 5 32 16 49 11 49 -16 0 -19 -30 -51 -48 -51 -6 0
-15 7 -20 17 -7 12 -17 14 -41 10 -18 -4 -31 -2 -31 3 0 15 -36 12 -48 -3 -6
-7 -9 -22 -6 -33 4 -17 -6 -25 -65 -53 -62 -29 -73 -39 -101 -88 -21 -37 -30
-65 -27 -81 3 -18 -2 -32 -20 -50 -23 -23 -25 -23 -43 -7 -18 17 -22 16 -64
-4 -42 -19 -45 -23 -40 -51 4 -18 1 -38 -8 -52 -8 -13 -18 -45 -22 -73 -7 -56
-46 -105 -82 -105 -13 0 -35 -5 -49 -12 -21 -9 -25 -16 -20 -36 4 -16 1 -28
-7 -33 -10 -7 -11 -12 0 -29 17 -28 15 -37 -14 -76 -17 -21 -35 -34 -50 -34
-34 0 -65 -50 -62 -99 2 -47 -20 -78 -61 -83 -19 -2 -27 -9 -29 -28 -2 -14 -8
-37 -13 -51 -10 -25 -13 -26 -65 -22 l-55 4 6 -48 c4 -26 11 -61 17 -76 13
-32 -1 -47 -65 -68 -21 -7 -45 -21 -52 -32 -7 -11 -18 -16 -23 -13 -14 8 -42
-3 -42 -17 0 -6 9 -21 21 -33 20 -21 19 -51 -1 -39 -24 15 -120 -66 -120 -100
0 -8 -9 -17 -20 -20 -13 -4 -20 -15 -20 -31 0 -20 -5 -24 -30 -24 -16 0 -30
-1 -31 -2 0 -2 -2 -28 -5 -58 -4 -50 -2 -58 21 -80 25 -23 27 -24 39 -8 12 16
15 16 36 -7 18 -19 21 -28 12 -37 -8 -8 -7 -21 5 -50 15 -37 15 -42 0 -68 -13
-22 -14 -30 -4 -37 27 -22 48 -22 70 -3 12 11 27 18 34 16 7 -3 13 1 13 9 0 8
18 19 40 26 22 7 40 17 40 22 0 5 7 4 15 -3 8 -7 15 -21 15 -31 0 -15 -7 -19
-31 -19 -27 0 -31 -3 -26 -22 2 -13 8 -31 12 -40 11 -28 -20 -22 -44 8 -18 23
-21 24 -27 9 -5 -11 -1 -22 9 -30 10 -7 17 -22 17 -33 0 -22 26 -42 56 -42 14
0 16 7 10 40 -8 49 18 82 56 73 13 -3 20 -2 16 2 -4 4 4 16 17 27 14 11 25 27
25 35 0 9 8 25 17 35 14 15 15 24 6 47 -7 19 -7 34 0 47 14 27 13 26 49 33 33
7 33 7 34 66 2 107 3 115 21 115 9 0 25 -7 35 -17 17 -15 19 -15 36 0 10 10
23 17 29 17 6 0 16 6 22 14 6 7 22 11 35 9 13 -3 27 0 31 6 11 19 -15 79 -43
100 -22 16 -24 21 -13 34 9 12 10 21 2 35 -9 17 -4 27 34 66 25 25 45 49 45
53 0 4 13 16 29 25 20 11 33 29 40 55 6 22 19 47 28 56 57 52 93 90 93 96 0 5
18 21 39 36 24 16 38 32 34 41 -2 7 7 24 21 37 14 13 26 32 26 41 0 8 16 26
35 38 19 13 35 28 35 33 0 21 42 88 69 111 16 13 34 38 41 56 6 18 16 43 22
54 7 15 6 27 -2 41 -22 35 0 74 58 102 29 14 52 30 52 34 0 5 14 22 30 37 17
16 33 42 36 59 8 38 104 141 132 141 11 0 23 7 26 15 3 9 19 21 36 26 28 10
30 14 28 60 -1 27 -8 51 -14 53 -6 2 -14 18 -16 35 -5 32 1 38 18 22 5 -5 22
-7 37 -4 25 5 28 10 24 31 -6 32 1 52 18 52 7 0 25 18 40 40 33 48 82 80 121
80 16 1 40 7 54 15 35 20 74 18 112 -5 18 -11 45 -20 59 -20 15 0 29 -7 33
-15 8 -23 55 -18 76 7 15 19 20 20 34 9 9 -7 16 -18 16 -23 0 -5 6 -16 14 -23
11 -12 20 -12 46 -2 28 11 33 10 45 -7 18 -24 61 -15 70 15 6 18 13 20 42 16
42 -7 45 -9 48 -41 5 -41 15 -49 36 -30 10 9 19 21 19 26 0 11 -38 48 -49 48
-6 0 -11 19 -13 43 -3 39 -5 42 -35 45 -28 3 -33 0 -39 -25 -7 -26 -29 -52
-47 -53 -4 0 -11 8 -14 18 -4 9 -15 28 -25 41 -13 17 -15 28 -8 35 13 13 13
46 0 46 -5 0 -25 14 -43 30 -19 17 -44 30 -55 30 -12 0 -23 4 -27 9 -9 15 -66
41 -90 41 -68 0 -84 11 -111 71 -23 52 -31 59 -62 65 -19 4 -44 17 -55 30 -17
20 -30 24 -76 24 -31 0 -61 4 -66 8 -6 4 -24 34 -40 66 -17 33 -35 62 -42 64
-6 2 -21 -6 -32 -17 -40 -40 -62 -25 -66 43 -5 60 -21 95 -50 106 -25 10 -35
30 -14 30 8 0 8 4 0 14 -8 10 -9 21 -1 42 13 34 4 80 -21 105 -21 21 -74 23
-97 5 -10 -7 -16 -6 -22 4 -4 7 -29 16 -54 20 -44 7 -48 5 -72 -24 -20 -26
-26 -29 -34 -16 -15 23 -12 73 6 98 13 20 14 23 0 28 -24 9 -49 0 -52 -19 -3
-22 -12 -33 -20 -25 -3 4 -1 16 6 27 17 33 -1 49 -37 34z m24 -245 c-3 -8 -6
-5 -6 6 -1 11 2 17 5 13 3 -3 4 -12 1 -19z m11 -58 c7 0 12 -4 12 -10 0 -11
-30 -13 -53 -4 -9 3 -13 13 -10 25 5 18 7 18 23 4 9 -8 22 -15 28 -15z m342
-31 c0 -12 -7 -19 -20 -19 -22 0 -29 35 -7 43 18 6 27 -2 27 -24z m-1330 -23
c0 -11 -19 -15 -25 -6 -3 5 1 10 9 10 9 0 16 -2 16 -4z m173 -24 c19 -20 13
-32 -14 -32 -22 0 -33 16 -25 35 7 20 19 19 39 -3z m797 -2 c0 -5 -4 -10 -10
-10 -5 0 -10 5 -10 10 0 6 5 10 10 10 6 0 10 -4 10 -10z m-922 -36 c-2 -9 -11
-22 -21 -28 -15 -9 -21 -7 -33 8 -21 30 -17 36 22 36 28 0 35 -4 32 -16z
m1348 -691 c-10 -10 -19 5 -10 18 6 11 8 11 12 0 2 -7 1 -15 -2 -18z m-11 -53
c-5 -15 -10 -19 -17 -12 -7 7 -6 15 3 25 18 19 23 14 14 -13z m-5 -76 c0 -20
-4 -25 -16 -20 -9 3 -22 6 -30 6 -17 0 -19 26 -1 33 31 13 47 7 47 -19z m-590
-410 c0 -9 -7 -14 -17 -12 -25 5 -28 28 -4 28 12 0 21 -6 21 -16z m-56 -210
c19 -7 21 -45 4 -62 -17 -17 -53 -15 -68 3 -10 12 -9 20 4 40 17 25 31 30 60
19z m-529 -1174 c-3 -5 -15 -10 -26 -10 -11 0 -17 5 -14 10 3 6 15 10 26 10
11 0 17 -4 14 -10z"/>
<path d="M6461 8249 l-25 -10 25 -17 c13 -9 32 -15 42 -14 11 2 17 -2 16 -10
-4 -20 10 -56 25 -61 8 -3 24 5 36 18 19 20 21 27 10 40 -7 8 -17 15 -23 15
-5 0 -20 11 -33 25 -25 27 -36 29 -73 14z"/>
<path d="M4685 8240 c-4 -6 -16 -10 -28 -8 -16 2 -22 -4 -29 -29 -5 -18 -13
-35 -18 -38 -6 -3 -10 -23 -10 -44 0 -30 -5 -40 -24 -49 -22 -10 -23 -9 -22
26 1 32 -2 37 -24 40 -14 2 -31 8 -37 14 -9 7 -23 4 -45 -9 -46 -26 -48 -50
-6 -67 18 -8 42 -24 53 -36 19 -21 19 -21 -3 -27 -12 -3 -22 -10 -22 -15 0 -6
11 -7 26 -4 39 10 64 -2 64 -29 0 -13 5 -27 11 -30 5 -4 14 -18 19 -31 11 -29
45 -32 47 -4 1 10 12 34 25 52 13 18 24 35 25 37 2 2 11 -3 21 -12 35 -32 73
-12 40 21 -9 9 -9 12 -1 12 7 0 15 -5 18 -11 4 -6 13 -8 21 -5 8 3 19 -4 25
-15 l11 -21 14 20 c12 18 18 19 45 10 24 -8 33 -8 40 3 14 23 17 6 9 -46 -4
-27 -6 -53 -3 -57 11 -19 26 -4 45 42 16 39 26 50 43 50 35 0 50 -24 35 -59
-9 -22 -9 -34 0 -51 9 -16 9 -25 -1 -36 -13 -16 -14 -16 24 -32 23 -10 34 -9
60 4 34 18 48 34 41 46 -2 4 5 12 17 19 l22 11 -23 18 -22 17 26 24 c26 24 62
131 50 150 -3 5 -20 9 -38 9 -26 0 -33 -4 -32 -17 0 -10 -9 -19 -24 -23 -14
-3 -25 -12 -25 -20 0 -26 -39 -17 -45 10 -5 20 -11 24 -34 22 -15 -2 -33 2
-41 8 -21 18 -60 8 -60 -14 0 -29 -22 -30 -40 -3 -12 19 -13 30 -5 51 11 31 4
36 -50 35 -71 -2 -120 17 -120 46 0 20 -37 57 -45 45z m22 -137 c5 -15 -36
-28 -49 -15 -6 6 -7 15 -3 22 9 14 47 9 52 -7z m53 -18 c0 -8 -4 -15 -10 -15
-5 0 -10 7 -10 15 0 8 5 15 10 15 6 0 10 -7 10 -15z"/>
<path d="M15615 8240 c3 -5 11 -10 16 -10 6 0 7 5 4 10 -3 6 -11 10 -16 10 -6
0 -7 -4 -4 -10z"/>
<path d="M14870 8214 c0 -3 7 -12 15 -20 13 -14 15 -13 15 5 0 12 -6 21 -15
21 -8 0 -15 -3 -15 -6z"/>
<path d="M3990 8190 c-9 -6 -10 -10 -3 -10 6 0 15 5 18 10 8 12 4 12 -15 0z"/>
<path d="M11832 8188 c6 -18 28 -21 28 -4 0 9 -7 16 -16 16 -9 0 -14 -5 -12
-12z"/>
<path d="M14984 8156 c-10 -8 -16 -17 -12 -21 8 -8 48 13 48 25 0 14 -13 12
-36 -4z"/>
<path d="M5080 8094 c0 -14 3 -14 15 -4 8 7 15 14 15 16 0 2 -7 4 -15 4 -8 0
-15 -7 -15 -16z"/>
<path d="M5717 8093 c-11 -10 -8 -41 4 -49 17 -10 32 12 24 35 -6 21 -16 26
-28 14z"/>
<path d="M14371 8064 c0 -11 3 -14 6 -6 3 7 2 16 -1 19 -3 4 -6 -2 -5 -13z"/>
<path d="M5770 8011 c0 -5 7 -11 14 -14 10 -4 13 -1 9 9 -6 15 -23 19 -23 5z"/>
<path d="M14036 7992 c-3 -5 0 -15 7 -21 10 -8 19 -7 33 4 10 8 14 15 7 15 -6
0 -18 3 -26 6 -8 3 -18 1 -21 -4z"/>
<path d="M14160 7970 c12 -23 21 -25 38 -8 20 20 14 28 -18 28 -28 0 -30 -2
-20 -20z"/>
<path d="M4845 7920 c-8 -13 4 -32 16 -25 12 8 12 35 0 35 -6 0 -13 -4 -16
-10z"/>
<path d="M5232 7878 c1 -14 -5 -33 -15 -42 -37 -38 31 -58 70 -22 10 9 9 19
-5 46 -21 43 -55 54 -50 18z"/>
<path d="M11112 7514 c1 -9 9 -19 16 -22 9 -3 13 2 10 14 -1 9 -9 19 -16 22
-9 3 -13 -2 -10 -14z"/>
<path d="M6505 7510 c3 -5 10 -10 16 -10 5 0 9 5 9 10 0 6 -7 10 -16 10 -8 0
-12 -4 -9 -10z"/>
<path d="M6630 7404 c0 -8 5 -12 10 -9 6 4 8 11 5 16 -9 14 -15 11 -15 -7z"/>
<path d="M10180 7284 c0 -23 -3 -26 -25 -22 -28 6 -29 5 -39 -34 -4 -16 -2
-28 3 -28 6 0 21 -11 35 -24 25 -22 25 -24 8 -40 -30 -26 -62 -21 -68 13 -6
27 -9 29 -57 30 -56 1 -82 -12 -134 -65 -29 -29 -37 -32 -73 -27 -27 4 -40 2
-40 -6 0 -6 -11 -16 -25 -21 -15 -6 -27 -21 -33 -42 -6 -24 -15 -34 -31 -36
-20 -3 -23 -8 -18 -37 5 -29 2 -34 -19 -39 -13 -4 -24 -13 -24 -20 0 -10 -15
-14 -57 -13 -55 1 -58 0 -60 -23 -2 -17 7 -32 27 -48 37 -29 65 -22 79 20 9
26 14 29 38 23 36 -9 83 -43 83 -61 0 -8 5 -14 10 -14 6 0 10 -5 10 -11 0 -5
-10 -9 -22 -7 -34 5 -32 -17 4 -51 45 -42 68 -41 68 2 0 18 5 38 12 45 8 8 8
15 -1 26 -11 13 -10 18 3 31 9 9 16 21 16 26 0 15 63 49 74 40 6 -4 25 -13 43
-19 27 -9 36 -8 56 9 14 10 27 29 31 42 3 12 23 34 45 47 50 31 69 63 51 85
-7 8 -9 22 -6 31 5 13 15 15 57 9 40 -6 54 -4 69 10 12 11 29 16 45 12 20 -3
33 2 51 22 13 14 24 33 24 41 0 8 7 35 16 59 13 39 13 46 1 59 -22 21 -57 6
-57 -23 0 -19 -7 -26 -27 -31 -16 -3 -34 -7 -40 -10 -8 -2 -13 6 -13 20 0 31
-28 62 -62 70 -25 6 -28 4 -28 -20z m-60 -234 c0 -5 -4 -10 -10 -10 -5 0 -10
5 -10 10 0 6 5 10 10 10 6 0 10 -4 10 -10z"/>
<path d="M8327 7219 c-18 -18 -39 -29 -58 -30 -46 -2 -49 -3 -59 -19 -12 -19
-13 -50 -2 -50 5 0 19 9 32 20 l24 21 19 -31 c23 -36 40 -38 73 -7 21 20 25
31 22 72 -2 27 -7 50 -13 51 -5 2 -23 -10 -38 -27z"/>
<path d="M10607 7154 c-11 -11 5 -34 25 -34 14 0 18 5 14 16 -3 9 -6 18 -6 20
0 6 -26 5 -33 -2z"/>
<path d="M7777 7125 c-4 -8 -2 -17 3 -20 6 -4 10 -4 10 -1 0 2 3 11 6 20 3 9
2 16 -4 16 -5 0 -12 -7 -15 -15z"/>
<path d="M7901 7131 c-10 -6 -10 -10 -1 -16 13 -8 24 -1 19 14 -3 6 -10 7 -18
2z"/>
<path d="M7810 7070 c-13 -8 -12 -10 3 -10 9 0 17 5 17 10 0 12 -1 12 -20 0z"/>
<path d="M10670 7073 c1 -18 19 -35 29 -28 9 5 9 10 0 21 -12 15 -29 19 -29 7z"/>
<path d="M8017 7046 c-9 -7 -28 -11 -41 -9 -13 3 -27 0 -30 -6 -9 -14 -53 -14
-61 -1 -11 17 -21 11 -40 -24 -18 -33 -18 -35 -1 -52 15 -14 22 -15 37 -6 31
20 41 15 34 -18 -6 -26 -4 -29 12 -23 10 3 23 10 29 15 6 4 22 7 35 6 19 -2
25 2 27 22 2 13 10 33 18 44 27 39 14 75 -19 52z"/>
<path d="M8370 7045 c-10 -12 -7 -19 16 -40 35 -33 48 -32 39 2 -12 50 -33 64
-55 38z"/>
<path d="M8120 6999 c0 -11 5 -17 10 -14 6 3 10 13 10 21 0 8 -4 14 -10 14 -5
0 -10 -9 -10 -21z"/>
<path d="M8958 6931 c-3 -21 -1 -28 9 -24 7 3 11 9 8 13 -3 5 -1 11 5 15 6 4
8 11 5 16 -11 17 -23 9 -27 -20z"/>
<path d="M8130 6921 c0 -24 11 -35 52 -54 45 -21 48 -21 64 1 22 28 16 42 -15
42 -17 0 -32 4 -35 9 -3 5 -19 11 -36 13 -23 3 -30 1 -30 -11z"/>
<path d="M7986 6890 c-38 -24 -52 -48 -37 -63 6 -6 11 -28 11 -49 0 -32 4 -39
25 -44 14 -3 41 -4 60 -2 28 3 35 0 37 -17 2 -15 9 -19 31 -17 29 3 34 -8 15
-38 -10 -16 -8 -25 18 -56 48 -60 75 -75 154 -85 62 -8 75 -7 85 7 8 12 29 17
75 18 63 1 63 1 66 33 2 21 -1 33 -11 37 -8 3 -15 12 -15 21 0 9 -16 23 -35
31 -39 16 -39 17 -25 44 9 16 5 22 -19 35 -17 8 -36 15 -44 15 -8 0 -22 10
-30 23 -10 13 -19 18 -24 12 -11 -14 -29 -17 -91 -17 -40 0 -59 -5 -73 -19
-15 -15 -24 -17 -39 -9 -11 6 -20 15 -20 20 0 5 -20 23 -45 40 -42 29 -44 33
-31 52 14 19 12 49 -3 47 -3 0 -19 -9 -35 -19z m212 -152 c-3 -7 -11 -13 -18
-13 -7 0 -15 6 -17 13 -3 7 4 12 17 12 13 0 20 -5 18 -12z m133 -110 c11 -21
3 -61 -11 -53 -14 9 -40 67 -35 76 8 12 34 -1 46 -23z"/>
<path d="M9129 6889 c-6 -3 -48 -7 -92 -8 -59 -1 -84 -6 -90 -16 -6 -12 -23
-13 -82 -8 -62 5 -76 3 -81 -10 -3 -9 4 -25 16 -37 l23 -23 40 21 40 20 22
-26 c22 -25 24 -26 63 -13 22 8 44 11 49 8 5 -3 24 3 42 14 30 18 35 19 50 5
10 -9 23 -16 29 -16 14 0 32 32 32 59 0 18 3 19 30 10 23 -9 33 -8 45 4 8 9
15 18 15 21 0 8 -138 3 -151 -5z"/>
<path d="M10582 6778 c-18 -18 -15 -28 8 -28 13 0 20 7 20 20 0 23 -10 26 -28
8z"/>
<path d="M9532 6728 c1 -13 -2 -33 -6 -45 -6 -20 -4 -23 17 -23 31 0 40 10 24
28 -6 8 -12 24 -12 35 0 11 -6 22 -12 24 -8 3 -12 -4 -11 -19z"/>
<path d="M10356 6667 c-15 -11 -15 -13 4 -29 19 -17 20 -16 30 1 14 26 -10 46
-34 28z"/>
<path d="M9460 6605 c0 -9 5 -15 11 -13 6 2 11 8 11 13 0 5 -5 11 -11 13 -6 2
-11 -4 -11 -13z"/>
<path d="M10270 6570 c-13 -25 -5 -40 20 -40 10 0 22 4 25 10 7 12 -12 50 -25
50 -5 0 -14 -9 -20 -20z"/>
<path d="M10480 6553 c0 -17 -102 -63 -136 -60 -21 1 -31 -4 -39 -20 -14 -32
-33 -36 -65 -13 -33 24 -48 13 -57 -43 -5 -31 -10 -37 -42 -44 -34 -8 -36 -11
-33 -43 6 -78 3 -133 -7 -143 -6 -6 -11 -20 -11 -31 0 -12 -6 -33 -14 -48 -8
-15 -12 -36 -9 -48 3 -11 1 -20 -5 -20 -6 0 -14 -10 -18 -22 -3 -13 -15 -35
-25 -50 -11 -14 -19 -31 -19 -37 0 -19 32 -12 37 9 6 24 10 25 29 6 19 -19 18
-36 -3 -52 -14 -10 -18 -26 -16 -76 2 -76 -17 -127 -58 -150 -16 -10 -29 -21
-29 -27 0 -16 30 -41 51 -41 28 0 23 -25 -7 -39 -22 -10 -30 -9 -45 5 -10 9
-25 14 -33 11 -9 -4 -18 -2 -21 3 -10 16 -35 11 -42 -7 -4 -10 -11 -21 -17
-25 -7 -5 -4 -12 8 -21 25 -18 14 -35 -29 -43 -36 -6 -44 -21 -23 -42 12 -12
-5 -42 -26 -42 -6 0 -17 -4 -24 -9 -12 -7 -12 -12 -1 -30 14 -21 49 -29 49
-11 0 6 5 10 11 10 12 0 8 -82 -5 -112 -7 -16 -3 -18 33 -18 l41 0 0 44 c0 23
-5 57 -11 75 -8 24 -8 35 1 46 16 20 29 19 37 -2 9 -25 45 -74 68 -95 31 -27
52 -22 71 18 9 20 30 45 45 56 39 29 48 74 19 100 -23 22 -23 53 0 53 8 0 19
-10 25 -22 12 -29 20 -29 51 2 28 29 27 45 -4 61 -15 7 -18 14 -11 25 5 8 6
27 3 43 -6 27 -5 28 26 21 24 -5 34 -3 45 12 19 26 42 4 26 -25 -16 -29 -14
-52 5 -59 20 -8 34 13 34 53 0 25 6 33 33 45 24 11 33 21 35 44 2 16 7 32 12
35 4 3 10 16 11 30 3 19 -2 28 -23 38 -16 7 -28 16 -29 20 0 4 -2 24 -4 44 -4
34 -2 37 23 40 23 3 30 11 45 58 9 30 16 59 14 65 -2 5 3 15 11 21 9 6 13 18
9 27 -5 13 -16 15 -50 11 -52 -7 -66 6 -43 40 8 13 12 33 9 45 -6 24 14 30 23
6 5 -13 10 -12 34 5 27 19 28 23 23 82 -5 52 -3 63 12 75 26 18 28 43 4 43
-10 0 -19 5 -19 11 0 6 7 8 16 5 8 -3 25 1 38 9 12 8 26 12 31 8 4 -5 5 -2 1
5 -4 6 -4 18 1 25 20 31 30 77 19 86 -15 13 -66 9 -66 -6z m-178 -225 l-5 -33
-13 30 c-9 22 -9 32 -1 37 18 11 24 1 19 -34z m-52 -118 c0 -11 -4 -20 -10
-20 -5 0 -10 9 -10 20 0 11 5 20 10 20 6 0 10 -9 10 -20z m-80 -293 c0 -19
-21 -37 -42 -37 -10 0 -18 -5 -18 -11 0 -5 -5 -7 -12 -3 -8 5 -6 11 5 19 10 7
17 17 17 23 0 6 6 13 13 15 22 10 37 7 37 -6z m50 -212 c0 -14 -4 -25 -10 -25
-11 0 -14 33 -3 43 11 11 13 8 13 -18z m-258 -217 c-2 -19 4 -31 18 -40 27
-17 25 -30 -10 -56 -39 -29 -50 -28 -50 6 0 15 -7 35 -15 45 -7 11 -12 25 -9
33 2 8 6 21 9 30 3 10 14 14 32 12 24 -3 28 -7 25 -30z"/>
<path d="M9610 6550 c0 -5 4 -10 9 -10 6 0 13 5 16 10 3 6 -1 10 -9 10 -9 0
-16 -4 -16 -10z"/>
<path d="M9534 6536 c-4 -9 -4 -20 0 -23 3 -4 12 -1 18 5 9 9 9 15 0 24 -9 9
-13 7 -18 -6z"/>
<path d="M9317 6512 c-23 -26 -22 -52 3 -52 25 0 36 24 24 51 -9 20 -10 20
-27 1z"/>
<path d="M9458 6479 c-26 -15 -24 -69 2 -69 11 0 20 4 20 9 0 5 9 13 20 16 20
6 29 45 11 45 -5 0 -15 2 -23 5 -7 2 -21 0 -30 -6z"/>
<path d="M8590 6450 c-13 -8 -12 -12 6 -31 26 -25 44 -18 44 17 0 26 -22 32
-50 14z"/>
<path d="M8500 6435 c0 -9 5 -15 11 -13 6 2 11 8 11 13 0 5 -5 11 -11 13 -6 2
-11 -4 -11 -13z"/>
<path d="M9377 6406 c-15 -12 -27 -29 -27 -38 0 -18 -41 -48 -65 -48 -22 0
-106 -70 -99 -81 10 -17 -7 -49 -26 -49 -32 0 -100 -31 -100 -46 0 -9 11 -14
30 -14 19 0 33 -7 40 -19 13 -26 13 -27 -7 -47 -16 -15 -16 -17 2 -30 37 -27
121 -9 111 24 -4 13 1 23 19 32 27 14 31 25 15 35 -12 8 -13 52 -1 59 5 3 15
-2 22 -11 12 -14 15 -10 19 33 6 56 26 68 58 33 41 -43 56 4 22 73 -20 43 -14
68 16 68 15 0 20 35 6 43 -4 3 -19 -5 -35 -17z"/>
<path d="M8405 6380 c-17 -19 -20 -50 -4 -50 12 0 74 49 74 59 0 14 -56 7 -70
-9z"/>
<path d="M8560 6331 c0 -5 5 -13 10 -16 6 -3 10 -2 10 4 0 5 -4 13 -10 16 -5
3 -10 2 -10 -4z"/>
<path d="M8593 6265 c-10 -27 6 -30 30 -7 l21 22 -22 0 c-12 0 -25 -7 -29 -15z"/>
<path d="M8824 6248 c-4 -6 0 -16 9 -23 10 -7 17 -23 17 -37 0 -34 19 -51 37
-32 12 12 12 20 1 51 -17 51 -47 70 -64 41z"/>
<path d="M8940 6215 c-14 -16 -6 -35 16 -35 8 0 14 10 14 25 0 28 -12 32 -30
10z"/>
<path d="M8727 6153 c-12 -11 -8 -22 14 -34 25 -13 43 0 33 24 -6 17 -35 23
-47 10z"/>
<path d="M9348 6148 c-27 -9 -41 -48 -18 -48 6 0 10 -7 10 -15 0 -17 16 -20
24 -6 4 5 0 11 -6 13 -8 3 -4 9 10 17 12 6 22 21 22 31 0 22 -3 23 -42 8z"/>
<path d="M5910 5940 c0 -5 5 -10 10 -10 6 0 10 5 10 10 0 6 -4 10 -10 10 -5 0
-10 -4 -10 -10z"/>
<path d="M9640 5336 c0 -19 -21 -21 -38 -4 -8 8 -15 8 -25 0 -10 -9 -16 -9
-25 0 -9 9 -12 3 -12 -28 0 -34 4 -43 26 -53 14 -6 41 -9 59 -5 19 3 35 1 39
-5 4 -6 25 -11 47 -11 35 0 39 -2 39 -26 0 -20 4 -25 16 -20 9 3 20 6 25 6 5
0 9 7 9 16 0 11 -6 13 -19 9 -16 -5 -20 -1 -19 17 4 63 -1 78 -27 78 -16 0
-25 6 -25 15 0 8 -5 15 -11 15 -6 0 -9 -9 -6 -20 7 -28 -8 -25 -32 6 -15 20
-21 22 -21 10z"/>
<path d="M9556 5093 c-11 -11 -6 -23 9 -23 8 0 15 4 15 9 0 13 -16 22 -24 14z"/>
<path d="M12625 5070 c-3 -5 -1 -10 4 -10 6 0 11 5 11 10 0 6 -2 10 -4 10 -3
0 -8 -4 -11 -10z"/>
<path d="M5700 4795 c0 -8 5 -15 10 -15 6 0 10 -7 10 -15 0 -19 17 -19 36 -1
18 19 18 32 -2 40 -28 11 -54 6 -54 -9z"/>
<path d="M5414 4739 c-9 -15 12 -33 30 -26 9 4 16 13 16 22 0 17 -35 21 -46 4z"/>
<path d="M5525 4710 c-7 -12 2 -30 16 -30 12 0 12 27 0 35 -5 3 -12 1 -16 -5z"/>
<path d="M5350 4611 c0 -19 35 -39 48 -26 9 9 -13 40 -32 43 -10 2 -16 -3 -16
-17z"/>
<path d="M5350 4501 c0 -7 -4 -9 -10 -6 -5 3 -10 1 -10 -6 0 -8 -4 -8 -13 -1
-10 9 -17 5 -29 -16 -32 -54 23 -80 75 -34 9 8 17 20 17 26 -1 16 -30 52 -30
37z"/>
<path d="M5482 4373 c-6 -2 -10 -9 -6 -14 8 -14 21 -11 28 6 6 15 1 17 -22 8z"/>
<path d="M5130 4296 c0 -2 7 -9 15 -16 12 -10 15 -10 15 4 0 9 -7 16 -15 16
-8 0 -15 -2 -15 -4z"/>
<path d="M5257 4252 c-15 -6 -13 -10 12 -25 27 -16 31 -16 45 -1 9 8 14 20 11
25 -7 10 -42 11 -68 1z"/>
<path d="M12420 4084 c0 -8 5 -12 10 -9 6 3 10 10 10 16 0 5 -4 9 -10 9 -5 0
-10 -7 -10 -16z"/>
<path d="M5063 3887 c-20 -25 -107 -77 -129 -77 -9 0 -14 -11 -14 -29 0 -16
-6 -34 -14 -40 -21 -18 -28 -75 -14 -120 12 -37 16 -41 45 -41 26 0 33 -4 33
-20 0 -24 -17 -26 -41 -5 -25 23 -63 10 -96 -33 -15 -20 -28 -41 -29 -47 0 -5
-2 -16 -2 -22 -1 -7 -8 -13 -15 -13 -9 0 -12 -10 -9 -30 3 -24 9 -30 28 -30
29 0 31 -14 4 -33 -16 -11 -19 -21 -14 -41 4 -19 2 -26 -8 -26 -18 0 -61 -46
-76 -82 -6 -16 -18 -28 -25 -28 -8 0 -22 -9 -31 -19 -14 -15 -15 -24 -6 -40 6
-12 15 -21 21 -21 5 0 9 -12 9 -27 0 -16 1 -39 2 -53 3 -21 -2 -26 -26 -28
-19 -2 -32 2 -38 12 -17 31 -36 16 -53 -41 -15 -51 -15 -57 -1 -65 22 -12 20
-31 -5 -48 -56 -39 -63 -67 -15 -62 31 3 34 -13 6 -28 -23 -12 -27 -50 -5 -50
7 0 19 -8 24 -17 9 -16 10 -14 11 8 0 15 7 30 16 33 22 8 24 8 24 -7 0 -8 9
-22 20 -32 29 -26 27 -81 -2 -90 -13 -4 -37 -18 -55 -31 -57 -43 -87 -25 -36
22 23 22 25 26 11 37 -9 6 -18 21 -20 32 -2 11 -10 20 -18 21 -34 2 -39 5 -46
26 -6 21 -7 21 -20 3 -7 -10 -11 -22 -8 -27 3 -5 -3 -12 -15 -15 -27 -7 -27
-27 0 -52 22 -20 19 -41 -7 -41 -20 0 -17 -38 5 -67 16 -20 18 -29 9 -49 -9
-18 -8 -30 2 -49 15 -27 40 -34 40 -10 0 22 21 18 54 -10 24 -19 27 -26 17
-38 -7 -9 -9 -26 -5 -44 5 -23 4 -26 -7 -15 -17 16 -56 16 -62 0 -3 -10 -12
-9 -35 5 -57 33 -113 19 -131 -34 -6 -17 -19 -33 -30 -36 -41 -11 -33 -40 22
-78 19 -13 20 -19 11 -44 -11 -29 -3 -57 20 -73 7 -5 5 -8 -5 -8 -26 0 -73
-56 -64 -77 5 -10 7 -39 6 -64 -2 -40 1 -49 26 -70 16 -14 28 -29 27 -34 -1
-6 -5 -23 -8 -38 -4 -15 -11 -25 -16 -22 -17 11 -11 -7 7 -20 16 -12 16 -14
-6 -32 -21 -17 -22 -24 -14 -49 7 -21 17 -30 36 -32 15 -2 27 -8 27 -14 0 -6
-13 -8 -34 -5 -18 3 -38 2 -42 -3 -5 -4 -26 -13 -47 -20 -30 -9 -37 -16 -32
-31 10 -31 -4 -59 -29 -59 -13 0 -31 -9 -41 -20 -17 -19 -17 -21 11 -57 15
-21 34 -44 42 -52 7 -7 11 -19 9 -25 -41 -108 -43 -115 -22 -135 11 -11 29
-21 40 -23 26 -4 54 52 55 109 0 31 5 45 20 53 16 8 21 6 31 -12 23 -44 37
-47 77 -13 26 22 29 30 25 64 -5 33 -2 40 16 46 11 3 24 17 27 30 3 13 14 25
25 28 23 6 25 44 6 97 -22 61 -34 77 -48 63 -15 -15 -49 -17 -49 -4 0 12 29
41 41 41 14 0 49 38 49 54 0 8 9 17 19 21 11 3 23 15 26 25 4 11 18 23 33 26
15 4 33 11 40 17 19 15 14 53 -10 69 l-22 15 27 27 c38 38 38 96 0 124 -28 20
-25 42 6 42 16 0 18 8 16 65 -3 72 4 82 69 92 49 8 58 20 41 54 -9 16 -21 28
-28 26 -6 -1 -12 6 -11 16 0 9 1 37 2 60 2 36 6 46 28 56 16 7 24 18 22 28 -5
26 -35 28 -43 2 -6 -19 -9 -20 -22 -6 -21 21 -8 56 25 64 15 3 36 12 47 19 11
7 39 16 61 20 64 10 70 17 40 49 -24 26 -25 29 -8 41 16 12 16 14 -3 28 -19
14 -19 16 -3 61 23 62 13 83 -45 87 -41 3 -41 3 -18 17 19 10 25 10 31 1 8
-13 18 -10 50 9 8 5 23 12 33 15 24 7 21 22 -8 52 -32 32 -31 40 3 52 23 8 27
16 30 51 2 26 -4 53 -15 71 -9 16 -14 32 -10 36 12 12 37 -5 37 -27 0 -18 4
-20 28 -13 15 4 47 10 72 13 52 7 64 31 32 62 -33 30 -38 98 -11 150 13 24 22
54 20 65 -1 15 5 23 21 28 21 6 22 7 6 20 -14 10 -15 15 -5 26 10 10 9 12 -4
7 -22 -7 -81 57 -66 72 6 6 19 11 29 11 18 0 19 24 3 78 -10 32 16 29 42 -6
26 -35 86 -40 91 -7 5 39 25 95 34 95 4 0 8 9 8 20 0 18 -7 20 -61 20 -46 0
-68 5 -91 21 -19 14 -26 25 -20 31 13 13 32 1 32 -19 0 -13 5 -12 25 7 14 13
25 20 25 15 0 -4 9 0 19 9 18 16 21 16 60 -3 48 -25 51 -25 51 -7 0 19 -57 66
-80 66 -11 0 -31 11 -46 25 -33 31 -47 31 -71 2z m40 -173 c9 -10 -4 -34 -19
-34 -8 0 -14 9 -14 20 0 19 19 27 33 14z m-393 -1128 c0 -3 -4 -8 -10 -11 -5
-3 -10 -1 -10 4 0 6 5 11 10 11 6 0 10 -2 10 -4z m-235 -366 c0 -7 -6 -15 -12
-17 -8 -3 -13 4 -13 17 0 13 5 20 13 18 6 -3 12 -11 12 -18z m45 -229 c0 -4
-20 -17 -45 -29 l-44 -21 10 27 c6 14 15 29 20 33 12 7 59 -1 59 -10z m-223
-477 c-3 -3 -12 -4 -19 -1 -8 3 -5 6 6 6 11 1 17 -2 13 -5z m33 -75 c0 -5 -7
-9 -15 -9 -15 0 -20 12 -9 23 8 8 24 -1 24 -14z"/>
<path d="M4940 2980 c0 -5 5 -10 10 -10 6 0 10 5 10 10 0 6 -4 10 -10 10 -5 0
-10 -4 -10 -10z"/>
<path d="M4397 1204 c-4 -4 -4 -11 -1 -15 8 -14 31 -10 38 6 5 15 -24 22 -37
9z"/>
<path d="M4320 1137 c0 -8 -12 -35 -26 -61 l-26 -46 27 -53 c40 -76 41 -77 78
-65 99 31 104 38 57 83 -32 31 -38 50 -17 58 9 4 9 7 0 18 -10 10 -16 9 -34
-7 -21 -18 -21 -18 -36 1 -8 12 -12 31 -9 47 3 15 1 30 -4 33 -6 3 -10 0 -10
-8z"/>
<path d="M4098 1093 c-16 -2 -28 -11 -28 -19 0 -16 30 -49 51 -56 11 -5 12 -8
2 -19 -21 -22 -15 -48 12 -55 26 -6 34 -29 13 -36 -19 -7 1 -28 27 -28 18 0
23 4 19 15 -4 9 0 15 8 15 16 0 38 40 38 70 0 21 -34 45 -50 35 -6 -4 -7 6 -4
25 5 23 2 34 -12 45 -19 15 -27 15 -76 8z"/>
<path d="M4281 836 c-12 -12 -21 -28 -21 -35 0 -10 -13 -12 -51 -9 -40 4 -54
1 -67 -12 -10 -10 -31 -21 -49 -24 -50 -11 -55 -53 -7 -74 29 -14 30 -22 4
-45 -17 -14 -19 -21 -9 -39 6 -11 12 -45 13 -74 1 -34 8 -59 19 -72 18 -20 24
-72 8 -72 -14 0 -33 -64 -25 -83 3 -10 12 -17 19 -17 16 0 25 -22 25 -62 0
-23 4 -29 16 -24 9 3 18 6 20 6 9 0 3 47 -7 57 -7 7 -7 17 -1 29 17 31 25 58
23 75 -1 8 6 22 16 31 22 19 79 32 87 20 6 -10 8 -54 4 -91 -2 -17 4 -26 20
-32 19 -7 22 -5 22 14 0 13 -5 28 -12 35 -9 9 1 12 45 12 l57 0 0 33 c0 18 -5
38 -12 45 -6 6 -14 44 -17 84 l-6 73 -30 0 c-56 0 -103 74 -48 76 14 0 12 3
-6 10 -23 9 -23 10 -6 29 15 16 19 17 31 5 8 -7 14 -18 14 -24 0 -6 10 -11 21
-11 28 0 107 39 113 56 5 12 -43 55 -76 67 -14 5 -16 13 -12 36 l6 31 -50 -1
c-38 -1 -56 -7 -71 -23z"/>
<path d="M13947 553 c-10 -9 -8 -56 3 -73 13 -21 29 -2 37 43 5 32 3 37 -14
37 -11 0 -23 -3 -26 -7z"/>
</g>
</svg>
